<?xml version="1.0" encoding="UTF-8"?>
<!-- Generator: Adobe Illustrator 27.5.0, SVG Export Plug-In . SVG Version: 6.00 Build 0)  -->
<svg width="24" height="24" version="1.1" viewBox="0 0 24 24" xml:space="preserve" xmlns="http://www.w3.org/2000/svg">
<style type="text/css">
	.st0{stroke:#FFFFFF;stroke-miterlimit:10;}
	.st1{fill:#FFFFFF;}
</style>
<path class="st0" d="m4.3398 2.0117c-1.2864-1e-7 -2.3281 1.0418-2.3281 2.3281v15.318c0 1.2864 1.0417 2.3301 2.3281 2.3301h15.318v-0.001953c1.2863 0 2.3284-1.0415 2.3281-2.3281v-15.318c0-1.2864-1.0417-2.3281-2.3281-2.3281h-15.318zm-0.57031 1.7188h4.9219l4.1875 5.9805 5.1816-5.9805h1.4453l-5.9805 6.9043 6.7441 9.6348h-4.9219l-4.5449-6.4941-5.627 6.4941h-1.4453l6.4258-7.416-6.3867-9.123zm2.127 1.1387 9.9844 14.262h2.2617l-9.9844-14.262h-2.2617z" fill="#808080"/>

</svg>
