<?xml version="1.0" encoding="UTF-8"?>
<!DOCTYPE svg PUBLIC "-//W3C//DTD SVG 1.1//EN" "http://www.w3.org/Graphics/SVG/1.1/DTD/svg11.dtd">
<svg xmlns="http://www.w3.org/2000/svg" version="1.1" width="500px" height="410px" style="shape-rendering:geometricPrecision; text-rendering:geometricPrecision; image-rendering:optimizeQuality; fill-rule:evenodd; clip-rule:evenodd" xmlns:xlink="http://www.w3.org/1999/xlink">
<g><path style="opacity:0.686" fill="#efefef" d="M 294.5,5.5 C 295.5,5.5 296.5,5.5 297.5,5.5C 297.5,8.5 297.5,11.5 297.5,14.5C 296.5,14.5 295.5,14.5 294.5,14.5C 294.5,11.5 294.5,8.5 294.5,5.5 Z"/></g>
<g><path style="opacity:0.993" fill="#eeeeee" d="M 309.5,9.5 C 310.5,9.5 311.5,9.5 312.5,9.5C 312.755,12.99 311.422,15.6567 308.5,17.5C 307.692,17.1924 307.025,16.6924 306.5,16C 307.914,14.0065 308.914,11.8398 309.5,9.5 Z"/></g>
<g><path style="opacity:1" fill="#ebebeb" d="M 279.5,10.5 C 283.573,10.9464 285.573,13.2798 285.5,17.5C 281.9,16.6802 279.9,14.3469 279.5,10.5 Z"/></g>
<g><path style="opacity:0.999" fill="#e4c6e9" d="M 303.5,57.5 C 301.308,61.2526 297.975,62.4192 293.5,61C 292.756,59.9614 291.756,59.4614 290.5,59.5C 289.226,58.8106 289.226,57.9772 290.5,57C 279.937,49.3191 277.104,39.4858 282,27.5C 289.883,18.6486 298.717,17.4819 308.5,24C 315.13,31.5627 315.963,39.7293 311,48.5C 307.912,51.0814 305.412,54.0814 303.5,57.5 Z"/></g>
<g><path style="opacity:0.982" fill="#eeeeee" d="M 320.5,20.5 C 321.978,20.238 323.311,20.5713 324.5,21.5C 322.733,23.8901 320.4,25.5568 317.5,26.5C 316.417,25.635 316.251,24.635 317,23.5C 318.145,22.3636 319.312,21.3636 320.5,20.5 Z"/></g>
<g><path style="opacity:1" fill="#ededed" d="M 268.5,21.5 C 272.245,21.2029 274.911,22.7029 276.5,26C 276.167,26.5 275.833,27 275.5,27.5C 273.5,26.5 271.5,25.5 269.5,24.5C 268.614,23.675 268.281,22.675 268.5,21.5 Z"/></g>
<g><path style="opacity:0.999" fill="#b5b5b5" d="M 160.5,37.5 C 160.5,37.1667 160.5,36.8333 160.5,36.5C 161.222,36.0825 161.722,35.4158 162,34.5C 163.918,35.5418 165.751,36.7085 167.5,38C 166.91,39.5095 166.244,41.0095 165.5,42.5C 163.054,41.4756 161.388,39.8089 160.5,37.5 Z"/></g>
<g><path style="opacity:0.996" fill="#e1e1e1" d="M 149.5,70.5 C 151.745,69.1722 152.078,67.3388 150.5,65C 146.002,61.6058 144.668,62.7725 146.5,68.5C 145.275,67.8478 144.608,66.6811 144.5,65C 144.667,63.8333 144.833,62.6667 145,61.5C 147.489,59.5309 149.322,57.1975 150.5,54.5C 149.833,57.8332 151.167,59.8332 154.5,60.5C 155.696,59.4406 156.363,58.1073 156.5,56.5C 155.538,53.7546 153.705,51.7546 151,50.5C 150.536,51.0944 150.369,51.7611 150.5,52.5C 149.609,51.7387 148.942,50.7387 148.5,49.5C 149.344,44.9226 152.011,42.4226 156.5,42C 158.07,40.6032 159.404,39.1032 160.5,37.5C 161.388,39.8089 163.054,41.4756 165.5,42.5C 166.244,41.0095 166.91,39.5095 167.5,38C 165.751,36.7085 163.918,35.5418 162,34.5C 161.722,35.4158 161.222,36.0825 160.5,36.5C 162.887,30.4033 166.72,29.4033 172,33.5C 172.637,31.6969 173.803,30.3636 175.5,29.5C 178.661,30.9131 181.661,32.5797 184.5,34.5C 185.051,36.4132 185.218,38.4132 185,40.5C 189.218,42.5631 190.552,45.8964 189,50.5C 184.145,53.4455 182.979,57.2788 185.5,62C 184.52,66.3196 181.853,68.653 177.5,69C 174.989,71.6804 173.323,74.8471 172.5,78.5C 169.167,81.1667 165.833,81.1667 162.5,78.5C 161.354,79.1449 160.354,79.9783 159.5,81C 155.925,80.386 152.592,78.886 149.5,76.5C 148.769,74.5988 148.769,72.5988 149.5,70.5 Z M 170.5,52.5 C 169.244,56.0163 167.244,59.0163 164.5,61.5C 164.07,57.0222 165.903,53.3555 170,50.5C 170.464,51.0944 170.631,51.7611 170.5,52.5 Z"/></g>
<g><path style="opacity:1" fill="#eaeaea" d="M 319.5,35.5 C 322.5,35.5 325.5,35.5 328.5,35.5C 328.5,36.5 328.5,37.5 328.5,38.5C 325.5,38.5 322.5,38.5 319.5,38.5C 319.5,37.5 319.5,36.5 319.5,35.5 Z"/></g>
<g><path style="opacity:0.654" fill="#efefef" d="M 265.5,36.5 C 268.167,36.5 270.833,36.5 273.5,36.5C 273.5,37.5 273.5,38.5 273.5,39.5C 270.813,39.6641 268.146,39.4974 265.5,39C 264.402,38.2303 264.402,37.397 265.5,36.5 Z"/></g>
<g><path style="opacity:1" fill="#f7eef9" d="M 298.5,55.5 C 298.531,52.0412 299.198,48.7079 300.5,45.5C 299.24,44.6184 298.074,43.6184 297,42.5C 295.513,43.1552 294.347,44.1552 293.5,45.5C 294.802,48.7079 295.469,52.0412 295.5,55.5C 295.539,57.2239 295.206,57.5573 294.5,56.5C 293.651,52.8987 292.984,49.232 292.5,45.5C 289.5,45.8333 288.167,44.5 288.5,41.5C 290.39,41.2965 291.89,41.9632 293,43.5C 294.817,41.5839 295.984,39.2506 296.5,36.5C 297.764,38.6567 298.764,40.8233 299.5,43C 301.107,43.1151 302.607,42.6151 304,41.5C 304.5,41.8333 305,42.1667 305.5,42.5C 304.5,44.1667 303.167,45.5 301.5,46.5C 301.232,49.9611 300.232,52.9611 298.5,55.5 Z"/></g>
<g><path style="opacity:1" fill="#e3c4e9" d="M 298.5,55.5 C 297.5,55.5 296.5,55.5 295.5,55.5C 295.469,52.0412 294.802,48.7079 293.5,45.5C 294.347,44.1552 295.513,43.1552 297,42.5C 298.074,43.6184 299.24,44.6184 300.5,45.5C 299.198,48.7079 298.531,52.0412 298.5,55.5 Z"/></g>
<g><path style="opacity:0.999" fill="#b6b6b6" d="M 99.5,46.5 C 106.925,47.5336 108.925,51.2002 105.5,57.5C 102.422,56.1627 100.089,54.1627 98.5,51.5C 98.2155,49.5853 98.5489,47.9187 99.5,46.5 Z"/></g>
<g><path style="opacity:0.993" fill="#e1e1e1" d="M 88.5,108.5 C 90.1238,108.64 91.2904,107.973 92,106.5C 94.3998,97.2788 91.5665,95.2788 83.5,100.5C 83.5674,99.0413 83.2341,97.7079 82.5,96.5C 83.4959,96.4142 84.3292,96.7476 85,97.5C 85.8184,94.7728 85.6517,92.1062 84.5,89.5C 82.2011,88.3649 80.0344,87.0316 78,85.5C 77.2642,88.592 77.4309,91.592 78.5,94.5C 77.2227,93.3064 76.5561,91.6397 76.5,89.5C 76.6667,87.8333 76.8333,86.1667 77,84.5C 79.4003,82.2707 81.567,79.9374 83.5,77.5C 85.0886,80.1627 87.4219,82.1627 90.5,83.5C 92.1463,82.0978 93.1463,80.2644 93.5,78C 92.3204,74.147 89.4871,71.3136 85,69.5C 84.5357,70.0944 84.369,70.7611 84.5,71.5C 83.5207,70.2347 82.5207,68.9014 81.5,67.5C 83.2003,64.9613 84.7003,62.2947 86,59.5C 91.5937,59.0747 95.7603,56.408 98.5,51.5C 100.089,54.1627 102.422,56.1627 105.5,57.5C 108.925,51.2002 106.925,47.5336 99.5,46.5C 101.586,44.1784 104.086,42.1784 107,40.5C 109.349,41.8403 111.683,43.1736 114,44.5C 116.266,43.2931 118.099,41.6264 119.5,39.5C 124.082,42.0407 128.582,44.7074 133,47.5C 133.342,49.8183 132.842,51.985 131.5,54C 133.699,55.6971 136.032,57.1971 138.5,58.5C 141.176,65.2767 139.343,70.2767 133,73.5C 132.5,75.5 132,77.5 131.5,79.5C 132.167,81.5 132.833,83.5 133.5,85.5C 132.185,88.1304 130.851,90.7971 129.5,93.5C 124.553,93.4144 120.72,95.4144 118,99.5C 116.218,110.894 110.552,113.561 101,107.5C 99.7101,109.792 98.0435,111.792 96,113.5C 93.1761,112.182 90.6761,110.515 88.5,108.5 Z M 113.5,67.5 C 112.383,75.0678 108.717,81.0678 102.5,85.5C 103.139,77.54 106.805,71.54 113.5,67.5 Z"/></g>
<g><path style="opacity:1" fill="#b8b8b8" d="M 164.5,61.5 C 167.244,59.0163 169.244,56.0163 170.5,52.5C 171.434,51.4324 171.768,50.099 171.5,48.5C 175.134,48.1565 176.801,49.8232 176.5,53.5C 176.214,59.9509 173.047,64.2843 167,66.5C 163.999,65.7139 163.166,64.0472 164.5,61.5 Z"/></g>
<g><path style="opacity:1" fill="#b7b7b7" d="M 150.5,54.5 C 150.5,53.8333 150.5,53.1667 150.5,52.5C 150.369,51.7611 150.536,51.0944 151,50.5C 153.705,51.7546 155.538,53.7546 156.5,56.5C 156.363,58.1073 155.696,59.4406 154.5,60.5C 151.167,59.8332 149.833,57.8332 150.5,54.5 Z"/></g>
<g><path style="opacity:1" fill="#323c42" d="M 353.5,61.5 C 354.167,62.8333 355.167,63.8333 356.5,64.5C 356.5,67.5 356.5,70.5 356.5,73.5C 355.022,73.238 353.689,73.5713 352.5,74.5C 351.01,79.0621 349.844,83.7288 349,88.5C 345.901,91.8123 342.067,93.479 337.5,93.5C 335.167,93.5 332.833,93.5 330.5,93.5C 329.209,93.7373 328.209,93.404 327.5,92.5C 327.167,91.5 326.5,90.8333 325.5,90.5C 324.596,89.791 324.263,88.791 324.5,87.5C 324.232,85.901 324.566,84.5676 325.5,83.5C 325.56,84.0431 325.893,84.3764 326.5,84.5C 328.311,83.2606 330.311,82.5939 332.5,82.5C 335.5,83.1667 338.5,83.8333 341.5,84.5C 346.602,84.3113 348.935,81.6446 348.5,76.5C 347.529,72.8907 346.863,69.2241 346.5,65.5C 339.71,67.1557 333.044,66.8223 326.5,64.5C 325.614,65.325 325.281,66.325 325.5,67.5C 324.596,66.791 324.263,65.791 324.5,64.5C 321.139,58.543 322.806,54.543 329.5,52.5C 332.772,53.4847 336.105,54.1514 339.5,54.5C 343.486,53.6672 347.486,53.5006 351.5,54C 353.113,56.2276 353.78,58.7276 353.5,61.5 Z"/></g>
<g><path style="opacity:0.999" fill="#dcb1e2" d="M 413.5,74.5 C 411.833,75.1667 410.167,75.8333 408.5,76.5C 398.227,69.6891 387.56,63.3558 376.5,57.5C 375.817,57.8627 375.15,58.1961 374.5,58.5C 375.828,54.746 378.494,53.5793 382.5,55C 391.833,60.3333 401.167,65.6667 410.5,71C 412.063,71.7589 413.063,72.9256 413.5,74.5 Z"/></g>
<g><path style="opacity:1" fill="#be72cb" d="M 295.5,55.5 C 296.5,55.5 297.5,55.5 298.5,55.5C 298.389,57.6477 299.056,57.981 300.5,56.5C 301.739,58.0072 301.405,59.1739 299.5,60C 296.672,60.9694 294.338,60.3028 292.5,58C 293.044,57.2828 293.711,56.7828 294.5,56.5C 295.206,57.5573 295.539,57.2239 295.5,55.5 Z"/></g>
<g><path style="opacity:0.072" fill="#f7ecf8" d="M 374.5,58.5 C 374.5,62.1667 374.5,65.8333 374.5,69.5C 373.167,69.5 371.833,69.5 370.5,69.5C 371.172,68.7326 372.005,68.0659 373,67.5C 373.181,64.3054 373.681,61.3054 374.5,58.5 Z"/></g>
<g><path style="opacity:1" fill="#bd70ca" d="M 408.5,76.5 C 409.634,84.7548 409.801,93.0881 409,101.5C 408.329,102.252 407.496,102.586 406.5,102.5C 404.847,102.34 403.514,101.674 402.5,100.5C 402.027,99.0937 401.027,98.427 399.5,98.5C 397.847,98.3404 396.514,97.6737 395.5,96.5C 395.027,95.0937 394.027,94.427 392.5,94.5C 390.847,94.3404 389.514,93.6737 388.5,92.5C 388.027,91.0937 387.027,90.427 385.5,90.5C 383.847,90.3404 382.514,89.6737 381.5,88.5C 381.027,87.0937 380.027,86.427 378.5,86.5C 378.027,85.0937 377.027,84.427 375.5,84.5C 373.982,81.4659 373.149,78.1325 373,74.5C 371.647,73.3147 370.48,71.9814 369.5,70.5C 369.624,69.8933 369.957,69.56 370.5,69.5C 371.833,69.5 373.167,69.5 374.5,69.5C 374.5,65.8333 374.5,62.1667 374.5,58.5C 375.15,58.1961 375.817,57.8627 376.5,57.5C 387.56,63.3558 398.227,69.6891 408.5,76.5 Z"/></g>
<g><path style="opacity:0.004" fill="#d2d4d6" d="M 353.5,61.5 C 355.5,61.5 356.5,62.5 356.5,64.5C 355.167,63.8333 354.167,62.8333 353.5,61.5 Z"/></g>
<g><path style="opacity:1" fill="#b8b8b8" d="M 149.5,70.5 C 148.29,70.0679 147.29,69.4013 146.5,68.5C 144.668,62.7725 146.002,61.6058 150.5,65C 152.078,67.3388 151.745,69.1722 149.5,70.5 Z"/></g>
<g><path style="opacity:1" fill="#5a6971" d="M 303.5,57.5 C 305.34,63.7678 303.173,68.1011 297,70.5C 291.805,68.7723 289.639,65.1057 290.5,59.5C 291.756,59.4614 292.756,59.9614 293.5,61C 297.975,62.4192 301.308,61.2526 303.5,57.5 Z"/></g>
<g><path style="opacity:1" fill="#f7a3a2" d="M 325.5,83.5 C 325.176,79.4454 325.509,75.4454 326.5,71.5C 327.308,71.1924 327.975,70.6924 328.5,70C 326.881,69.7645 325.881,68.9311 325.5,67.5C 325.281,66.325 325.614,65.325 326.5,64.5C 333.044,66.8223 339.71,67.1557 346.5,65.5C 346.863,69.2241 347.529,72.8907 348.5,76.5C 348.935,81.6446 346.602,84.3113 341.5,84.5C 338.5,83.8333 335.5,83.1667 332.5,82.5C 330.311,82.5939 328.311,83.2606 326.5,84.5C 325.893,84.3764 325.56,84.0431 325.5,83.5 Z"/></g>
<g><path style="opacity:1" fill="#b7b7b7" d="M 102.5,85.5 C 108.717,81.0678 112.383,75.0678 113.5,67.5C 116.143,66.0209 118.643,66.3542 121,68.5C 122.873,78.5965 119.373,86.0965 110.5,91C 105.79,92.1214 103.123,90.2881 102.5,85.5 Z"/></g>
<g><path style="opacity:1" fill="#6c585c" d="M 340.5,70.5 C 341.497,69.2875 342.497,69.4542 343.5,71C 342.423,71.4696 341.423,71.3029 340.5,70.5 Z"/></g>
<g><path style="opacity:1" fill="#968789" d="M 324.5,64.5 C 324.263,65.791 324.596,66.791 325.5,67.5C 325.881,68.9311 326.881,69.7645 328.5,70C 327.975,70.6924 327.308,71.1924 326.5,71.5C 325.509,75.4454 325.176,79.4454 325.5,83.5C 324.566,84.5676 324.232,85.901 324.5,87.5C 323.773,81.8113 323.106,75.978 322.5,70C 322.954,67.9701 323.62,66.1368 324.5,64.5 Z"/></g>
<g><path style="opacity:0.999" fill="#b8b8b8" d="M 83.5,77.5 C 83.8333,75.5 84.1667,73.5 84.5,71.5C 84.369,70.7611 84.5357,70.0944 85,69.5C 89.4871,71.3136 92.3204,74.147 93.5,78C 93.1463,80.2644 92.1463,82.0978 90.5,83.5C 87.4219,82.1627 85.0886,80.1627 83.5,77.5 Z"/></g>
<g><path style="opacity:1" fill="#32383e" d="M 327.5,73.5 C 329.337,73.6395 329.67,74.3061 328.5,75.5C 327.702,75.0431 327.369,74.3764 327.5,73.5 Z"/></g>
<g><path style="opacity:1" fill="#363a40" d="M 338.5,74.5 C 340.337,74.6395 340.67,75.3061 339.5,76.5C 338.702,76.0431 338.369,75.3764 338.5,74.5 Z"/></g>
<g><path style="opacity:1" fill="#f1e1f4" d="M 397.5,80.5 C 394.82,77.4901 391.487,75.4901 387.5,74.5C 385.399,74.6316 383.899,75.6316 383,77.5C 382.333,76.5 382.333,75.5 383,74.5C 389.72,72.0719 394.553,74.0719 397.5,80.5 Z"/></g>
<g><path style="opacity:1" fill="#d098d9" d="M 413.5,74.5 C 414.657,83.3238 414.824,92.3238 414,101.5C 411.643,103.646 409.143,103.979 406.5,102.5C 407.496,102.586 408.329,102.252 409,101.5C 409.801,93.0881 409.634,84.7548 408.5,76.5C 410.167,75.8333 411.833,75.1667 413.5,74.5 Z"/></g>
<g><path style="opacity:1" fill="#f4e7f6" d="M 389.5,77.5 C 394.317,78.2373 395.65,80.904 393.5,85.5C 390.106,83.8909 388.773,81.2243 389.5,77.5 Z"/></g>
<g><path style="opacity:1" fill="#e3c2e9" d="M 397.5,80.5 C 398.906,80.9731 399.573,81.9731 399.5,83.5C 398.094,83.0269 397.427,82.0269 397.5,80.5 Z"/></g>
<g><path style="opacity:0.643" fill="#e5c5ea" d="M 375.5,84.5 C 377.027,84.427 378.027,85.0937 378.5,86.5C 376.973,86.573 375.973,85.9063 375.5,84.5 Z"/></g>
<g><path style="opacity:1" fill="#ebd3ef" d="M 392.5,87.5 C 391.244,87.5386 390.244,87.0386 389.5,86C 390.998,85.4153 391.998,85.9153 392.5,87.5 Z"/></g>
<g><path style="opacity:1" fill="#b6b6b6" d="M 82.5,96.5 C 80.847,96.3404 79.5137,95.6737 78.5,94.5C 77.4309,91.592 77.2642,88.592 78,85.5C 80.0344,87.0316 82.2011,88.3649 84.5,89.5C 85.6517,92.1062 85.8184,94.7728 85,97.5C 84.3292,96.7476 83.4959,96.4142 82.5,96.5 Z"/></g>
<g><path style="opacity:1" fill="#c9797a" d="M 335.5,85.5 C 338.797,85.3287 339.131,85.9954 336.5,87.5C 335.702,87.0431 335.369,86.3764 335.5,85.5 Z"/></g>
<g><path style="opacity:0.333" fill="#f2e2f5" d="M 378.5,86.5 C 380.027,86.427 381.027,87.0937 381.5,88.5C 379.973,88.573 378.973,87.9063 378.5,86.5 Z"/></g>
<g><path style="opacity:1" fill="#f1e1f4" d="M 399.5,83.5 C 401.582,84.5849 401.916,86.0849 400.5,88C 397.587,90.0911 394.92,89.9244 392.5,87.5C 394.857,87.6633 397.19,87.4966 399.5,87C 400.171,86.0138 400.171,84.8471 399.5,83.5 Z"/></g>
<g><path style="opacity:1" fill="#f4adac" d="M 356.5,64.5 C 357.109,69.132 358.109,73.7987 359.5,78.5C 359.101,80.1966 358.601,81.8632 358,83.5C 354.481,85.1744 352.315,87.841 351.5,91.5C 351.703,93.3904 351.037,94.8904 349.5,96C 345.833,98.1667 342.167,100.333 338.5,102.5C 337.516,99.5719 337.183,96.5719 337.5,93.5C 342.067,93.479 345.901,91.8123 349,88.5C 349.844,83.7288 351.01,79.0621 352.5,74.5C 353.689,73.5713 355.022,73.238 356.5,73.5C 356.5,70.5 356.5,67.5 356.5,64.5 Z"/></g>
<g><path style="opacity:0.02" fill="#dddfe0" d="M 325.5,90.5 C 326.5,90.8333 327.167,91.5 327.5,92.5C 326.167,92.5 325.5,91.8333 325.5,90.5 Z"/></g>
<g><path style="opacity:0.333" fill="#f2e2f5" d="M 385.5,90.5 C 387.027,90.427 388.027,91.0937 388.5,92.5C 386.973,92.573 385.973,91.9063 385.5,90.5 Z"/></g>
<g><path style="opacity:0.353" fill="#f2e1f4" d="M 392.5,94.5 C 394.027,94.427 395.027,95.0937 395.5,96.5C 393.973,96.573 392.973,95.9063 392.5,94.5 Z"/></g>
<g><path style="opacity:1" fill="#bb6ac8" d="M 332.5,96.5 C 333.5,96.5 334.5,96.5 335.5,96.5C 335.167,97.5 334.5,98.1667 333.5,98.5C 332.078,98.7086 330.745,99.2086 329.5,100C 328.359,102.783 326.525,104.95 324,106.5C 323.391,113.189 323.557,119.856 324.5,126.5C 323.793,134.146 323.46,141.813 323.5,149.5C 322.609,150.11 321.609,150.443 320.5,150.5C 317.916,149.952 316.916,148.285 317.5,145.5C 316.36,135.577 316.193,125.577 317,115.5C 318.476,105.882 323.643,99.5488 332.5,96.5 Z"/></g>
<g><path style="opacity:0.999" fill="#bbbbbb" d="M 88.5,108.5 C 86.0587,107.443 83.7254,106.11 81.5,104.5C 82.1799,103.14 82.8466,101.807 83.5,100.5C 91.5665,95.2788 94.3998,97.2788 92,106.5C 91.2904,107.973 90.1238,108.64 88.5,108.5 Z"/></g>
<g><path style="opacity:1" fill="#c98cd3" d="M 332.5,96.5 C 323.643,99.5488 318.476,105.882 317,115.5C 316.193,125.577 316.36,135.577 317.5,145.5C 316.5,145.833 315.833,146.5 315.5,147.5C 312.659,147.44 309.993,146.774 307.5,145.5C 306.818,140.107 305.818,134.773 304.5,129.5C 305.338,129.158 305.672,128.492 305.5,127.5C 307.967,118.6 311.134,109.934 315,101.5C 316.579,99.9588 318.413,98.7922 320.5,98C 324.491,97.3583 328.491,96.8583 332.5,96.5 Z"/></g>
<g><path style="opacity:1" fill="#bb6bc9" d="M 359.5,98.5 C 361.284,98.8925 362.95,99.5592 364.5,100.5C 355.769,114.351 349.769,129.351 346.5,145.5C 345.167,145.5 343.833,145.5 342.5,145.5C 340.487,134.825 342.987,125.492 350,117.5C 355.168,115.356 355.668,112.523 351.5,109C 353.25,107.681 355.25,107.181 357.5,107.5C 357.492,104.455 357.159,101.455 356.5,98.5C 357.5,98.5 358.5,98.5 359.5,98.5 Z"/></g>
<g><path style="opacity:0.439" fill="#f7eff9" d="M 155.5,107.5 C 154.122,108.234 152.622,108.901 151,109.5C 150.768,108.263 150.268,107.263 149.5,106.5C 147.947,103.746 145.614,102.913 142.5,104C 139.855,106.95 139.855,109.783 142.5,112.5C 140.508,113.83 138.508,115.164 136.5,116.5C 137.501,115.211 137.334,113.878 136,112.5C 134.669,101.164 139.502,96.9975 150.5,100C 152.823,102.17 154.49,104.67 155.5,107.5 Z"/></g>
<g><path style="opacity:1" fill="#c887d3" d="M 333.5,98.5 C 328.946,107.398 325.946,116.731 324.5,126.5C 323.557,119.856 323.391,113.189 324,106.5C 326.525,104.95 328.359,102.783 329.5,100C 330.745,99.2086 332.078,98.7086 333.5,98.5 Z"/></g>
<g><path style="opacity:0.357" fill="#f1e1f4" d="M 399.5,98.5 C 401.027,98.427 402.027,99.0937 402.5,100.5C 400.973,100.573 399.973,99.9063 399.5,98.5 Z"/></g>
<g><path style="opacity:1" fill="#c888d3" d="M 356.5,97.5 C 357.791,97.2627 358.791,97.596 359.5,98.5C 358.5,98.5 357.5,98.5 356.5,98.5C 357.159,101.455 357.492,104.455 357.5,107.5C 355.25,107.181 353.25,107.681 351.5,109C 355.668,112.523 355.168,115.356 350,117.5C 342.987,125.492 340.487,134.825 342.5,145.5C 343.833,145.5 345.167,145.5 346.5,145.5C 349.769,129.351 355.769,114.351 364.5,100.5C 377.726,102.915 381.892,110.581 377,123.5C 374.611,130.61 371.944,137.61 369,144.5C 368.506,146.134 368.34,147.801 368.5,149.5C 367.732,148.737 367.232,147.737 367,146.5C 365.089,151.929 362.256,156.762 358.5,161C 353.628,162.388 348.628,162.888 343.5,162.5C 342.833,162.5 342.167,162.5 341.5,162.5C 342.503,156.679 342.503,151.012 341.5,145.5C 338.192,126.688 343.192,110.688 356.5,97.5 Z"/></g>
<g><path style="opacity:1" fill="#c988d3" d="M 149.5,106.5 C 149.5,107.833 149.5,109.167 149.5,110.5C 147.079,110.878 144.746,111.545 142.5,112.5C 139.855,109.783 139.855,106.95 142.5,104C 145.614,102.913 147.947,103.746 149.5,106.5 Z"/></g>
<g><path style="opacity:1" fill="#feb5b4" d="M 279.5,110.5 C 278.5,110.5 277.5,110.5 276.5,110.5C 277.66,116.139 278.66,121.805 279.5,127.5C 272.967,123.93 266.467,120.263 260,116.5C 258.217,112.702 257.384,108.702 257.5,104.5C 261.773,105.713 265.94,107.38 270,109.5C 270.004,107.632 269.504,105.798 268.5,104C 268.613,102.72 269.28,101.887 270.5,101.5C 273.854,104.188 276.854,107.188 279.5,110.5 Z"/></g>
<g><path style="opacity:1" fill="#e9cfed" d="M 220.5,119.5 C 221.539,121.531 223.205,122.864 225.5,123.5C 226.833,126.833 229.167,129.167 232.5,130.5C 232.75,132.674 233.75,134.341 235.5,135.5C 236.512,136.872 237.512,138.205 238.5,139.5C 238.267,142.954 239.6,143.954 242.5,142.5C 243.509,150.839 245.509,158.839 248.5,166.5C 247.377,168.979 247.377,171.312 248.5,173.5C 247.986,179.822 247.653,186.155 247.5,192.5C 247.5,192.833 247.5,193.167 247.5,193.5C 246.566,194.568 246.232,195.901 246.5,197.5C 244.685,201.974 242.685,206.474 240.5,211C 243.623,211.206 246.623,211.873 249.5,213C 251.254,214.936 252.921,216.77 254.5,218.5C 253.79,220.746 253.29,223.08 253,225.5C 251.981,224.313 250.814,223.313 249.5,222.5C 249.291,217.113 246.624,214.946 241.5,216C 237.641,219.27 237.641,222.603 241.5,226C 241.011,227.138 240.678,228.305 240.5,229.5C 238.203,227.706 236.037,225.706 234,223.5C 230.664,228.002 226.831,232.002 222.5,235.5C 221.504,235.586 220.671,235.252 220,234.5C 220.212,229.039 217.712,226.872 212.5,228C 209.694,230.937 210.027,233.437 213.5,235.5C 213.625,246.479 210.625,247.812 204.5,239.5C 206.721,229.388 202.721,225.055 192.5,226.5C 193.362,221.387 194.695,216.387 196.5,211.5C 199.5,210.667 202.5,209.833 205.5,209C 208.106,208.208 210.106,206.708 211.5,204.5C 220.899,208.645 228.065,206.311 233,197.5C 234.639,184.808 229.139,178.975 216.5,180C 210.732,182.263 207.399,186.43 206.5,192.5C 204.407,193.045 202.407,193.878 200.5,195C 197.875,197.772 195.375,200.606 193,203.5C 187.499,201.501 182.999,198.168 179.5,193.5C 182.188,188.814 183.021,183.814 182,178.5C 178.603,175.019 174.936,174.686 171,177.5C 168.756,183.46 169.59,188.96 173.5,194C 169.728,198.717 165.061,202.217 159.5,204.5C 156.682,199.013 152.348,195.346 146.5,193.5C 142.252,194.147 140.252,196.647 140.5,201C 140.565,205.735 142.898,208.735 147.5,210C 151.009,209.979 154.175,210.812 157,212.5C 161.568,227.584 164.735,242.917 166.5,258.5C 166.751,260.17 167.418,261.67 168.5,263C 167.551,263.617 166.718,263.451 166,262.5C 164,257.811 161.833,258.145 159.5,263.5C 158.503,263.53 157.836,263.03 157.5,262C 156.599,259.129 155.599,256.296 154.5,253.5C 157.229,248.214 160.063,248.214 163,253.5C 163.265,251.837 162.765,250.337 161.5,249C 163.486,243.317 161.486,240.984 155.5,242C 154.196,242.804 153.529,243.971 153.5,245.5C 154.331,247.473 154.498,249.473 154,251.5C 152.484,246.479 150.984,241.479 149.5,236.5C 155.156,230.938 154.822,225.771 148.5,221C 138.99,219.011 134.657,222.844 135.5,232.5C 134.713,234.104 133.38,234.771 131.5,234.5C 132.157,230.142 132.657,225.809 133,221.5C 128.313,218.296 125.48,219.63 124.5,225.5C 120.774,227.394 121.107,227.727 125.5,226.5C 130.172,228.666 131.506,231.999 129.5,236.5C 127.006,232.662 123.673,229.995 119.5,228.5C 116.715,229.084 115.048,228.084 114.5,225.5C 112.79,227.46 112.457,229.627 113.5,232C 114.5,232.667 115.5,232.667 116.5,232C 117.078,230.583 118.078,229.75 119.5,229.5C 119.178,233.976 116.844,235.476 112.5,234C 112,233.5 111.5,233 111,232.5C 110.347,229.435 110.847,226.601 112.5,224C 112.227,222.467 111.894,220.967 111.5,219.5C 110.659,217.621 110.325,215.621 110.5,213.5C 111.459,210.043 111.125,206.543 109.5,203C 114.188,197.915 113.188,194.748 106.5,193.5C 106.489,195.547 106.156,197.547 105.5,199.5C 106.195,200.476 106.862,201.476 107.5,202.5C 102.688,207.467 98.3543,212.8 94.5,218.5C 93.8333,217.833 93.1667,217.167 92.5,216.5C 103.645,206.358 107.145,194.024 103,179.5C 101.496,184.852 99.996,190.185 98.5,195.5C 98.1667,195.5 97.8333,195.5 97.5,195.5C 96.7777,196.551 95.7777,197.218 94.5,197.5C 93.8333,196.833 93.1667,196.167 92.5,195.5C 91.134,192.768 89.8007,190.101 88.5,187.5C 88.5569,186.391 88.8902,185.391 89.5,184.5C 91.4967,187.16 92.9967,190.16 94,193.5C 94.8928,194.711 95.7261,194.711 96.5,193.5C 99.9914,183.363 102.658,173.029 104.5,162.5C 105.494,161.001 105.494,159.334 104.5,157.5C 105.117,157.611 105.617,157.944 106,158.5C 108.275,151.842 110.442,145.175 112.5,138.5C 113.268,137.737 113.768,136.737 114,135.5C 115.141,139.006 116.307,138.673 117.5,134.5C 117.5,134.167 117.5,133.833 117.5,133.5C 118.833,132.833 119.833,131.833 120.5,130.5C 124.94,124.722 130.273,120.055 136.5,116.5C 138.508,115.164 140.508,113.83 142.5,112.5C 144.746,111.545 147.079,110.878 149.5,110.5C 149.5,109.167 149.5,107.833 149.5,106.5C 150.268,107.263 150.768,108.263 151,109.5C 152.622,108.901 154.122,108.234 155.5,107.5C 179.154,100.965 200.821,104.965 220.5,119.5 Z"/></g>
<g><path style="opacity:1" fill="#eae9eb" d="M 351.5,91.5 C 353.89,92.8908 355.557,94.8908 356.5,97.5C 343.192,110.688 338.192,126.688 341.5,145.5C 339.833,145.5 338.167,145.5 336.5,145.5C 336.333,134.495 336.5,123.495 337,112.5C 337.748,110.091 338.915,107.925 340.5,106C 340.355,105.228 340.022,104.561 339.5,104C 337.866,103.506 336.199,103.34 334.5,103.5C 331.53,115.683 329.197,128.017 327.5,140.5C 327.59,143.336 328.257,146.003 329.5,148.5C 328.081,149.451 326.415,149.784 324.5,149.5C 324.167,149.5 323.833,149.5 323.5,149.5C 323.46,141.813 323.793,134.146 324.5,126.5C 325.946,116.731 328.946,107.398 333.5,98.5C 334.5,98.1667 335.167,97.5 335.5,96.5C 335.611,95.8826 335.944,95.3826 336.5,95C 334.292,94.8091 332.292,94.3091 330.5,93.5C 332.833,93.5 335.167,93.5 337.5,93.5C 337.183,96.5719 337.516,99.5719 338.5,102.5C 342.167,100.333 345.833,98.1667 349.5,96C 351.037,94.8904 351.703,93.3904 351.5,91.5 Z"/></g>
<g><path style="opacity:1" fill="#50636c" d="M 279.5,110.5 C 286.996,113.745 293.996,117.745 300.5,122.5C 301.167,123.833 302.167,124.833 303.5,125.5C 303.5,125.833 303.5,126.167 303.5,126.5C 303.263,127.791 303.596,128.791 304.5,129.5C 305.818,134.773 306.818,140.107 307.5,145.5C 306.325,145.281 305.325,145.614 304.5,146.5C 305.748,148.459 307.415,149.959 309.5,151C 305.282,150.404 301.282,148.904 297.5,146.5C 296.754,150.508 297.754,154.175 300.5,157.5C 300.043,158.298 299.376,158.631 298.5,158.5C 296.632,157.737 294.965,156.737 293.5,155.5C 293.027,154.094 292.027,153.427 290.5,153.5C 288.321,153.16 286.488,152.16 285,150.5C 283.004,142.852 281.171,135.185 279.5,127.5C 278.66,121.805 277.66,116.139 276.5,110.5C 277.5,110.5 278.5,110.5 279.5,110.5 Z"/></g>
<g><path style="opacity:1" fill="#495d67" d="M 336.5,145.5 C 334.368,145.554 333.035,146.554 332.5,148.5C 331.5,148.5 330.5,148.5 329.5,148.5C 328.257,146.003 327.59,143.336 327.5,140.5C 329.197,128.017 331.53,115.683 334.5,103.5C 336.199,103.34 337.866,103.506 339.5,104C 340.022,104.561 340.355,105.228 340.5,106C 338.915,107.925 337.748,110.091 337,112.5C 336.5,123.495 336.333,134.495 336.5,145.5 Z"/></g>
<g><path style="opacity:0.438" fill="#f8eff9" d="M 235.5,135.5 C 233.75,134.341 232.75,132.674 232.5,130.5C 234.666,126.061 233.5,123.061 229,121.5C 227.541,121.808 226.374,122.475 225.5,123.5C 223.205,122.864 221.539,121.531 220.5,119.5C 221.117,119.611 221.617,119.944 222,120.5C 230.671,114.844 236.171,117.011 238.5,127C 238.182,130.123 237.182,132.956 235.5,135.5 Z"/></g>
<g><path style="opacity:1" fill="#eedcf2" d="M 190.5,120.5 C 212.164,120.331 222.997,130.998 223,152.5C 215.948,173.443 202.115,179.943 181.5,172C 167.536,161.28 164.702,148.113 173,132.5C 177.467,126.362 183.3,122.362 190.5,120.5 Z"/></g>
<g><path style="opacity:1" fill="#ca8cd5" d="M 232.5,130.5 C 229.167,129.167 226.833,126.833 225.5,123.5C 226.374,122.475 227.541,121.808 229,121.5C 233.5,123.061 234.666,126.061 232.5,130.5 Z"/></g>
<g><path style="opacity:0.369" fill="#e9eced" d="M 300.5,122.5 C 302.5,122.5 303.5,123.5 303.5,125.5C 302.167,124.833 301.167,123.833 300.5,122.5 Z"/></g>
<g><path style="opacity:0.243" fill="#ebe7ee" d="M 303.5,126.5 C 304.167,126.833 304.833,127.167 305.5,127.5C 305.672,128.492 305.338,129.158 304.5,129.5C 303.596,128.791 303.263,127.791 303.5,126.5 Z"/></g>
<g><path style="opacity:0.351" fill="#f8f1f9" d="M 120.5,130.5 C 119.833,131.833 118.833,132.833 117.5,133.5C 117.5,132.5 117.5,131.5 117.5,130.5C 116.167,130.5 114.833,130.5 113.5,130.5C 113.5,131.833 113.5,133.167 113.5,134.5C 114.833,134.5 116.167,134.5 117.5,134.5C 116.307,138.673 115.141,139.006 114,135.5C 113.768,136.737 113.268,137.737 112.5,138.5C 110.712,135.772 110.212,132.772 111,129.5C 114.624,126.636 117.791,126.969 120.5,130.5 Z"/></g>
<g><path style="opacity:1" fill="#b17fba" d="M 117.5,133.5 C 117.5,133.833 117.5,134.167 117.5,134.5C 116.167,134.5 114.833,134.5 113.5,134.5C 113.5,133.167 113.5,131.833 113.5,130.5C 114.833,130.5 116.167,130.5 117.5,130.5C 117.5,131.5 117.5,132.5 117.5,133.5 Z"/></g>
<g><path style="opacity:0.439" fill="#f7eff9" d="M 103.5,156.5 C 101.044,153.008 99.8773,149.008 100,144.5C 97.3333,141.833 94.6667,141.833 92,144.5C 91.1093,147.498 91.6093,150.164 93.5,152.5C 93.0733,155.01 92.4067,157.343 91.5,159.5C 91.082,156.561 89.582,154.228 87,152.5C 85.4599,139.863 90.6266,135.696 102.5,140C 103.701,140.903 104.535,142.069 105,143.5C 105.729,147.997 105.229,152.33 103.5,156.5 Z"/></g>
<g><path style="opacity:1" fill="#c199c7" d="M 242.5,142.5 C 239.6,143.954 238.267,142.954 238.5,139.5C 239.601,138.402 240.934,138.235 242.5,139C 243.791,140.292 243.791,141.458 242.5,142.5 Z"/></g>
<g><path style="opacity:0.439" fill="#f8f0f9" d="M 258.5,161.5 C 257.532,159.393 257.198,157.059 257.5,154.5C 261.928,150.205 261.261,146.872 255.5,144.5C 250.318,146.25 249.318,149.25 252.5,153.5C 252.5,154.167 252.5,154.833 252.5,155.5C 252.011,156.995 251.345,158.329 250.5,159.5C 243.383,152.241 244.05,145.741 252.5,140C 260.086,138.788 264.419,141.954 265.5,149.5C 265.227,153.729 263.227,156.729 259.5,158.5C 258.614,159.325 258.281,160.325 258.5,161.5 Z"/></g>
<g><path style="opacity:1" fill="#c78cd0" d="M 103.5,156.5 C 104.167,156.5 104.5,156.833 104.5,157.5C 105.494,159.334 105.494,161.001 104.5,162.5C 102.684,160.882 101.351,158.882 100.5,156.5C 100.033,153.703 98.3667,152.369 95.5,152.5C 94.8333,152.5 94.1667,152.5 93.5,152.5C 91.6093,150.164 91.1093,147.498 92,144.5C 94.6667,141.833 97.3333,141.833 100,144.5C 99.8773,149.008 101.044,153.008 103.5,156.5 Z"/></g>
<g><path style="opacity:1" fill="#c98ad4" d="M 257.5,154.5 C 255.708,154.634 254.042,154.301 252.5,153.5C 249.318,149.25 250.318,146.25 255.5,144.5C 261.261,146.872 261.928,150.205 257.5,154.5 Z"/></g>
<g><path style="opacity:1" fill="#faa9a9" d="M 307.5,145.5 C 309.993,146.774 312.659,147.44 315.5,147.5C 315.833,146.5 316.5,145.833 317.5,145.5C 316.916,148.285 317.916,149.952 320.5,150.5C 320.778,153.29 320.111,155.79 318.5,158C 318.978,159.303 319.645,160.469 320.5,161.5C 319.209,161.263 318.209,161.596 317.5,162.5C 315.114,162.259 313.114,162.925 311.5,164.5C 309.36,161.659 306.36,160.326 302.5,160.5C 300.847,160.34 299.514,159.674 298.5,158.5C 299.376,158.631 300.043,158.298 300.5,157.5C 297.754,154.175 296.754,150.508 297.5,146.5C 301.282,148.904 305.282,150.404 309.5,151C 307.415,149.959 305.748,148.459 304.5,146.5C 305.325,145.614 306.325,145.281 307.5,145.5 Z"/></g>
<g><path style="opacity:1" fill="#d5a4dc" d="M 336.5,145.5 C 338.167,145.5 339.833,145.5 341.5,145.5C 342.503,151.012 342.503,156.679 341.5,162.5C 340.688,163.993 339.355,164.66 337.5,164.5C 335.058,164.714 333.392,163.714 332.5,161.5C 333.787,160.129 334.453,158.295 334.5,156C 334.7,153.134 334.033,150.634 332.5,148.5C 333.035,146.554 334.368,145.554 336.5,145.5 Z"/></g>
<g><path style="opacity:1" fill="#bc6ec9" d="M 368.5,149.5 C 369.546,158.821 370.879,168.154 372.5,177.5C 371.108,180.703 370.441,184.036 370.5,187.5C 369.539,185.735 369.205,183.735 369.5,181.5C 362.588,183.159 355.588,183.659 348.5,183C 347.151,182.228 346.318,181.061 346,179.5C 345.39,176.173 344.89,172.839 344.5,169.5C 344.326,167.139 343.993,164.806 343.5,162.5C 348.628,162.888 353.628,162.388 358.5,161C 362.256,156.762 365.089,151.929 367,146.5C 367.232,147.737 367.732,148.737 368.5,149.5 Z"/></g>
<g><path style="opacity:1" fill="#f9a6a6" d="M 329.5,148.5 C 330.5,148.5 331.5,148.5 332.5,148.5C 334.033,150.634 334.7,153.134 334.5,156C 334.453,158.295 333.787,160.129 332.5,161.5C 330.167,161.5 327.833,161.5 325.5,161.5C 328.288,159.007 328.121,156.674 325,154.5C 324.506,152.866 324.34,151.199 324.5,149.5C 326.415,149.784 328.081,149.451 329.5,148.5 Z"/></g>
<g><path style="opacity:0.44" fill="#f3e7f5" d="M 95.5,152.5 C 98.3667,152.369 100.033,153.703 100.5,156.5C 98.5,157.167 96.5,157.833 94.5,158.5C 94.5172,156.435 94.8505,154.435 95.5,152.5 Z"/></g>
<g><path style="opacity:0.451" fill="#cbd2d4" d="M 290.5,153.5 C 292.027,153.427 293.027,154.094 293.5,155.5C 291.973,155.573 290.973,154.906 290.5,153.5 Z"/></g>
<g><path style="opacity:1" fill="#434e57" d="M 323.5,149.5 C 323.833,149.5 324.167,149.5 324.5,149.5C 324.34,151.199 324.506,152.866 325,154.5C 328.121,156.674 328.288,159.007 325.5,161.5C 324.833,161.5 324.5,161.833 324.5,162.5C 322.901,162.768 321.568,162.434 320.5,161.5C 319.645,160.469 318.978,159.303 318.5,158C 320.111,155.79 320.778,153.29 320.5,150.5C 321.609,150.443 322.609,150.11 323.5,149.5 Z"/></g>
<g><path style="opacity:0.999" fill="#cda4d3" d="M 93.5,152.5 C 94.1667,152.5 94.8333,152.5 95.5,152.5C 94.8505,154.435 94.5172,156.435 94.5,158.5C 93.0904,167.215 91.4237,175.881 89.5,184.5C 88.8902,185.391 88.5569,186.391 88.5,187.5C 87.8362,191.154 87.1695,194.82 86.5,198.5C 88.3027,204.575 90.3027,210.575 92.5,216.5C 93.1667,217.167 93.8333,217.833 94.5,218.5C 95.1667,221.167 95.8333,223.833 96.5,226.5C 99.1511,233.141 101.818,239.808 104.5,246.5C 107.6,249.044 110.6,249.044 113.5,246.5C 113.842,247.338 114.508,247.672 115.5,247.5C 115.5,248.167 115.167,248.5 114.5,248.5C 113.518,249.141 112.518,249.807 111.5,250.5C 111.291,255.887 108.624,258.054 103.5,257C 99.9364,254.399 99.6031,251.399 102.5,248C 102.101,246.272 101.434,244.772 100.5,243.5C 98.4027,237.651 96.0694,231.985 93.5,226.5C 92.8902,225.609 92.5569,224.609 92.5,223.5C 92.2041,221.597 91.5375,219.93 90.5,218.5C 88.5,214.167 86.5,209.833 84.5,205.5C 84.6602,203.801 84.4935,202.134 84,200.5C 83.3024,203.004 82.4691,205.337 81.5,207.5C 83.1946,201.294 82.1946,195.628 78.5,190.5C 78.6716,189.508 78.3382,188.842 77.5,188.5C 76.1666,182.736 76.6666,182.402 79,187.5C 79.3988,187.272 79.5654,186.938 79.5,186.5C 80.1667,187.167 80.8333,187.833 81.5,188.5C 82.3201,190.14 83.1534,191.807 84,193.5C 85.0278,189.527 85.8611,185.527 86.5,181.5C 84.8815,177.931 83.5481,174.264 82.5,170.5C 82.5,169.833 82.8333,169.5 83.5,169.5C 83.2627,170.791 83.596,171.791 84.5,172.5C 85.3201,174.14 86.1534,175.807 87,177.5C 88.814,171.577 90.314,165.577 91.5,159.5C 92.4067,157.343 93.0733,155.01 93.5,152.5 Z"/></g>
<g><path style="opacity:1" fill="#c098c7" d="M 270.5,166.5 C 269.833,166.167 269.167,165.833 268.5,165.5C 268.5,164.167 268.5,162.833 268.5,161.5C 272.5,160.833 274.167,162.5 273.5,166.5C 272.5,166.5 271.5,166.5 270.5,166.5 Z"/></g>
<g><path style="opacity:0.999" fill="#929197" d="M 302.5,160.5 C 306.36,160.326 309.36,161.659 311.5,164.5C 308.115,164.654 305.115,163.321 302.5,160.5 Z"/></g>
<g><path style="opacity:1" fill="#c588ce" d="M 320.5,161.5 C 321.568,162.434 322.901,162.768 324.5,162.5C 324.5,163.5 324.5,164.5 324.5,165.5C 325.492,168.779 325.659,172.112 325,175.5C 323.667,174.167 322.333,172.833 321,171.5C 320.5,178.826 320.334,186.159 320.5,193.5C 319.671,186.011 319.171,178.344 319,170.5C 316.515,168.334 316.015,165.668 317.5,162.5C 318.209,161.596 319.209,161.263 320.5,161.5 Z"/></g>
<g><path style="opacity:1" fill="#e4e1e3" d="M 325.5,161.5 C 327.833,161.5 330.167,161.5 332.5,161.5C 333.392,163.714 335.058,164.714 337.5,164.5C 339.355,164.66 340.688,163.993 341.5,162.5C 342.167,162.5 342.833,162.5 343.5,162.5C 343.993,164.806 344.326,167.139 344.5,169.5C 337.439,170.033 330.773,168.699 324.5,165.5C 324.5,164.5 324.5,163.5 324.5,162.5C 324.5,161.833 324.833,161.5 325.5,161.5 Z"/></g>
<g><path style="opacity:0.998" fill="#c6a1cc" d="M 252.5,155.5 C 253.222,155.918 253.722,156.584 254,157.5C 254.333,156.833 254.667,156.167 255,155.5C 255.49,156.793 255.657,158.127 255.5,159.5C 254.503,159.47 253.836,159.97 253.5,161C 251.904,165.306 250.238,169.473 248.5,173.5C 247.377,171.312 247.377,168.979 248.5,166.5C 248.767,164.035 249.434,161.701 250.5,159.5C 251.345,158.329 252.011,156.995 252.5,155.5 Z"/></g>
<g><path style="opacity:1" fill="#273339" d="M 324.5,165.5 C 330.773,168.699 337.439,170.033 344.5,169.5C 344.89,172.839 345.39,176.173 346,179.5C 346.318,181.061 347.151,182.228 348.5,183C 355.588,183.659 362.588,183.159 369.5,181.5C 369.205,183.735 369.539,185.735 370.5,187.5C 370.5,189.167 370.5,190.833 370.5,192.5C 370.201,225.925 371.201,259.258 373.5,292.5C 373.672,293.492 373.338,294.158 372.5,294.5C 368.312,296.622 363.979,296.955 359.5,295.5C 358.069,293.811 357.236,291.811 357,289.5C 351.813,259.945 347.479,230.279 344,200.5C 343.324,210.491 342.824,220.491 342.5,230.5C 344.516,251.133 343.516,271.466 339.5,291.5C 335.587,292.596 331.587,292.762 327.5,292C 326.364,290.855 325.364,289.688 324.5,288.5C 324.815,284.629 324.482,280.962 323.5,277.5C 322.189,251.513 321.189,225.513 320.5,199.5C 320.5,197.5 320.5,195.5 320.5,193.5C 320.334,186.159 320.5,178.826 321,171.5C 322.333,172.833 323.667,174.167 325,175.5C 325.659,172.112 325.492,168.779 324.5,165.5 Z"/></g>
<g><path style="opacity:0.439" fill="#f7eff9" d="M 84.5,172.5 C 83.596,171.791 83.2627,170.791 83.5,169.5C 83.5,168.5 83.5,167.5 83.5,166.5C 82.1667,166.5 80.8333,166.5 79.5,166.5C 79.0882,168.973 80.0882,170.306 82.5,170.5C 83.5481,174.264 84.8815,177.931 86.5,181.5C 85.8826,181.389 85.3826,181.056 85,180.5C 83.5549,183.09 82.3882,185.757 81.5,188.5C 80.8333,187.833 80.1667,187.167 79.5,186.5C 79.5792,185.07 79.2458,183.736 78.5,182.5C 82.1592,175.66 80.1592,172.827 72.5,174C 69.6452,177.222 69.9785,180.056 73.5,182.5C 74.4519,184.045 74.7852,185.712 74.5,187.5C 66.4168,185.459 63.9168,180.459 67,172.5C 69.5291,169.652 72.6958,167.985 76.5,167.5C 78.7752,163.035 81.9419,162.368 86,165.5C 86.8332,168.171 86.3332,170.504 84.5,172.5 Z"/></g>
<g><path style="opacity:0.999" fill="#ac78b5" d="M 83.5,169.5 C 82.8333,169.5 82.5,169.833 82.5,170.5C 80.0882,170.306 79.0882,168.973 79.5,166.5C 80.8333,166.5 82.1667,166.5 83.5,166.5C 83.5,167.5 83.5,168.5 83.5,169.5 Z"/></g>
<g><path style="opacity:1" fill="#fdfbfd" d="M 206.5,192.5 C 212.302,194.684 213.969,198.684 211.5,204.5C 210.106,206.708 208.106,208.208 205.5,209C 202.5,209.833 199.5,210.667 196.5,211.5C 194.695,216.387 193.362,221.387 192.5,226.5C 192.5,226.833 192.5,227.167 192.5,227.5C 190.983,227.511 189.816,228.177 189,229.5C 187.101,233.197 187.101,236.864 189,240.5C 189.499,246.157 189.666,251.824 189.5,257.5C 189.5,258.167 189.167,258.5 188.5,258.5C 186.748,256.754 185.415,254.754 184.5,252.5C 184.669,237.832 187.336,223.499 192.5,209.5C 186.617,206.614 181.284,202.948 176.5,198.5C 171.623,202.55 166.623,206.383 161.5,210C 167.908,226.452 170.242,243.286 168.5,260.5C 168.167,259.5 167.5,258.833 166.5,258.5C 164.735,242.917 161.568,227.584 157,212.5C 154.175,210.812 151.009,209.979 147.5,210C 142.898,208.735 140.565,205.735 140.5,201C 140.252,196.647 142.252,194.147 146.5,193.5C 152.348,195.346 156.682,199.013 159.5,204.5C 165.061,202.217 169.728,198.717 173.5,194C 169.59,188.96 168.756,183.46 171,177.5C 174.936,174.686 178.603,175.019 182,178.5C 183.021,183.814 182.188,188.814 179.5,193.5C 182.999,198.168 187.499,201.501 193,203.5C 195.375,200.606 197.875,197.772 200.5,195C 202.407,193.878 204.407,193.045 206.5,192.5 Z"/></g>
<g><path style="opacity:1" fill="#eedcf2" d="M 211.5,204.5 C 213.969,198.684 212.302,194.684 206.5,192.5C 207.399,186.43 210.732,182.263 216.5,180C 229.139,178.975 234.639,184.808 233,197.5C 228.065,206.311 220.899,208.645 211.5,204.5 Z"/></g>
<g><path style="opacity:0.584" fill="#ebd3ef" d="M 268.5,165.5 C 269.167,165.833 269.833,166.167 270.5,166.5C 267.404,172.367 264.071,178.033 260.5,183.5C 259.781,181.236 259.448,178.903 259.5,176.5C 260.222,176.918 260.722,177.584 261,178.5C 263.527,174.104 266.027,169.771 268.5,165.5 Z"/></g>
<g><path style="opacity:0.44" fill="#f3e6f5" d="M 291.5,191.5 C 292.81,198.918 289.81,202.918 282.5,203.5C 282.5,202.167 282.5,200.833 282.5,199.5C 286.475,198.903 287.975,196.57 287,192.5C 281.333,187.833 278.333,189.167 278,196.5C 278.827,197.662 279.66,198.829 280.5,200C 280.011,201.138 279.678,202.305 279.5,203.5C 276.865,202.527 274.865,200.86 273.5,198.5C 274.5,194.499 275.5,190.499 276.5,186.5C 277.339,185.359 278.006,184.026 278.5,182.5C 283.15,181.734 284.65,179.068 283,174.5C 280.333,171.833 277.667,171.833 275,174.5C 274.222,177.275 274.722,179.775 276.5,182C 276.011,183.138 275.678,184.305 275.5,185.5C 275.5,186.167 275.167,186.5 274.5,186.5C 267.88,180.331 267.88,174.165 274.5,168C 285.667,165.833 290.167,170.333 288,181.5C 287.535,182.931 286.701,184.097 285.5,185C 289.089,185.754 291.089,187.921 291.5,191.5 Z"/></g>
<g><path style="opacity:1" fill="#c686d1" d="M 276.5,186.5 C 276.5,185.833 276.167,185.5 275.5,185.5C 275.678,184.305 276.011,183.138 276.5,182C 274.722,179.775 274.222,177.275 275,174.5C 277.667,171.833 280.333,171.833 283,174.5C 284.65,179.068 283.15,181.734 278.5,182.5C 278.006,184.026 277.339,185.359 276.5,186.5 Z"/></g>
<g><path style="opacity:1" fill="#c390cb" d="M 79.5,186.5 C 79.5654,186.938 79.3988,187.272 79,187.5C 76.6666,182.402 76.1666,182.736 77.5,188.5C 77.3284,189.492 77.6618,190.158 78.5,190.5C 78.5,194.833 78.5,199.167 78.5,203.5C 78.1632,207.308 78.6632,210.974 80,214.5C 80.4828,213.552 80.6495,212.552 80.5,211.5C 80.2322,209.901 80.5655,208.568 81.5,207.5C 82.4691,205.337 83.3024,203.004 84,200.5C 84.4935,202.134 84.6602,203.801 84.5,205.5C 84.3003,208.63 83.6336,211.63 82.5,214.5C 81.8529,215.274 81.5195,216.274 81.5,217.5C 82.9228,220.275 83.5895,223.275 83.5,226.5C 84.8333,226.5 86.1667,226.5 87.5,226.5C 87.7394,228.467 87.4061,230.301 86.5,232C 83.5096,232.847 82.1762,231.68 82.5,228.5C 80.5,228.5 78.5,228.5 76.5,228.5C 72.3557,225.382 72.5224,222.382 77,219.5C 77.8099,215.642 77.6433,211.976 76.5,208.5C 75.732,201.517 75.0653,194.517 74.5,187.5C 74.7852,185.712 74.4519,184.045 73.5,182.5C 69.9785,180.056 69.6452,177.222 72.5,174C 80.1592,172.827 82.1592,175.66 78.5,182.5C 79.2458,183.736 79.5792,185.07 79.5,186.5 Z"/></g>
<g><path style="opacity:0.878" fill="#e2bfe7" d="M 257.5,185.5 C 258.234,186.708 258.567,188.041 258.5,189.5C 257.833,189.833 257.167,190.167 256.5,190.5C 254.692,193.436 252.859,196.436 251,199.5C 251.22,197.037 252.054,194.704 253.5,192.5C 254.584,189.996 255.917,187.663 257.5,185.5 Z"/></g>
<g><path style="opacity:1" fill="#f3f1f4" d="M 256.5,190.5 C 256.5,191.833 257.167,192.5 258.5,192.5C 258.5,194.5 258.5,196.5 258.5,198.5C 256.61,198.297 255.11,198.963 254,200.5C 253.754,203.934 254.254,207.267 255.5,210.5C 254.908,213.127 254.575,215.794 254.5,218.5C 252.921,216.77 251.254,214.936 249.5,213C 246.623,211.873 243.623,211.206 240.5,211C 242.685,206.474 244.685,201.974 246.5,197.5C 246.192,199.924 246.526,202.257 247.5,204.5C 248.5,204.167 249.167,203.5 249.5,202.5C 247.74,199.788 247.073,196.788 247.5,193.5C 247.5,193.167 247.5,192.833 247.5,192.5C 249.5,192.5 251.5,192.5 253.5,192.5C 252.054,194.704 251.22,197.037 251,199.5C 252.859,196.436 254.692,193.436 256.5,190.5 Z"/></g>
<g><path style="opacity:1" fill="#d2a6da" d="M 110.5,213.5 C 109.385,209.954 108.385,206.288 107.5,202.5C 106.862,201.476 106.195,200.476 105.5,199.5C 106.156,197.547 106.489,195.547 106.5,193.5C 113.188,194.748 114.188,197.915 109.5,203C 111.125,206.543 111.459,210.043 110.5,213.5 Z"/></g>
<g><path style="opacity:0.345" fill="#fbf7fc" d="M 92.5,195.5 C 93.1667,196.167 93.8333,196.833 94.5,197.5C 92.7071,200.987 93.7071,202.487 97.5,202C 98.3331,199.919 98.3331,197.752 97.5,195.5C 97.8333,195.5 98.1667,195.5 98.5,195.5C 99.1174,195.611 99.6174,195.944 100,196.5C 101.347,203.488 98.6802,205.822 92,203.5C 91.2782,200.739 91.4448,198.073 92.5,195.5 Z"/></g>
<g><path style="opacity:1" fill="#f4f4f4" d="M 291.5,191.5 C 292.434,192.568 292.768,193.901 292.5,195.5C 301.906,196.367 311.239,197.701 320.5,199.5C 321.189,225.513 322.189,251.513 323.5,277.5C 323.5,278.833 323.5,280.167 323.5,281.5C 307.857,282.208 294.691,288.208 284,299.5C 278.922,308.571 279.589,317.238 286,325.5C 302.439,338.783 321.272,343.95 342.5,341C 358.553,340.003 371.719,333.503 382,321.5C 387.344,309.37 384.511,299.704 373.5,292.5C 371.201,259.258 370.201,225.925 370.5,192.5C 371.182,199.568 371.849,206.734 372.5,214C 390.691,220.76 407.691,229.594 423.5,240.5C 421.05,245.53 420.05,250.864 420.5,256.5C 412.366,249.42 403.033,245.754 392.5,245.5C 396.291,250.914 399.957,256.414 403.5,262C 406.167,262.667 408.833,263.333 411.5,264C 409.423,264.192 407.423,264.692 405.5,265.5C 406.467,267.63 407.634,269.63 409,271.5C 412.297,273.491 415.797,274.991 419.5,276C 417.19,276.497 414.857,276.663 412.5,276.5C 412.94,279.38 413.94,282.046 415.5,284.5C 413.446,289.022 414.779,292.189 419.5,294C 425.426,295.11 431.092,294.444 436.5,292C 438.278,289.865 438.945,287.365 438.5,284.5C 439.237,282.695 440.237,281.029 441.5,279.5C 439.234,278.686 436.9,278.186 434.5,278C 440.886,278.182 445.553,275.515 448.5,270C 446.122,269.489 443.788,268.822 441.5,268C 444.833,267.667 448.167,267.333 451.5,267C 452.066,266.005 452.733,265.172 453.5,264.5C 487.198,312.887 482.198,357.053 438.5,397C 432.98,401.03 427.647,405.197 422.5,409.5C 347.833,409.5 273.167,409.5 198.5,409.5C 215.068,406.584 230.401,400.418 244.5,391C 260.686,377.785 263.52,362.285 253,344.5C 243.206,333.05 231.04,325.217 216.5,321C 206.198,318.284 195.864,316.451 185.5,315.5C 189.691,312.971 192.357,309.305 193.5,304.5C 198.078,302.966 201.244,299.966 203,295.5C 203.994,290.882 204.494,286.215 204.5,281.5C 209.494,281.671 211.328,279.338 210,274.5C 208.842,274.002 208.009,273.169 207.5,272C 209.232,265.572 210.566,259.072 211.5,252.5C 212.167,252.167 212.833,251.833 213.5,251.5C 215.833,253.5 218.167,255.5 220.5,257.5C 222.36,258.939 224.027,260.605 225.5,262.5C 222.754,272.92 226.754,277.754 237.5,277C 242.155,274.103 243.655,269.937 242,264.5C 240.612,262.298 239.112,260.298 237.5,258.5C 237.231,256.571 237.731,254.905 239,253.5C 240.129,255.141 241.629,256.141 243.5,256.5C 242.804,263.997 245.637,265.997 252,262.5C 252.667,261.167 252.667,259.833 252,258.5C 250.694,257.088 249.86,255.421 249.5,253.5C 250.287,248.107 251.287,242.773 252.5,237.5C 252.933,234.834 253.433,232.168 254,229.5C 256.037,231.706 258.203,233.706 260.5,235.5C 261.833,237.167 263.167,238.833 264.5,240.5C 262.191,251.358 266.525,255.858 277.5,254C 284.134,248.412 284.134,242.912 277.5,237.5C 276.614,236.675 276.281,235.675 276.5,234.5C 276.833,231.833 277.167,229.167 277.5,226.5C 277.5,225.833 277.833,225.5 278.5,225.5C 279.834,228.802 281.168,232.135 282.5,235.5C 286.197,236.837 288.53,235.503 289.5,231.5C 289.471,229.971 288.804,228.804 287.5,228C 283.92,228.087 280.92,226.92 278.5,224.5C 279.326,217.374 280.659,210.374 282.5,203.5C 289.81,202.918 292.81,198.918 291.5,191.5 Z"/></g>
<g><path style="opacity:1" fill="#ba8bc1" d="M 97.5,195.5 C 98.3331,197.752 98.3331,199.919 97.5,202C 93.7071,202.487 92.7071,200.987 94.5,197.5C 95.7777,197.218 96.7777,196.551 97.5,195.5 Z"/></g>
<g><path style="opacity:1" fill="#ecd5ef" d="M 205.5,197.5 C 208.076,197.722 208.91,199.055 208,201.5C 205.806,204.695 202.973,205.695 199.5,204.5C 201.291,201.868 203.291,199.535 205.5,197.5 Z"/></g>
<g><path style="opacity:1" fill="#ebd3ee" d="M 145.5,198.5 C 149.191,199.353 151.858,201.52 153.5,205C 149.366,206.098 146.366,204.765 144.5,201C 144.743,200.098 145.077,199.265 145.5,198.5 Z"/></g>
<g><path style="opacity:1" fill="#e9cfed" d="M 184.5,252.5 C 185.493,247.325 183.493,245.491 178.5,247C 176.327,248.865 175.993,251.031 177.5,253.5C 175.709,254.17 174.042,254.837 172.5,255.5C 170.803,257.305 169.97,259.639 170,262.5C 169.283,261.956 168.783,261.289 168.5,260.5C 170.242,243.286 167.908,226.452 161.5,210C 166.623,206.383 171.623,202.55 176.5,198.5C 181.284,202.948 186.617,206.614 192.5,209.5C 187.336,223.499 184.669,237.832 184.5,252.5 Z"/></g>
<g><path style="opacity:1" fill="#dbbbe1" d="M 258.5,190.5 C 259.643,193.976 259.81,197.642 259,201.5C 256.875,200.149 255.708,200.815 255.5,203.5C 255.801,205.422 256.467,207.088 257.5,208.5C 257.672,209.492 257.338,210.158 256.5,210.5C 256.167,210.5 255.833,210.5 255.5,210.5C 254.254,207.267 253.754,203.934 254,200.5C 255.11,198.963 256.61,198.297 258.5,198.5C 258.5,196.5 258.5,194.5 258.5,192.5C 258.5,191.833 258.5,191.167 258.5,190.5 Z"/></g>
<g><path style="opacity:1" fill="#f3f1f3" d="M 273.5,198.5 C 274.865,200.86 276.865,202.527 279.5,203.5C 278.4,209.499 277.234,215.499 276,221.5C 274.961,220.29 273.794,219.29 272.5,218.5C 271.797,216.284 270.464,214.451 268.5,213C 270.091,208.136 271.757,203.302 273.5,198.5 Z"/></g>
<g><path style="opacity:1" fill="#d09bd9" d="M 247.5,193.5 C 247.073,196.788 247.74,199.788 249.5,202.5C 249.167,203.5 248.5,204.167 247.5,204.5C 246.526,202.257 246.192,199.924 246.5,197.5C 246.232,195.901 246.566,194.568 247.5,193.5 Z"/></g>
<g><path style="opacity:1" fill="#c58dce" d="M 282.5,203.5 C 280.659,210.374 279.326,217.374 278.5,224.5C 278.5,224.833 278.5,225.167 278.5,225.5C 277.833,225.5 277.5,225.833 277.5,226.5C 276.833,226.5 276.167,226.5 275.5,226.5C 275.428,223.447 274.428,220.781 272.5,218.5C 273.794,219.29 274.961,220.29 276,221.5C 277.234,215.499 278.4,209.499 279.5,203.5C 279.678,202.305 280.011,201.138 280.5,200C 279.66,198.829 278.827,197.662 278,196.5C 278.333,189.167 281.333,187.833 287,192.5C 287.975,196.57 286.475,198.903 282.5,199.5C 282.5,200.833 282.5,202.167 282.5,203.5 Z"/></g>
<g><path style="opacity:1" fill="#ba8cc1" d="M 252.5,153.5 C 254.042,154.301 255.708,154.634 257.5,154.5C 257.198,157.059 257.532,159.393 258.5,161.5C 259.254,166.463 259.587,171.463 259.5,176.5C 259.448,178.903 259.781,181.236 260.5,183.5C 261.207,186.786 261.54,190.119 261.5,193.5C 261.671,198.196 262.171,202.863 263,207.5C 264.019,208.687 265.186,209.687 266.5,210.5C 268.899,204.97 270.899,199.304 272.5,193.5C 272.767,191.035 273.434,188.701 274.5,186.5C 275.167,186.5 275.5,186.167 275.5,185.5C 276.167,185.5 276.5,185.833 276.5,186.5C 275.5,190.499 274.5,194.499 273.5,198.5C 271.757,203.302 270.091,208.136 268.5,213C 270.464,214.451 271.797,216.284 272.5,218.5C 271.185,217.524 269.852,216.524 268.5,215.5C 266.565,219.304 265.232,223.304 264.5,227.5C 263.5,227.5 262.5,227.5 261.5,227.5C 261.167,220.833 260.833,214.167 260.5,207.5C 259.209,207.263 258.209,207.596 257.5,208.5C 256.467,207.088 255.801,205.422 255.5,203.5C 255.708,200.815 256.875,200.149 259,201.5C 259.81,197.642 259.643,193.976 258.5,190.5C 258.5,190.167 258.5,189.833 258.5,189.5C 258.567,188.041 258.234,186.708 257.5,185.5C 256.653,176.849 255.986,168.182 255.5,159.5C 255.657,158.127 255.49,156.793 255,155.5C 254.667,156.167 254.333,156.833 254,157.5C 253.722,156.584 253.222,155.918 252.5,155.5C 252.5,154.833 252.5,154.167 252.5,153.5 Z"/></g>
<g><path style="opacity:0.992" fill="#f3f2f4" d="M 261.5,193.5 C 265.167,193.5 268.833,193.5 272.5,193.5C 270.899,199.304 268.899,204.97 266.5,210.5C 265.186,209.687 264.019,208.687 263,207.5C 262.171,202.863 261.671,198.196 261.5,193.5 Z"/></g>
<g><path style="opacity:1" fill="#f3f1f4" d="M 272.5,218.5 C 274.428,220.781 275.428,223.447 275.5,226.5C 274.138,230.977 273.138,235.643 272.5,240.5C 271.504,240.414 270.671,240.748 270,241.5C 267.002,239.332 264.169,236.999 261.5,234.5C 259.539,232.037 257.372,229.703 255,227.5C 255.273,221.847 255.773,216.18 256.5,210.5C 257.338,210.158 257.672,209.492 257.5,208.5C 258.209,207.596 259.209,207.263 260.5,207.5C 260.833,214.167 261.167,220.833 261.5,227.5C 262.5,227.5 263.5,227.5 264.5,227.5C 265.232,223.304 266.565,219.304 268.5,215.5C 269.852,216.524 271.185,217.524 272.5,218.5 Z"/></g>
<g><path style="opacity:1" fill="#f3f2f4" d="M 263.5,210.5 C 264.627,211.122 265.627,211.955 266.5,213C 265.475,215.071 264.642,217.238 264,219.5C 263.502,216.518 263.335,213.518 263.5,210.5 Z"/></g>
<g><path style="opacity:0.745" fill="#e7d7e9" d="M 78.5,203.5 C 79.1667,206.167 79.8333,208.833 80.5,211.5C 80.6495,212.552 80.4828,213.552 80,214.5C 78.6632,210.974 78.1632,207.308 78.5,203.5 Z"/></g>
<g><path style="opacity:1" fill="#c78cd1" d="M 255.5,210.5 C 255.833,210.5 256.167,210.5 256.5,210.5C 255.773,216.18 255.273,221.847 255,227.5C 257.372,229.703 259.539,232.037 261.5,234.5C 261.5,235.167 261.167,235.5 260.5,235.5C 258.203,233.706 256.037,231.706 254,229.5C 253.433,232.168 252.933,234.834 252.5,237.5C 251.662,237.158 251.328,236.492 251.5,235.5C 251.75,232.786 251.917,230.119 252,227.5C 249.932,224.886 247.432,224.219 244.5,225.5C 242.485,233.275 240.485,240.941 238.5,248.5C 237.662,248.158 237.328,247.492 237.5,246.5C 238.115,240.757 239.115,235.091 240.5,229.5C 240.678,228.305 241.011,227.138 241.5,226C 237.641,222.603 237.641,219.27 241.5,216C 246.624,214.946 249.291,217.113 249.5,222.5C 250.814,223.313 251.981,224.313 253,225.5C 253.29,223.08 253.79,220.746 254.5,218.5C 254.575,215.794 254.908,213.127 255.5,210.5 Z"/></g>
<g><path style="opacity:1" fill="#f5f3f5" d="M 112.5,216.5 C 113.492,216.328 114.158,216.662 114.5,217.5C 116.441,220.459 118.441,223.459 120.5,226.5C 120,226.833 119.5,227.167 119,227.5C 117.594,226.586 116.094,225.92 114.5,225.5C 113.833,222.5 113.167,219.5 112.5,216.5 Z"/></g>
<g><path style="opacity:1" fill="#f4f2f4" d="M 111.5,219.5 C 111.894,220.967 112.227,222.467 112.5,224C 110.847,226.601 110.347,229.435 111,232.5C 111.5,233 112,233.5 112.5,234C 116.844,235.476 119.178,233.976 119.5,229.5C 119.5,229.167 119.5,228.833 119.5,228.5C 123.673,229.995 127.006,232.662 129.5,236.5C 124.203,239.819 118.869,243.153 113.5,246.5C 110.6,249.044 107.6,249.044 104.5,246.5C 101.818,239.808 99.1511,233.141 96.5,226.5C 101.625,224.438 106.625,222.104 111.5,219.5 Z"/></g>
<g><path style="opacity:1" fill="#ddb8e5" d="M 149.5,236.5 C 149.196,235.85 148.863,235.183 148.5,234.5C 151.122,231.297 151.122,228.13 148.5,225C 143.917,224.06 140.917,225.893 139.5,230.5C 138.378,231.63 137.044,232.297 135.5,232.5C 134.657,222.844 138.99,219.011 148.5,221C 154.822,225.771 155.156,230.938 149.5,236.5 Z"/></g>
<g><path style="opacity:1" fill="#b07fb8" d="M 439.5,242.5 C 438.508,242.328 437.842,242.662 437.5,243.5C 436.167,243.833 436.167,244.167 437.5,244.5C 438.833,244.5 440.167,244.5 441.5,244.5C 441.5,245.5 441.5,246.5 441.5,247.5C 441.737,248.791 441.404,249.791 440.5,250.5C 438.191,253.465 435.191,255.631 431.5,257C 434.051,257.002 436.051,257.836 437.5,259.5C 433.395,262.27 430.395,265.937 428.5,270.5C 427.463,269.07 426.796,267.403 426.5,265.5C 425.386,254.626 427.719,244.626 433.5,235.5C 426.598,242.672 423.598,251.339 424.5,261.5C 423.197,259.858 421.864,258.191 420.5,256.5C 420.05,250.864 421.05,245.53 423.5,240.5C 424.124,238.246 425.457,236.579 427.5,235.5C 429.5,234.167 431.167,232.5 432.5,230.5C 438.109,225.44 444.609,221.774 452,219.5C 450.567,226.301 448.401,232.968 445.5,239.5C 443.757,241.038 441.757,242.038 439.5,242.5 Z"/></g>
<g><path style="opacity:1" fill="#f4f3f4" d="M 240.5,229.5 C 239.115,235.091 238.115,240.757 237.5,246.5C 236.778,246.918 236.278,247.584 236,248.5C 235.184,247.177 234.017,246.511 232.5,246.5C 229.167,242.833 225.833,239.167 222.5,235.5C 226.831,232.002 230.664,228.002 234,223.5C 236.037,225.706 238.203,227.706 240.5,229.5 Z"/></g>
<g><path style="opacity:1" fill="#deb9e5" d="M 204.5,239.5 C 203.542,239.047 202.708,238.381 202,237.5C 201.172,230.329 197.672,228.662 191.5,232.5C 191.629,230.784 191.962,229.117 192.5,227.5C 192.5,227.167 192.5,226.833 192.5,226.5C 202.721,225.055 206.721,229.388 204.5,239.5 Z"/></g>
<g><path style="opacity:1" fill="#f3f0f4" d="M 251.5,235.5 C 250.029,241.303 248.862,247.303 248,253.5C 247.082,255.376 245.582,256.376 243.5,256.5C 242.207,254.704 240.707,253.037 239,251.5C 238.517,250.552 238.351,249.552 238.5,248.5C 240.485,240.941 242.485,233.275 244.5,225.5C 247.432,224.219 249.932,224.886 252,227.5C 251.917,230.119 251.75,232.786 251.5,235.5 Z"/></g>
<g><path style="opacity:1" fill="#d3add9" d="M 275.5,226.5 C 276.167,226.5 276.833,226.5 277.5,226.5C 277.167,229.167 276.833,231.833 276.5,234.5C 275.532,236.607 275.198,238.941 275.5,241.5C 274.778,241.082 274.278,240.416 274,239.5C 273.617,240.056 273.117,240.389 272.5,240.5C 273.138,235.643 274.138,230.977 275.5,226.5 Z"/></g>
<g><path style="opacity:1" fill="#b47fbd" d="M 114.5,225.5 C 115.048,228.084 116.715,229.084 119.5,228.5C 119.5,228.833 119.5,229.167 119.5,229.5C 118.078,229.75 117.078,230.583 116.5,232C 115.5,232.667 114.5,232.667 113.5,232C 112.457,229.627 112.79,227.46 114.5,225.5 Z"/></g>
<g><path style="opacity:0.999" fill="#f5f5f5" d="M 76.5,208.5 C 77.6433,211.976 77.8099,215.642 77,219.5C 72.5224,222.382 72.3557,225.382 76.5,228.5C 79.4509,229.165 81.4509,230.999 82.5,234C 86.2051,235.313 88.5385,234.146 89.5,230.5C 91.7727,230.043 93.106,228.71 93.5,226.5C 96.0694,231.985 98.4027,237.651 100.5,243.5C 98.2323,246.21 96.899,249.377 96.5,253C 96.3996,256.804 98.0662,259.471 101.5,261C 111.509,262.826 115.842,258.659 114.5,248.5C 115.167,248.5 115.5,248.167 115.5,247.5C 120.762,244.755 125.928,241.755 131,238.5C 131.483,239.448 131.649,240.448 131.5,241.5C 133.352,252.794 135.018,264.127 136.5,275.5C 134.911,278.285 134.411,281.285 135,284.5C 137.333,287.167 139.667,287.167 142,284.5C 142.687,282.432 142.52,280.432 141.5,278.5C 144.451,272.932 147.118,267.266 149.5,261.5C 150.925,259.969 151.591,260.302 151.5,262.5C 150.778,262.918 150.278,263.584 150,264.5C 149.464,275.29 150.464,285.957 153,296.5C 155.426,300.759 158.926,303.759 163.5,305.5C 164.745,309.065 166.745,312.065 169.5,314.5C 152.882,316.399 136.882,320.899 121.5,328C 109.098,334.065 100.598,343.565 96,356.5C 94.0341,370.269 98.5341,381.435 109.5,390C 123.604,400.389 139.271,406.889 156.5,409.5C 130.167,409.5 103.833,409.5 77.5,409.5C 61.1943,398.027 47.3609,384.027 36,367.5C 16.2916,330.642 19.9583,296.309 47,264.5C 57.0962,254.232 67.9295,244.898 79.5,236.5C 79.1667,235.833 78.8333,235.167 78.5,234.5C 70.5144,232.537 67.6811,227.537 70,219.5C 71.4058,217.129 73.4058,215.462 76,214.5C 76.4955,212.527 76.6621,210.527 76.5,208.5 Z"/></g>
<g><path style="opacity:1" fill="#debee4" d="M 278.5,224.5 C 280.92,226.92 283.92,228.087 287.5,228C 288.804,228.804 289.471,229.971 289.5,231.5C 288.53,235.503 286.197,236.837 282.5,235.5C 281.168,232.135 279.834,228.802 278.5,225.5C 278.5,225.167 278.5,224.833 278.5,224.5 Z"/></g>
<g><path style="opacity:1" fill="#b27ebb" d="M 281.5,228.5 C 283.936,228.749 285.936,229.749 287.5,231.5C 286.332,233.217 284.665,233.884 282.5,233.5C 282.371,231.784 282.038,230.117 281.5,228.5 Z"/></g>
<g><path style="opacity:0.725" fill="#efdef2" d="M 82.5,214.5 C 85.5287,216.372 87.6954,219.039 89,222.5C 90.1882,221.437 90.6882,220.103 90.5,218.5C 91.5375,219.93 92.2041,221.597 92.5,223.5C 91.2502,223.577 90.4169,224.244 90,225.5C 89.5065,227.134 89.3398,228.801 89.5,230.5C 88.5385,234.146 86.2051,235.313 82.5,234C 81.4509,230.999 79.4509,229.165 76.5,228.5C 78.5,228.5 80.5,228.5 82.5,228.5C 82.1762,231.68 83.5096,232.847 86.5,232C 87.4061,230.301 87.7394,228.467 87.5,226.5C 86.1667,226.5 84.8333,226.5 83.5,226.5C 83.5895,223.275 82.9228,220.275 81.5,217.5C 81.5195,216.274 81.8529,215.274 82.5,214.5 Z"/></g>
<g><path style="opacity:1" fill="#d4a3dd" d="M 222.5,235.5 C 225.833,239.167 229.167,242.833 232.5,246.5C 228.897,244.237 225.564,241.57 222.5,238.5C 220.815,236.182 218.481,235.182 215.5,235.5C 215.904,234.244 216.571,233.077 217.5,232C 216.125,228.931 214.459,228.764 212.5,231.5C 213.246,232.736 213.579,234.07 213.5,235.5C 210.027,233.437 209.694,230.937 212.5,228C 217.712,226.872 220.212,229.039 220,234.5C 220.671,235.252 221.504,235.586 222.5,235.5 Z"/></g>
<g><path style="opacity:1" fill="#d9c2dd" d="M 433.5,235.5 C 434.373,233.114 435.873,231.114 438,229.5C 437.573,232.121 436.073,234.121 433.5,235.5 Z"/></g>
<g><path style="opacity:0.69" fill="#e1cde4" d="M 432.5,230.5 C 431.167,232.5 429.5,234.167 427.5,235.5C 428.167,232.833 429.833,231.167 432.5,230.5 Z"/></g>
<g><path style="opacity:1" fill="#e8cfec" d="M 215.5,235.5 C 218.481,235.182 220.815,236.182 222.5,238.5C 219.233,240.427 216.233,242.761 213.5,245.5C 213.788,242.061 214.454,238.728 215.5,235.5 Z"/></g>
<g><path style="opacity:1" fill="#e4c7e9" d="M 158.5,272.5 C 158.833,273.833 159.167,275.167 159.5,276.5C 154.734,272.962 152.068,268.295 151.5,262.5C 151.591,260.302 150.925,259.969 149.5,261.5C 147.118,267.266 144.451,272.932 141.5,278.5C 142.52,280.432 142.687,282.432 142,284.5C 139.667,287.167 137.333,287.167 135,284.5C 134.411,281.285 134.911,278.285 136.5,275.5C 135.018,264.127 133.352,252.794 131.5,241.5C 133.327,237.187 136.661,234.187 141.5,232.5C 142.85,233.95 144.516,234.617 146.5,234.5C 148.186,241.061 150.186,247.561 152.5,254C 151.496,255.798 150.996,257.632 151,259.5C 151.915,258.672 152.581,257.672 153,256.5C 155.142,261.761 156.975,267.094 158.5,272.5 Z"/></g>
<g><path style="opacity:1" fill="#ead7ed" d="M 276.5,234.5 C 276.281,235.675 276.614,236.675 277.5,237.5C 284.134,242.912 284.134,248.412 277.5,254C 266.525,255.858 262.191,251.358 264.5,240.5C 265.458,240.953 266.292,241.619 267,242.5C 267.198,244.382 267.698,246.048 268.5,247.5C 270.053,250.254 272.386,251.087 275.5,250C 278.145,247.05 278.145,244.217 275.5,241.5C 275.198,238.941 275.532,236.607 276.5,234.5 Z"/></g>
<g><path style="opacity:1" fill="#f4f2f4" d="M 222.5,238.5 C 225.564,241.57 228.897,244.237 232.5,246.5C 233.81,248.148 235.143,249.814 236.5,251.5C 235.189,255.389 234.522,259.389 234.5,263.5C 232.801,263.66 231.134,263.494 229.5,263C 227.297,260.628 224.963,258.461 222.5,256.5C 219.062,253.565 215.729,250.399 212.5,247C 213.056,246.617 213.389,246.117 213.5,245.5C 216.233,242.761 219.233,240.427 222.5,238.5 Z"/></g>
<g><path style="opacity:1" fill="#d6aedd" d="M 261.5,234.5 C 264.169,236.999 267.002,239.332 270,241.5C 270.671,240.748 271.504,240.414 272.5,240.5C 271.194,242.816 269.861,245.15 268.5,247.5C 267.698,246.048 267.198,244.382 267,242.5C 266.292,241.619 265.458,240.953 264.5,240.5C 263.167,238.833 261.833,237.167 260.5,235.5C 261.167,235.5 261.5,235.167 261.5,234.5 Z"/></g>
<g><path style="opacity:1" fill="#f5f5f5" d="M 149.5,261.5 C 146.178,266.805 142.844,272.139 139.5,277.5C 136.406,265.345 134.573,253.012 134,240.5C 138.667,245.167 143.333,249.833 148,254.5C 149.202,256.677 149.702,259.011 149.5,261.5 Z"/></g>
<g><path style="opacity:1" fill="#c888d3" d="M 275.5,241.5 C 278.145,244.217 278.145,247.05 275.5,250C 272.386,251.087 270.053,250.254 268.5,247.5C 269.861,245.15 271.194,242.816 272.5,240.5C 273.117,240.389 273.617,240.056 274,239.5C 274.278,240.416 274.778,241.082 275.5,241.5 Z"/></g>
<g><path style="opacity:1" fill="#e6cbeb" d="M 213.5,251.5 C 212.833,251.833 212.167,252.167 211.5,252.5C 211.5,251.833 211.167,251.5 210.5,251.5C 210.225,249.158 209.392,249.158 208,251.5C 205.676,254.48 204.176,257.813 203.5,261.5C 202.629,264.003 201.963,266.67 201.5,269.5C 201.167,269.5 200.833,269.5 200.5,269.5C 195.017,265.186 192.85,259.52 194,252.5C 194.835,248.821 195.668,245.155 196.5,241.5C 197.591,240.112 198.924,239.612 200.5,240C 205.027,243.699 209.361,247.532 213.5,251.5 Z"/></g>
<g><path style="opacity:1" fill="#e8ceec" d="M 192.5,227.5 C 191.962,229.117 191.629,230.784 191.5,232.5C 191.474,235.876 192.141,239.042 193.5,242C 192.612,247.492 191.779,252.992 191,258.5C 190.617,257.944 190.117,257.611 189.5,257.5C 189.666,251.824 189.499,246.157 189,240.5C 187.101,236.864 187.101,233.197 189,229.5C 189.816,228.177 190.983,227.511 192.5,227.5 Z"/></g>
<g><path style="opacity:0.369" fill="#f4ecf5" d="M 439.5,242.5 C 440.209,243.404 441.209,243.737 442.5,243.5C 442.768,245.099 442.434,246.432 441.5,247.5C 441.5,246.5 441.5,245.5 441.5,244.5C 440.167,244.5 438.833,244.5 437.5,244.5C 437.5,244.167 437.5,243.833 437.5,243.5C 437.842,242.662 438.508,242.328 439.5,242.5 Z"/></g>
<g><path style="opacity:1" fill="#efe0f1" d="M 100.5,243.5 C 101.434,244.772 102.101,246.272 102.5,248C 99.6031,251.399 99.9364,254.399 103.5,257C 108.624,258.054 111.291,255.887 111.5,250.5C 112.518,249.807 113.518,249.141 114.5,248.5C 115.842,258.659 111.509,262.826 101.5,261C 98.0662,259.471 96.3996,256.804 96.5,253C 96.899,249.377 98.2323,246.21 100.5,243.5 Z"/></g>
<g><path style="opacity:1" fill="#b67dc0" d="M 420.5,256.5 C 421.864,258.191 423.197,259.858 424.5,261.5C 424.989,262.995 425.655,264.329 426.5,265.5C 426.796,267.403 427.463,269.07 428.5,270.5C 426.258,277.041 425.925,283.708 427.5,290.5C 425.545,291.323 423.545,291.49 421.5,291C 419.266,288.937 417.266,286.771 415.5,284.5C 413.94,282.046 412.94,279.38 412.5,276.5C 414.857,276.663 417.19,276.497 419.5,276C 415.797,274.991 412.297,273.491 409,271.5C 407.634,269.63 406.467,267.63 405.5,265.5C 407.423,264.692 409.423,264.192 411.5,264C 408.833,263.333 406.167,262.667 403.5,262C 399.957,256.414 396.291,250.914 392.5,245.5C 403.033,245.754 412.366,249.42 420.5,256.5 Z"/></g>
<g><path style="opacity:1" fill="#f0eff0" d="M 210.5,251.5 C 209.198,258.699 207.531,265.699 205.5,272.5C 205.99,268.513 205.324,264.846 203.5,261.5C 204.176,257.813 205.676,254.48 208,251.5C 209.392,249.158 210.225,249.158 210.5,251.5 Z"/></g>
<g><path style="opacity:1" fill="#dcc0e1" d="M 412.5,255.5 C 410.456,254.969 408.789,253.802 407.5,252C 409.772,252.077 411.438,253.243 412.5,255.5 Z"/></g>
<g><path style="opacity:0.661" fill="#f0def2" d="M 454.5,253.5 C 457.304,252.362 460.304,252.195 463.5,253C 462.956,253.717 462.289,254.217 461.5,254.5C 459.393,253.532 457.059,253.198 454.5,253.5 Z"/></g>
<g><path style="opacity:0.991" fill="#f1ecf1" d="M 440.5,250.5 C 439.756,253.95 441.09,255.616 444.5,255.5C 442.071,256.551 439.738,257.884 437.5,259.5C 436.051,257.836 434.051,257.002 431.5,257C 435.191,255.631 438.191,253.465 440.5,250.5 Z"/></g>
<g><path style="opacity:1" fill="#ca8cd5" d="M 454.5,253.5 C 457.059,253.198 459.393,253.532 461.5,254.5C 459.183,258.146 456.516,261.48 453.5,264.5C 452.733,265.172 452.066,266.005 451.5,267C 448.167,267.333 444.833,267.667 441.5,268C 443.788,268.822 446.122,269.489 448.5,270C 445.553,275.515 440.886,278.182 434.5,278C 436.9,278.186 439.234,278.686 441.5,279.5C 440.237,281.029 439.237,282.695 438.5,284.5C 436.401,287.926 433.401,290.259 429.5,291.5C 428.584,291.457 427.917,291.124 427.5,290.5C 425.925,283.708 426.258,277.041 428.5,270.5C 430.395,265.937 433.395,262.27 437.5,259.5C 439.738,257.884 442.071,256.551 444.5,255.5C 447.63,253.977 450.963,253.311 454.5,253.5 Z"/></g>
<g><path style="opacity:1" fill="#c48dce" d="M 135.5,232.5 C 137.044,232.297 138.378,231.63 139.5,230.5C 140.917,225.893 143.917,224.06 148.5,225C 151.122,228.13 151.122,231.297 148.5,234.5C 148.863,235.183 149.196,235.85 149.5,236.5C 150.984,241.479 152.484,246.479 154,251.5C 154.498,249.473 154.331,247.473 153.5,245.5C 153.529,243.971 154.196,242.804 155.5,242C 161.486,240.984 163.486,243.317 161.5,249C 162.765,250.337 163.265,251.837 163,253.5C 160.063,248.214 157.229,248.214 154.5,253.5C 155.599,256.296 156.599,259.129 157.5,262C 157.836,263.03 158.503,263.53 159.5,263.5C 159.448,265.903 159.781,268.236 160.5,270.5C 160.5,271.167 160.5,271.833 160.5,272.5C 160.062,273.506 159.396,273.506 158.5,272.5C 156.975,267.094 155.142,261.761 153,256.5C 152.581,257.672 151.915,258.672 151,259.5C 150.996,257.632 151.496,255.798 152.5,254C 150.186,247.561 148.186,241.061 146.5,234.5C 144.516,234.617 142.85,233.95 141.5,232.5C 136.661,234.187 133.327,237.187 131.5,241.5C 131.649,240.448 131.483,239.448 131,238.5C 125.928,241.755 120.762,244.755 115.5,247.5C 114.508,247.672 113.842,247.338 113.5,246.5C 118.869,243.153 124.203,239.819 129.5,236.5C 131.506,231.999 130.172,228.666 125.5,226.5C 121.107,227.727 120.774,227.394 124.5,225.5C 125.48,219.63 128.313,218.296 133,221.5C 132.657,225.809 132.157,230.142 131.5,234.5C 133.38,234.771 134.713,234.104 135.5,232.5 Z"/></g>
<g><path style="opacity:1" fill="#cfa0d8" d="M 184.5,252.5 C 185.415,254.754 186.748,256.754 188.5,258.5C 188.5,258.833 188.5,259.167 188.5,259.5C 187.167,258.5 185.833,257.5 184.5,256.5C 180.702,255.517 176.702,255.183 172.5,255.5C 174.042,254.837 175.709,254.17 177.5,253.5C 175.993,251.031 176.327,248.865 178.5,247C 183.493,245.491 185.493,247.325 184.5,252.5 Z"/></g>
<g><path style="opacity:1" fill="#c687d1" d="M 215.5,235.5 C 214.454,238.728 213.788,242.061 213.5,245.5C 213.389,246.117 213.056,246.617 212.5,247C 215.729,250.399 219.062,253.565 222.5,256.5C 222.158,257.338 221.492,257.672 220.5,257.5C 218.167,255.5 215.833,253.5 213.5,251.5C 209.361,247.532 205.027,243.699 200.5,240C 198.924,239.612 197.591,240.112 196.5,241.5C 195.668,245.155 194.835,248.821 194,252.5C 192.85,259.52 195.017,265.186 200.5,269.5C 200.5,270.167 200.5,270.833 200.5,271.5C 200.167,271.5 199.833,271.5 199.5,271.5C 198.542,270.038 197.376,268.705 196,267.5C 193.496,270.429 191.329,273.429 189.5,276.5C 188.844,275.722 188.011,275.056 187,274.5C 184.566,275.322 182.066,275.656 179.5,275.5C 179.778,277.346 179.111,278.68 177.5,279.5C 176.358,278.174 175.024,277.174 173.5,276.5C 168.691,275.668 164.357,273.668 160.5,270.5C 159.781,268.236 159.448,265.903 159.5,263.5C 161.833,258.145 164,257.811 166,262.5C 166.718,263.451 167.551,263.617 168.5,263C 167.418,261.67 166.751,260.17 166.5,258.5C 167.5,258.833 168.167,259.5 168.5,260.5C 168.783,261.289 169.283,261.956 170,262.5C 169.97,259.639 170.803,257.305 172.5,255.5C 176.702,255.183 180.702,255.517 184.5,256.5C 184.244,258.792 184.577,260.959 185.5,263C 188.936,263.737 189.936,262.57 188.5,259.5C 188.5,259.167 188.5,258.833 188.5,258.5C 189.167,258.5 189.5,258.167 189.5,257.5C 190.117,257.611 190.617,257.944 191,258.5C 191.779,252.992 192.612,247.492 193.5,242C 192.141,239.042 191.474,235.876 191.5,232.5C 197.672,228.662 201.172,230.329 202,237.5C 202.708,238.381 203.542,239.047 204.5,239.5C 210.625,247.812 213.625,246.479 213.5,235.5C 213.579,234.07 213.246,232.736 212.5,231.5C 214.459,228.764 216.125,228.931 217.5,232C 216.571,233.077 215.904,234.244 215.5,235.5 Z"/></g>
<g><path style="opacity:1" fill="#e0c3e5" d="M 251.5,235.5 C 251.328,236.492 251.662,237.158 252.5,237.5C 251.287,242.773 250.287,248.107 249.5,253.5C 249.86,255.421 250.694,257.088 252,258.5C 252.667,259.833 252.667,261.167 252,262.5C 245.637,265.997 242.804,263.997 243.5,256.5C 245.582,256.376 247.082,255.376 248,253.5C 248.862,247.303 250.029,241.303 251.5,235.5 Z"/></g>
<g><path style="opacity:1" fill="#fbf7fc" d="M 184.5,256.5 C 185.833,257.5 187.167,258.5 188.5,259.5C 189.936,262.57 188.936,263.737 185.5,263C 184.577,260.959 184.244,258.792 184.5,256.5 Z"/></g>
<g><path style="opacity:1" fill="#ebdfed" d="M 433.5,235.5 C 427.719,244.626 425.386,254.626 426.5,265.5C 425.655,264.329 424.989,262.995 424.5,261.5C 423.598,251.339 426.598,242.672 433.5,235.5 Z"/></g>
<g><path style="opacity:1" fill="#efe1f1" d="M 237.5,258.5 C 239.112,260.298 240.612,262.298 242,264.5C 243.655,269.937 242.155,274.103 237.5,277C 226.754,277.754 222.754,272.92 225.5,262.5C 226.458,262.953 227.292,263.619 228,264.5C 227.481,270.304 229.981,273.138 235.5,273C 237.516,271.972 238.516,270.305 238.5,268C 237.597,265.921 236.931,263.754 236.5,261.5C 236.52,260.274 236.853,259.274 237.5,258.5 Z"/></g>
<g><path style="opacity:1" fill="#7b8991" d="M 203.5,261.5 C 205.324,264.846 205.99,268.513 205.5,272.5C 203.027,272.912 201.694,271.912 201.5,269.5C 201.963,266.67 202.629,264.003 203.5,261.5 Z"/></g>
<g><path style="opacity:1" fill="#d6acde" d="M 232.5,246.5 C 234.017,246.511 235.184,247.177 236,248.5C 236.278,247.584 236.778,246.918 237.5,246.5C 237.328,247.492 237.662,248.158 238.5,248.5C 238.351,249.552 238.517,250.552 239,251.5C 240.707,253.037 242.207,254.704 243.5,256.5C 241.629,256.141 240.129,255.141 239,253.5C 237.731,254.905 237.231,256.571 237.5,258.5C 236.853,259.274 236.52,260.274 236.5,261.5C 236.931,263.754 237.597,265.921 238.5,268C 238.516,270.305 237.516,271.972 235.5,273C 229.981,273.138 227.481,270.304 228,264.5C 227.292,263.619 226.458,262.953 225.5,262.5C 224.027,260.605 222.36,258.939 220.5,257.5C 221.492,257.672 222.158,257.338 222.5,256.5C 224.963,258.461 227.297,260.628 229.5,263C 231.134,263.494 232.801,263.66 234.5,263.5C 234.522,259.389 235.189,255.389 236.5,251.5C 235.143,249.814 233.81,248.148 232.5,246.5 Z"/></g>
<g><path style="opacity:1" fill="#ebdcee" d="M 412.5,255.5 C 422.626,264.019 426.792,275.019 425,288.5C 424.036,281.753 422.703,275.086 421,268.5C 418.643,263.768 415.81,259.435 412.5,255.5 Z"/></g>
<g><path style="opacity:1" fill="#e6cdea" d="M 160.5,270.5 C 164.357,273.668 168.691,275.668 173.5,276.5C 173.433,277.959 173.766,279.292 174.5,280.5C 170.348,280.004 166.348,279.004 162.5,277.5C 161.976,275.694 161.309,274.028 160.5,272.5C 160.5,271.833 160.5,271.167 160.5,270.5 Z"/></g>
<g><path style="opacity:1" fill="#cdadd5" d="M 210.5,251.5 C 211.167,251.5 211.5,251.833 211.5,252.5C 210.566,259.072 209.232,265.572 207.5,272C 208.009,273.169 208.842,274.002 210,274.5C 211.328,279.338 209.494,281.671 204.5,281.5C 203.542,281.047 202.708,280.381 202,279.5C 201.728,276.746 201.228,274.079 200.5,271.5C 200.5,270.833 200.5,270.167 200.5,269.5C 200.833,269.5 201.167,269.5 201.5,269.5C 201.694,271.912 203.027,272.912 205.5,272.5C 207.531,265.699 209.198,258.699 210.5,251.5 Z"/></g>
<g><path style="opacity:1" fill="#efdcf2" d="M 442.5,259.5 C 443.239,259.369 443.906,259.536 444.5,260C 435.018,267.13 429.851,276.63 429,288.5C 428.392,281.313 430.059,274.647 434,268.5C 437.038,265.631 439.871,262.631 442.5,259.5 Z"/></g>
<g><path style="opacity:1" fill="#e8d1ec" d="M 199.5,271.5 C 199.586,272.496 199.252,273.329 198.5,274C 195.637,275.787 192.637,277.287 189.5,278.5C 189.5,277.833 189.5,277.167 189.5,276.5C 191.329,273.429 193.496,270.429 196,267.5C 197.376,268.705 198.542,270.038 199.5,271.5 Z"/></g>
<g><path style="opacity:1" fill="#e5e6e6" d="M 359.5,295.5 C 357.547,302.072 354.547,308.072 350.5,313.5C 351.288,317.903 353.954,319.903 358.5,319.5C 367.181,318.975 371.014,314.309 370,305.5C 371.404,303.606 372.57,301.606 373.5,299.5C 372.954,297.865 372.62,296.199 372.5,294.5C 373.338,294.158 373.672,293.492 373.5,292.5C 384.511,299.704 387.344,309.37 382,321.5C 371.719,333.503 358.553,340.003 342.5,341C 321.272,343.95 302.439,338.783 286,325.5C 279.589,317.238 278.922,308.571 284,299.5C 294.691,288.208 307.857,282.208 323.5,281.5C 323.5,280.167 323.5,278.833 323.5,277.5C 324.482,280.962 324.815,284.629 324.5,288.5C 324.714,290.144 324.38,291.644 323.5,293C 318.213,296.56 312.713,299.726 307,302.5C 306.175,304.701 306.675,306.534 308.5,308C 316.25,310.789 323.25,309.456 329.5,304C 333.152,303.501 336.818,303.335 340.5,303.5C 340.693,299.434 340.36,295.434 339.5,291.5C 343.516,271.466 344.516,251.133 342.5,230.5C 342.824,220.491 343.324,210.491 344,200.5C 347.479,230.279 351.813,259.945 357,289.5C 357.236,291.811 358.069,293.811 359.5,295.5 Z"/></g>
<g><path style="opacity:1" fill="#c0bfc0" d="M 415.5,284.5 C 417.266,286.771 419.266,288.937 421.5,291C 423.545,291.49 425.545,291.323 427.5,290.5C 427.917,291.124 428.584,291.457 429.5,291.5C 433.401,290.259 436.401,287.926 438.5,284.5C 438.945,287.365 438.278,289.865 436.5,292C 431.092,294.444 425.426,295.11 419.5,294C 414.779,292.189 413.446,289.022 415.5,284.5 Z"/></g>
<g><path style="opacity:1" fill="#fefefe" d="M 410.5,290.5 C 414.602,295.13 419.768,297.13 426,296.5C 432.417,297.252 437.751,295.252 442,290.5C 442.918,299.661 441.251,308.327 437,316.5C 430.252,320.235 423.419,320.401 416.5,317C 411.989,308.784 409.989,299.951 410.5,290.5 Z"/></g>
<g><path style="opacity:1" fill="#485a63" d="M 324.5,288.5 C 325.364,289.688 326.364,290.855 327.5,292C 331.587,292.762 335.587,292.596 339.5,291.5C 340.36,295.434 340.693,299.434 340.5,303.5C 336.818,303.335 333.152,303.501 329.5,304C 323.25,309.456 316.25,310.789 308.5,308C 306.675,306.534 306.175,304.701 307,302.5C 312.713,299.726 318.213,296.56 323.5,293C 324.38,291.644 324.714,290.144 324.5,288.5 Z"/></g>
<g><path style="opacity:1" fill="#949ea3" d="M 151.5,262.5 C 152.068,268.295 154.734,272.962 159.5,276.5C 160.738,278.214 161.405,280.214 161.5,282.5C 159.248,282.916 157.748,284.249 157,286.5C 155.167,296.667 159.333,300.833 169.5,299C 176.1,293.208 176.1,287.541 169.5,282C 167.866,281.506 166.199,281.34 164.5,281.5C 163.326,280.486 162.66,279.153 162.5,277.5C 166.348,279.004 170.348,280.004 174.5,280.5C 178.76,280.24 183.094,280.24 187.5,280.5C 186.83,282.863 186.163,285.196 185.5,287.5C 177.713,288.377 174.88,292.711 177,300.5C 179.897,305.155 184.063,306.655 189.5,305C 194.155,302.103 195.655,297.937 194,292.5C 192.152,290.369 190.319,288.369 188.5,286.5C 188.575,283.794 188.908,281.127 189.5,278.5C 192.637,277.287 195.637,275.787 198.5,274C 199.252,273.329 199.586,272.496 199.5,271.5C 199.833,271.5 200.167,271.5 200.5,271.5C 201.228,274.079 201.728,276.746 202,279.5C 202.708,280.381 203.542,281.047 204.5,281.5C 204.494,286.215 203.994,290.882 203,295.5C 201.244,299.966 198.078,302.966 193.5,304.5C 192.357,309.305 189.691,312.971 185.5,315.5C 179.997,318.314 174.664,317.98 169.5,314.5C 166.745,312.065 164.745,309.065 163.5,305.5C 158.926,303.759 155.426,300.759 153,296.5C 150.464,285.957 149.464,275.29 150,264.5C 150.278,263.584 150.778,262.918 151.5,262.5 Z"/></g>
<g><path style="opacity:1" fill="#d4aadc" d="M 189.5,276.5 C 189.5,277.167 189.5,277.833 189.5,278.5C 188.908,281.127 188.575,283.794 188.5,286.5C 187.853,287.274 187.52,288.274 187.5,289.5C 188.506,291.837 189.506,294.17 190.5,296.5C 189.442,301.029 186.776,302.362 182.5,300.5C 179.53,296.71 180.197,293.71 184.5,291.5C 185.429,290.311 185.762,288.978 185.5,287.5C 186.163,285.196 186.83,282.863 187.5,280.5C 183.094,280.24 178.76,280.24 174.5,280.5C 173.766,279.292 173.433,277.959 173.5,276.5C 175.024,277.174 176.358,278.174 177.5,279.5C 179.111,278.68 179.778,277.346 179.5,275.5C 182.066,275.656 184.566,275.322 187,274.5C 188.011,275.056 188.844,275.722 189.5,276.5 Z"/></g>
<g><path style="opacity:1" fill="#a59fb2" d="M 164.5,281.5 C 166.199,281.34 167.866,281.506 169.5,282C 176.1,287.541 176.1,293.208 169.5,299C 159.333,300.833 155.167,296.667 157,286.5C 157.748,284.249 159.248,282.916 161.5,282.5C 161.923,283.265 162.257,284.098 162.5,285C 160.098,288.024 159.932,291.19 162,294.5C 165.206,296.124 167.872,295.458 170,292.5C 170.983,287.981 169.15,285.648 164.5,285.5C 164.5,284.167 164.5,282.833 164.5,281.5 Z"/></g>
<g><path style="opacity:1" fill="#d3a8db" d="M 158.5,272.5 C 159.396,273.506 160.062,273.506 160.5,272.5C 161.309,274.028 161.976,275.694 162.5,277.5C 162.66,279.153 163.326,280.486 164.5,281.5C 164.5,282.833 164.5,284.167 164.5,285.5C 169.15,285.648 170.983,287.981 170,292.5C 167.872,295.458 165.206,296.124 162,294.5C 159.932,291.19 160.098,288.024 162.5,285C 162.257,284.098 161.923,283.265 161.5,282.5C 161.405,280.214 160.738,278.214 159.5,276.5C 159.167,275.167 158.833,273.833 158.5,272.5 Z"/></g>
<g><path style="opacity:1" fill="#4a5d67" d="M 372.5,294.5 C 372.62,296.199 372.954,297.865 373.5,299.5C 372.57,301.606 371.404,303.606 370,305.5C 371.014,314.309 367.181,318.975 358.5,319.5C 353.954,319.903 351.288,317.903 350.5,313.5C 354.547,308.072 357.547,302.072 359.5,295.5C 363.979,296.955 368.312,296.622 372.5,294.5 Z"/></g>
<g><path style="opacity:1" fill="#a8a2b6" d="M 188.5,286.5 C 190.319,288.369 192.152,290.369 194,292.5C 195.655,297.937 194.155,302.103 189.5,305C 184.063,306.655 179.897,305.155 177,300.5C 174.88,292.711 177.713,288.377 185.5,287.5C 185.762,288.978 185.429,290.311 184.5,291.5C 180.197,293.71 179.53,296.71 182.5,300.5C 186.776,302.362 189.442,301.029 190.5,296.5C 189.506,294.17 188.506,291.837 187.5,289.5C 187.52,288.274 187.853,287.274 188.5,286.5 Z"/></g>
<g><path style="opacity:1" fill="#e6e6e6" d="M 169.5,314.5 C 174.664,317.98 179.997,318.314 185.5,315.5C 195.864,316.451 206.198,318.284 216.5,321C 231.04,325.217 243.206,333.05 253,344.5C 263.52,362.285 260.686,377.785 244.5,391C 230.401,400.418 215.068,406.584 198.5,409.5C 184.5,409.5 170.5,409.5 156.5,409.5C 139.271,406.889 123.604,400.389 109.5,390C 98.5341,381.435 94.0341,370.269 96,356.5C 100.598,343.565 109.098,334.065 121.5,328C 136.882,320.899 152.882,316.399 169.5,314.5 Z"/></g>
<g><path style="opacity:1" fill="#fefefe" d="M 178.5,341.5 C 183.305,344.071 187.972,346.904 192.5,350C 188.342,353.161 183.842,355.661 179,357.5C 174.657,355.745 170.491,353.578 166.5,351C 165.167,350.333 165.167,349.667 166.5,349C 170.732,346.725 174.732,344.225 178.5,341.5 Z"/></g>
<g><path style="opacity:1" fill="#cacaca" d="M 158.5,351.5 C 157.208,353.795 157.874,355.628 160.5,357C 166.491,360.579 172.658,363.745 179,366.5C 187.091,363.545 194.258,359.211 200.5,353.5C 200.457,352.584 200.124,351.917 199.5,351.5C 199.611,350.883 199.944,350.383 200.5,350C 199.132,348.66 197.799,347.326 196.5,346C 196.833,345.5 197.167,345 197.5,344.5C 202.167,347.167 206.833,349.833 211.5,352.5C 212.386,353.325 212.719,354.325 212.5,355.5C 201.807,362.429 190.641,368.429 179,373.5C 167.359,368.429 156.193,362.429 145.5,355.5C 145.281,354.325 145.614,353.325 146.5,352.5C 151.167,349.833 155.833,347.167 160.5,344.5C 160.833,345 161.167,345.5 161.5,346C 160.201,347.326 158.868,348.66 157.5,350C 158.056,350.383 158.389,350.883 158.5,351.5 Z"/></g>
<g><path style="opacity:1" fill="#b4b4b4" d="M 158.5,351.5 C 165.287,355.309 172.12,358.976 179,362.5C 185.938,359.07 192.772,355.403 199.5,351.5C 200.124,351.917 200.457,352.584 200.5,353.5C 194.258,359.211 187.091,363.545 179,366.5C 172.658,363.745 166.491,360.579 160.5,357C 157.874,355.628 157.208,353.795 158.5,351.5 Z"/></g>
<g><path style="opacity:1" fill="#b4b4b4" d="M 145.5,355.5 C 156.193,362.429 167.359,368.429 179,373.5C 190.641,368.429 201.807,362.429 212.5,355.5C 212.768,358.119 212.435,360.619 211.5,363C 200.881,369.299 190.047,375.132 179,380.5C 167.988,375.076 157.155,369.243 146.5,363C 145.565,360.619 145.232,358.119 145.5,355.5 Z"/></g>
</svg>
