<?xml version="1.0" encoding="UTF-8"?>
<svg width="435.1" height="480.66" version="1.1" viewBox="0 0 435.1 480.66" xmlns="http://www.w3.org/2000/svg">
 <defs>
  <clipPath id="clipPath140">
   <rect x="43.092" y="42.881" width="432.14" height="408.74" fill="#808080" fill-opacity=".40884"/>
  </clipPath>
 </defs>
 <g transform="matrix(1.0069 0 0 1.1797 -43.387 -52.107)" clip-path="url(#clipPath140)">
  <g fill="none" opacity=".3" stroke="#000" stroke-linecap="round" stroke-miterlimit="10">
   <rect x="23.67" y="61.67" width="18" height="18"/>
   <rect x="23.67" y="92.33" width="18" height="18"/>
   <line x1="48.33" x2="75.67" y1="71" y2="71"/>
   <line x1="48.33" x2="75.67" y1="101" y2="101"/>
   <polyline points="27.67 67 30.33 72.33 42.33 54.33"/>
   <rect x="289.67" y="420.67" width="18" height="18"/>
   <rect x="289.67" y="451.33" width="18" height="18"/>
   <line x1="314.33" x2="341.67" y1="430" y2="430"/>
   <line x1="314.33" x2="341.67" y1="460" y2="460"/>
   <polyline points="293.67 426 296.33 431.33 308.33 413.33"/>
   <rect x="350" y="52" width="18" height="18"/>
   <rect x="350" y="82.67" width="18" height="18"/>
   <line x1="374.67" x2="402" y1="61.33" y2="61.33"/>
   <line x1="374.67" x2="402" y1="91.33" y2="91.33"/>
   <polyline points="354 57.33 356.67 62.67 368.67 44.67"/>
  </g>
  <g stroke="#263238">
   <g fill="none" stroke-linecap="round" stroke-linejoin="round">
    <line x1="470.52" x2="485.4" y1="448.86" y2="448.86"/>
    <line x1="25" x2="463.59" y1="448.86" y2="448.86"/>
   </g>
   <g stroke-miterlimit="10">
    <g fill="#92e3a9">
     <ellipse cx="79.51" cy="351.2" rx="11.65" ry="30.55"/>
     <ellipse transform="rotate(-72.37,106.69,329.5)" cx="106.67" cy="329.49" rx="21.77" ry="9.48"/>
     <path d="m30.24 401.46c-11.86-2-20.76-7.82-19.88-13s11.19-7.72 23-5.71 20.76 7.82 19.89 13-11.16 7.71-23.01 5.71z"/>
     <ellipse transform="rotate(-44.76,118.48,364.96)" cx="118.46" cy="364.94" rx="25.25" ry="11.65"/>
     <path d="m58.43 346.28c9.57 13.89 12.43 28.54 6.38 32.72s-18.73-3.71-28.3-17.6-12.43-28.53-6.38-32.71 18.73 3.7 28.3 17.59z"/>
    </g>
    <g fill="none" stroke-linecap="round">
     <line x1="80.33" x2="81.23" y1="380.22" y2="422.22"/>
     <line x1="79.24" x2="80.33" y1="339.84" y2="380.22"/>
     <line x1="79.32" x2="79.24" y1="333.25" y2="336.34"/>
     <path d="m64.76 377a117.35 117.35 0 0 1 11.51 44.08"/>
     <path d="m44.76 346.4a138 138 0 0 1 20 30.6"/>
     <path d="m38.46 339.74s1.21 1.1 3.19 3.21"/>
     <path d="m101.26 381.32a137.61 137.61 0 0 0-18.88 37.47"/>
     <path d="m114.66 365.92a109.65 109.65 0 0 0-13.4 15.4"/>
     <path d="m129 355a60.51 60.51 0 0 0-10.2 7.23"/>
     <path d="m100.77 347.4c-6.46 20.3-15.12 50.31-19.16 76.35"/>
     <path d="m104.7 335.35c-1.15 3.43-2.49 7.49-3.93 12"/>
     <path d="m108.72 323.7s-1.12 3.11-2.94 8.44"/>
     <path d="m52.69 392.94c8.06 3.05 15.93 8.95 19.76 20.12"/>
     <path d="m37.8 389.91a50.55 50.55 0 0 1 14.89 3"/>
     <path d="m28.15 390.15s1.44-0.21 3.8-0.3"/>
    </g>
    <path d="m131.69 401.46c11.86-2 20.76-7.82 19.88-13s-11.19-7.72-23-5.71-20.76 7.82-19.89 13 11.16 7.71 23.01 5.71z" fill="#92e3a9"/>
    <g fill="none" stroke-linecap="round">
     <path d="m109.5 392.84c-8.15 3-16.15 8.93-20 20.22"/>
     <path d="m125.38 389.85a51.62 51.62 0 0 0-15.88 3"/>
     <path d="m133.78 390.15s-0.94-0.14-2.57-0.24"/>
    </g>
   </g>
  </g>
  <path d="m109.33 448.75a56.62 56.62 0 0 0 5.5-24 49.55 49.55 0 0 0-2.2-14.71h-62a49.55 49.55 0 0 0-2.2 14.71 56.48 56.48 0 0 0 5.51 24z" fill="#263238"/>
  <path d="m49 416.88c-0.18 1.13-0.31 2.27-0.41 3.43h66.05c-0.1-1.16-0.24-2.3-0.42-3.43z" fill="#7a7a7a"/>
  <path d="m113.93 434.44c0.21-1.14 0.39-2.28 0.53-3.43h-65.69c0.13 1.15 0.31 2.29 0.52 3.43z" fill="#7a7a7a"/>
  <g fill="#8c8c8c">
   <path d="m56.41 424.9a2.68 2.68 0 1 1-2.67-2.68 2.68 2.68 0 0 1 2.67 2.68z"/>
   <path d="m69.77 424.9a2.67 2.67 0 1 1-2.67-2.68 2.67 2.67 0 0 1 2.67 2.68z"/>
   <path d="m83.14 424.9a2.68 2.68 0 1 1-2.67-2.68 2.68 2.68 0 0 1 2.67 2.68z"/>
   <path d="m96.5 424.9a2.67 2.67 0 1 1-2.67-2.68 2.67 2.67 0 0 1 2.67 2.68z"/>
   <path d="m109.87 424.9a2.68 2.68 0 1 1-2.67-2.68 2.68 2.68 0 0 1 2.67 2.68z"/>
  </g>
  <rect x="234.16" y="84.46" width="234.28" height="331.28" fill="#263238"/>
  <g stroke="#263238" stroke-linecap="round" stroke-linejoin="round">
   <g fill="#fff">
    <rect x="228.37" y="78.67" width="234.28" height="331.28"/>
    <rect x="238.24" y="111.55" width="212.91" height="60.01"/>
    <rect x="238.24" y="99.22" width="69.87" height="12.33"/>
    <rect x="381.27" y="99.22" width="69.87" height="12.33"/>
   </g>
   <line x1="238.24" x2="451.15" y1="131.28" y2="131.28" fill="none"/>
   <line x1="238.24" x2="451.15" y1="150.19" y2="150.19" fill="none"/>
   <rect x="238.24" y="190.04" width="212.91" height="60.01" fill="#fff"/>
   <g fill="none">
    <line x1="238.24" x2="451.15" y1="209.77" y2="209.77"/>
    <line x1="238.24" x2="451.15" y1="228.68" y2="228.68"/>
    <line x1="241.71" x2="267.6" y1="116.37" y2="116.37"/>
    <line x1="373.75" x2="399.64" y1="116.37" y2="116.37"/>
    <line x1="241.71" x2="267.6" y1="102.33" y2="102.33"/>
    <line x1="382.36" x2="408.25" y1="102.33" y2="102.33"/>
    <line x1="241.71" x2="267.6" y1="135.08" y2="135.08"/>
    <line x1="241.71" x2="267.6" y1="155.66" y2="155.66"/>
    <line x1="321.67" x2="347.55" y1="155.66" y2="155.66"/>
    <line x1="317.5" x2="369.27" y1="100.15" y2="100.15"/>
    <line x1="317.5" x2="369.27" y1="105.45" y2="105.45"/>
    <line x1="312.28" x2="324.02" y1="166.85" y2="166.85"/>
    <line x1="326.95" x2="338.69" y1="166.85" y2="166.85"/>
    <line x1="341.62" x2="353.36" y1="166.85" y2="166.85"/>
   </g>
   <rect x="238.24" y="262.66" width="212.91" height="60.01" fill="#fff"/>
  </g>
  <g fill="none" stroke-linecap="round" stroke-linejoin="round">
   <path d="m242.91 278.1s4-9.9 1.58-7.53-4.36 10.7 1.58 8.72 9.9-10.7 8.32-7.13-0.79 6.33 4 3.56 5.54-2.77 5.94-1.19 1.58 1.19 5.94-0.39 4 1.19 4 2.37 5.55 0.8 7.53 0 3.56-3.16 4-0.39 4.35 2.77 4.35 2.77h10.69" stroke="#92e3a9"/>
   <g stroke="#263238">
    <line x1="238.24" x2="451.15" y1="282.39" y2="282.39"/>
    <line x1="238.24" x2="451.15" y1="301.3" y2="301.3"/>
    <line x1="241.71" x2="267.6" y1="267.48" y2="267.48"/>
    <line x1="373.75" x2="399.64" y1="267.48" y2="267.48"/>
    <line x1="241.71" x2="267.6" y1="286.19" y2="286.19"/>
    <line x1="241.71" x2="267.6" y1="306.77" y2="306.77"/>
    <line x1="321.67" x2="347.55" y1="306.77" y2="306.77"/>
    <line x1="312.28" x2="324.02" y1="317.96" y2="317.96"/>
    <line x1="326.95" x2="338.69" y1="317.96" y2="317.96"/>
    <line x1="341.62" x2="353.36" y1="317.96" y2="317.96"/>
    <line x1="243.33" x2="304.21" y1="196.19" y2="196.19"/>
    <line x1="243.33" x2="280.74" y1="215.99" y2="215.99"/>
    <line x1="337.95" x2="375.36" y1="215.99" y2="215.99"/>
    <line x1="396.64" x2="434.05" y1="240.94" y2="240.94"/>
    <line x1="388.57" x2="425.98" y1="215.99" y2="215.99"/>
    <rect x="381.23" y="236.53" width="8.8" height="8.8"/>
    <line x1="335.75" x2="373.16" y1="240.94" y2="240.94"/>
    <rect x="320.35" y="236.53" width="8.8" height="8.8"/>
    <line x1="274.87" x2="312.28" y1="240.94" y2="240.94"/>
    <rect x="259.46" y="236.53" width="8.8" height="8.8"/>
    <line x1="425.65" x2="450.18" y1="334.09" y2="334.09"/>
    <line x1="328.29" x2="422.49" y1="334.09" y2="334.09"/>
    <line x1="267.6" x2="325.45" y1="334.09" y2="334.09"/>
    <line x1="239.66" x2="265.38" y1="334.09" y2="334.09"/>
    <line x1="396.57" x2="450.18" y1="339.78" y2="339.78"/>
    <line x1="294.15" x2="394.04" y1="339.78" y2="339.78"/>
    <line x1="239.66" x2="290.99" y1="339.78" y2="339.78"/>
    <line x1="410.48" x2="450.18" y1="345.47" y2="345.47"/>
    <line x1="325.13" x2="408.27" y1="345.47" y2="345.47"/>
    <line x1="276.45" x2="320.7" y1="345.47" y2="345.47"/>
    <line x1="239.66" x2="273.6" y1="345.47" y2="345.47"/>
    <line x1="432.29" x2="450.18" y1="351.16" y2="351.16"/>
    <line x1="253.05" x2="429.13" y1="351.16" y2="351.16"/>
    <line x1="239.66" x2="250.53" y1="351.16" y2="351.16"/>
    <line x1="436.4" x2="450.18" y1="356.85" y2="356.85"/>
    <line x1="392.46" x2="433.56" y1="356.85" y2="356.85"/>
    <line x1="325.13" x2="390.25" y1="356.85" y2="356.85"/>
    <line x1="262.22" x2="322.6" y1="356.85" y2="356.85"/>
    <line x1="239.66" x2="258.74" y1="356.85" y2="356.85"/>
    <line x1="425.34" x2="450.18" y1="362.54" y2="362.54"/>
    <line x1="345.68" x2="421.86" y1="362.54" y2="362.54"/>
    <line x1="294.15" x2="341.57" y1="362.54" y2="362.54"/>
    <line x1="239.66" x2="290.99" y1="362.54" y2="362.54"/>
    <line x1="388.98" x2="450.18" y1="368.24" y2="368.24"/>
    <line x1="267.6" x2="384.56" y1="368.24" y2="368.24"/>
    <line x1="239.66" x2="264.12" y1="368.24" y2="368.24"/>
    <line x1="241.86" x2="268.27" y1="385.44" y2="385.44"/>
    <line x1="372.43" x2="398.84" y1="385.44" y2="385.44"/>
    <line x1="274.87" x2="363.63" y1="385.44" y2="385.44"/>
    <line x1="406.17" x2="449.45" y1="385.44" y2="385.44"/>
   </g>
   <g stroke="#92e3a9">
    <path d="m245.16 207.31s4.08 0.94 5-3.77-2.83-2.2-2.83 0.31 1.26 5 6 1.26 3.45-3.14 6.28-0.32 0.31 3.46 6 1.26 6-1.26 5.65 0.63-1.57 0.94 3.77-0.94 7.85-3.46 7.22-1-2.83 3.14 1.25 0.32 6.6-11.93 3.14-5-4.71 6 0.32 5 6.59-4.4 6.59-1.89-4.08 4.09 0 2.52 5.65-3.14 5.65-1.57-3.77 4.39 1.57 1.88 6.91-5.34 6.91-3.14-0.95 1.57 0 2.2-0.95-1.26 1.88-0.32 1.57 2.83 5.65 1.26 3.77-3.77 6-1.57 0 5.34 6 2.51 7.53-1.25 9.42-0.94a27.41 27.41 0 0 0 4.71 0.31c1.25 0 0.94-1.25 4.08 0a12.49 12.49 0 0 0 6 1.26h3.58"/>
    <path d="m374.18 207.62a43.47 43.47 0 0 0 4.39-2.2c2.83-1.57 10.05-6.9 10.36-3.45s-7.85 7.85-6.9 4.08 6.59-1.88 10.67-0.31 5-0.32 10.05-0.32 4.39 1.57 6.9 2.2 1.57 0 6-1.88 1.25-11-1.57-4.71-3.77 8.79 2.82 5.65 4.71 0.63 5.65 0.63-0.63 0.31 3.14-1.26-0.94 0.63 1.89 1.26 4.39-2.52 6.9-3.46 2.83 1.89 2.83 1.89h2.51"/>
    <path d="m243.27 147s1.57-0.63 4.08-4.39-1.57-5-2.51-0.94-3.14 8.79 3.77 5.33 4.39-10 2.2-5-1.57 10.05 5 6.28 7.22-6 8.16-4.08-2.51 2.51 3.14 2.82 6.59-1.57 9.1-2.51 3.77 0 3.77 0a7.52 7.52 0 0 0 2.2 0.32c1.25 0 2.82-1 3.45 0s-6.28 2.19 1.89 0.94 10-6.6 10.67-2.51-5.65 7.53-5.65 3.76 3.77-7.53 9.73-4.08 5.65 4.4 8.79 5 8.16-2.82 8.16-2.82-0.31 0.31 1.57 1.25 1.26 0.95 4.71 0 0.63-0.31 5.34-0.94 6.9-0.31 5 1.26-7.22-0.63-0.31-1.88 7.84 0.94 7.84 1.88 1.89 1.25 3.46 0.63a23.43 23.43 0 0 1 4.71-0.95"/>
    <path d="m251.43 128.51a48.59 48.59 0 0 0 7.44-1.85c2.07-0.73 4-1.69 4.81-2.86 2.19-3.14-4.4-2.2-8.48 1.89s2.51 4.39 11 1.57 8.16-10.05 2.51-4.71-3.45 6.59 5.34 4.71 19.77-4.09 16.32-1-4.39 1.57 1.57 0.32 9.73-4.08 8.79-1.89-3.45 5 1.26 2.83 4.08 0 4.08 0c8.47-0.94 13.18-11.62 7.22-7.85s-6 8.79-0.63 8.48 10.36-5.34 7.85-2.83-6.59 4.4 2.19 2.2 11.62-6.91 11-3.77-0.94 2.83 2.2 2.83 8.79-4.4 6.91-1.26-2.83 3.45 0 2.83 6.9-2.83 8.16-2.83-2.51 3.45 1.25 3.14 11.62-5 11.62-5"/>
    <path d="m355 123.49s7.85 5.33 9.73 5.33"/>
    <polyline points="322.48 238.78 323.41 243.14 333.06 231.63"/>
   </g>
  </g>
  <g stroke="#263238" stroke-linecap="round" stroke-linejoin="round">
   <path d="m215.77 428.7 7.86 7.66s17.94 6.65 18.75 7.86 0 4.64 0 4.64h-41.32l1.09-16.46z" fill="#fff"/>
   <path d="m242.73 446.24h-41.49l-0.18 2.62h41.32a15.43 15.43 0 0 0 0.35-2.62z" fill="#fff"/>
   <path d="m130.87 297.21 5.67 67s-4.54 40.35-4.54 44.35-2 17-2 17l13.67 1.67 18.23-69 2.67-28 22.33 50.33 15.28 51.86 13.62-3.7-10.56-66.49-19.59-62.67-1.41-7.33-53.34 0.66z" fill="#263238"/>
   <path d="m130 425.56-4 10.92s-7.45 8.66-6.85 10.28a3.34 3.34 0 0 0 2 2h18.54a2.38 2.38 0 0 0 1.81-2 25.51 25.51 0 0 0 0.4-4.44l1.75-15.09z" fill="#fff"/>
   <path d="m141.49 446.76q0.09-0.39 0.15-0.81h-22.43a1.36 1.36 0 0 0-0.09 0.81 3.34 3.34 0 0 0 2 2h18.54a2.38 2.38 0 0 0 1.83-2z" fill="#fff"/>
   <path d="m149.87 201.29s-17.5 1-22.75 4.5-30.75 24.5-30.75 24.5l1.31 21.84 28.19-20.34 4 70.5 55.75-2.75-1.25-39.25-0.75-1.25s18 18.5 24.75 18 8.25-11.75 3.25-18.75-12.5-17-17.75-24.5-5.25-18.5-13-23.75-21.25-8.25-21.25-8.25z" fill="#92e3a9"/>
   <g fill="#fff">
    <line x1="184.37" x2="183.28" y1="260.29" y2="237.72"/>
    <line x1="186.85" x2="187.49" y1="246.71" y2="242.84"/>
    <line x1="184.78" x2="186.39" y1="259.11" y2="249.49"/>
    <line x1="161.49" x2="164" y1="273.53" y2="276.27"/>
    <line x1="134.49" x2="159.91" y1="244.05" y2="271.8"/>
    <line x1="143.62" x2="153.46" y1="262.11" y2="271.76"/>
    <line x1="138.7" x2="141.53" y1="257.3" y2="260.07"/>
   </g>
   <polyline points="134.19 226.28 125.87 231.79 133.89 231.1" fill="none"/>
   <path d="m148.14 180.9a87.73 87.73 0 0 1 0.9 11.52 82.29 82.29 0 0 1-0.9 11.29s11.29 17.17 13.32 18.52 3.39-4.52 3.39-7 0.23-9.71 0.23-9.71v-8.13z" fill="#b0b0b0"/>
   <path d="m165 206.63v-9.24l-3.84-3.73-9.37-3.79z" fill="#263238"/>
   <path d="m175.69 158.31s2.71 8.81 2.94 12.42-1.81 6.33-1.81 7.46 3.16 5.64 3.16 7.23-3.84 3.61-3.84 3.61-1.58 8.36-5.64 11.07-13.33-3.84-16.94-7.23a21.74 21.74 0 0 1-6.33-10.16c-1.13-3.62 0.23-12 2.49-18.75a15.36 15.36 0 0 1 12.42-10.84c5.19-0.91 12.86 2.03 13.55 5.19z" fill="#b0b0b0"/>
  </g>
  <path d="m172.3 179.66c0 1.06-0.35 1.92-0.79 1.92s-0.79-0.86-0.79-1.92 0.36-1.92 0.79-1.92 0.79 0.86 0.79 1.92z" fill="#263238"/>
  <g stroke="#263238" stroke-linecap="round" stroke-linejoin="round">
   <path d="m170 175.7s3.17-1.58 5 0.46" fill="none"/>
   <path d="m171.85 192.42s-4.74-1.58-5-5" fill="none"/>
   <path d="m149 180.07s4.29 0.68 4.74-1.58-2.26-2.71 0.68-4.74 5-2 5.87-3.39-0.36-3.54 1.22-7.15 3.48-2.68 8-2a20.45 20.45 0 0 1 7.49 2.6s2.78-5.88-0.16-9.27-12.27-6.83-22.66-3.67-13.54 10.68-14.44 18.81 2.26 12.65 5.26 13.55 4-3.16 4-3.16z" fill="#263238"/>
   <path d="m151.3 179.54s-2.71-8.35-5-4.06-1.13 7.9 1.13 9.26a2.07 2.07 0 0 0 3.16-1.13" fill="#b0b0b0"/>
   <path d="m201.22 265.08c2.88-5.29 15.63-20.86 15.63-20.86l8.31 4s-6.29 22.92-9.31 26.19-6.34 4.38-9.87 1.86" fill="#b0b0b0"/>
   <path d="m206.16 276.12a7.9 7.9 0 0 0 9.87-1.86c0.91-1 2.12-3.77 3.36-7.16a13 13 0 0 1-14.6-7.32 34.69 34.69 0 0 0-3.87 6.17c-0.1 0.31 0.73 4.14 0.68 4.42" fill="#92e3a9"/>
   <g fill="#fff">
    <path d="m300.72 279.21a1.44 1.44 0 0 1-0.57-0.11l-10.67-4.43a1.5 1.5 0 1 1 1.15-2.77l10.67 4.43a1.5 1.5 0 0 1-0.58 2.88z"/>
    <path d="m267.41 271.45-237.16-106.45a7.51 7.51 0 0 1-3.77-9.92 7.5 7.5 0 0 1 9.91-3.77l237.16 106.45z"/>
    <path d="m62.44 163-26-11.69a7.5122 7.5122 0 0 0-6.19 13.69l25.4 11.48z"/>
    <polygon points="297.29 274.02 295.81 277.18 267.41 271.45 273.55 257.76"/>
   </g>
   <path d="m56.14 160.19-19.75-8.86a7.5 7.5 0 0 0-6.14 13.67l18.92 8.49z" fill="#92e3a9"/>
   <path d="m80.12 175.79s-2 10.75-0.5 12.75 9.75 9.5 9.75 9.5-3.25 43.75-2.5 47.75 9.25 7 12 6.25 4.75-3.75 7.25-9.25-8.75-44-8.75-45.75-5.25-15.25-5.25-15.25 4.25-3 5-4-3-0.25-3.75-0.25a41.65 41.65 0 0 1-7.25-1.5c-1-0.5-6-0.25-6-0.25z" fill="#b0b0b0"/>
   <g fill="#fff">
    <path d="m92.22 177.48s-3.54 0.89-3.41 1.77 0.13 6.45 0.13 6.45"/>
    <path d="m86.79 176.6s-3-0.13-3 1.52v6.95"/>
    <line x1="80.08" x2="80.59" y1="176.47" y2="185.07"/>
   </g>
   <path d="m98.87 252c2.75-0.75 4.75-3.75 7.25-9.25 0.95-2.07-0.07-8.84-1.69-16.56a18.75 18.75 0 0 1-17.05 2c-0.49 8.59-0.8 16.06-0.51 17.61 0.75 3.99 9.25 6.99 12 6.2z" fill="#92e3a9"/>
   <g fill="#b0b0b0">
    <path d="m216.76 232.24a5.53 5.53 0 0 1 3.71-1.3c2 0.19 2.41 3.16 2.22 5.75s-3 3.16-3.34 1.49-0.74-4.27-0.74-4.27z"/>
    <path d="m222.32 232.06a2.94 2.94 0 0 1 3.53 1.67c1.11 2.41-0.19 5.56-1.49 5.75s-1.67-2.79-1.67-2.79z"/>
    <path d="m225.85 233.73a1.8 1.8 0 0 1 2.59 1.29c0.75 2.23 1.49 5-0.18 5s-2.23-3-2.23-3z"/>
    <path d="m228.44 235s2.42-0.18 3 1.3 1.67 4.27-0.37 4.27c-0.55 0-1.85-2.6-1.85-2.6z"/>
   </g>
  </g>
 </g>
</svg>
