<?xml version="1.0" encoding="UTF-8" standalone="no"?>
<!-- Generator: Adobe Illustrator 27.5.0, SVG Export Plug-In . SVG Version: 6.00 Build 0)  -->

<svg
   version="1.1"
   x="0px"
   y="0px"
   viewBox="0 0 604.19525 414.806"
   xml:space="preserve"
   id="svg127"
   sodipodi:docname="program-img_inc.svg"
   width="604.19525"
   height="414.806"
   inkscape:version="1.3.2 (091e20e, 2023-11-25, custom)"
   xmlns:inkscape="http://www.inkscape.org/namespaces/inkscape"
   xmlns:sodipodi="http://sodipodi.sourceforge.net/DTD/sodipodi-0.dtd"
   xmlns="http://www.w3.org/2000/svg"
   xmlns:svg="http://www.w3.org/2000/svg"><defs
   id="defs127"><clipPath
     clipPathUnits="userSpaceOnUse"
     id="clipPath127"><rect
       style="fill:#000000;fill-opacity:0.40884"
       id="rect128"
       width="543.75"
       height="372.1875"
       x="70.813751"
       y="40.644501" /></clipPath></defs><sodipodi:namedview
   id="namedview127"
   pagecolor="#ffffff"
   bordercolor="#000000"
   borderopacity="0.25"
   inkscape:showpageshadow="2"
   inkscape:pageopacity="0.0"
   inkscape:pagecheckerboard="0"
   inkscape:deskcolor="#d1d1d1"
   inkscape:zoom="1.0666667"
   inkscape:cx="303.75"
   inkscape:cy="210.46875"
   inkscape:window-width="1600"
   inkscape:window-height="837"
   inkscape:window-x="-8"
   inkscape:window-y="-8"
   inkscape:window-maximized="1"
   inkscape:current-layer="svg127" />
<g
   id="BACKGROUND"
   transform="translate(-70.81375,-39.707)"
   clip-path="url(#clipPath127)">
	<rect
   style="fill:#ffffff"
   width="750"
   height="500"
   id="rect1"
   x="0"
   y="0" />
</g>
<g
   id="OBJECTS"
   transform="matrix(1,0,0,1.0008469,-70.81375,-39.740626)">
	<g
   id="g33">
		<g
   id="g1">
			<path
   style="fill:#dfe3e8"
   d="m 658.125,267.201 c 2.461,-4.331 4.474,-9.004 5.925,-13.997 1.451,-4.992 2.256,-10.017 2.499,-14.992 l -13.69,-1.896 c 0.113,-4.618 -0.413,-9.167 -1.505,-13.545 l 12.963,-4.841 c -2.707,-9.826 -7.697,-18.905 -14.543,-26.456 l -11.034,8.35 c -3.11,-3.268 -6.669,-6.151 -10.629,-8.53 l 5.736,-12.574 c -4.331,-2.461 -9.004,-4.474 -13.997,-5.925 -4.993,-1.451 -10.017,-2.256 -14.992,-2.499 l -1.896,13.69 c -4.618,-0.113 -9.167,0.413 -13.545,1.505 l -4.841,-12.962 c -9.826,2.706 -18.905,7.697 -26.456,14.543 l 8.35,11.034 c -3.269,3.111 -6.151,6.669 -8.531,10.629 l -12.574,-5.736 c -2.461,4.331 -4.474,9.004 -5.925,13.997 -1.451,4.993 -2.256,10.018 -2.499,14.992 l 13.69,1.896 c -0.113,4.618 0.413,9.167 1.506,13.545 l -12.963,4.84 c 2.707,9.826 7.697,18.906 14.543,26.456 l 11.034,-8.349 c 3.111,3.268 6.67,6.151 10.629,8.53 l -5.736,12.574 c 4.331,2.461 9.004,4.474 13.997,5.925 4.993,1.451 10.017,2.255 14.993,2.499 l 1.895,-13.69 c 4.618,0.113 9.168,-0.413 13.545,-1.505 l 4.841,12.963 c 9.826,-2.706 18.905,-7.697 26.456,-14.543 l -8.349,-11.034 c 3.268,-3.111 6.151,-6.67 8.53,-10.629 z m -65.516,-0.661 c -17.365,-5.046 -27.351,-23.213 -22.305,-40.578 5.046,-17.365 23.213,-27.351 40.578,-22.305 17.365,5.046 27.351,23.213 22.305,40.578 -5.046,17.365 -23.213,27.351 -40.578,22.305 z m 2.399,-8.255 c -12.805,-3.721 -20.17,-17.118 -16.448,-29.923 3.721,-12.805 17.118,-20.169 29.923,-16.448 12.805,3.721 20.169,17.118 16.448,29.923 -3.721,12.805 -17.118,20.169 -29.923,16.448 z"
   id="path1" />
		</g>
		<g
   id="g4">
			<path
   style="fill:#a8aeba"
   d="m 161.035,70.172 c 20.404,20.404 20.404,53.603 0,74.007 -20.404,20.404 -53.603,20.404 -74.007,0 -20.404,-20.404 -20.404,-53.604 0,-74.007 20.404,-20.404 53.603,-20.404 74.007,0 m 0.627,-0.627 c -20.783,-20.783 -54.478,-20.783 -75.261,0 -20.783,20.783 -20.783,54.478 0,75.261 20.783,20.783 54.478,20.783 75.261,0 20.782,-20.783 20.782,-54.479 0,-75.261 z"
   id="path2" />
			<path
   style="fill:#a8aeba"
   d="m 151.145,80.061 c 14.975,14.975 14.975,39.254 0,54.228 -14.975,14.975 -39.254,14.975 -54.228,0 -14.975,-14.975 -14.975,-39.254 0,-54.228 14.975,-14.975 39.254,-14.975 54.228,0 m 0.689,-0.688 c -15.33,-15.33 -40.275,-15.33 -55.605,0 -15.33,15.33 -15.33,40.275 0,55.605 15.33,15.33 40.275,15.33 55.605,0 15.33,-15.331 15.33,-40.275 0,-55.605 z"
   id="path3" />
			<path
   style="fill:#dfe3e8"
   d="m 149.754,81.452 c 14.206,14.206 14.206,37.239 0,51.446 l 13.488,13.488 c 21.656,-21.656 21.656,-56.767 0,-78.422 -21.656,-21.656 -56.767,-21.656 -78.423,0 l 13.489,13.489 c 14.207,-14.207 37.24,-14.207 51.446,-0.001 z"
   id="path4" />
		</g>
		<g
   id="g5">
			<path
   style="fill:#dfe3e8"
   d="m 121.763,133.654 v -6.739 c -3.87,-0.066 -7.874,-1.268 -10.209,-2.936 l 1.601,-4.471 c 2.402,1.602 5.872,2.87 9.609,2.87 4.738,0 7.94,-2.736 7.94,-6.54 0,-3.67 -2.603,-5.938 -7.54,-7.94 -6.806,-2.669 -11.01,-5.738 -11.01,-11.544 0,-5.539 3.937,-9.742 10.076,-10.743 v -6.739 h 4.137 v 6.472 c 4.004,0.134 6.74,1.201 8.675,2.335 l -1.668,4.404 c -1.401,-0.801 -4.137,-2.269 -8.407,-2.269 -5.138,0 -7.073,3.069 -7.073,5.739 0,3.47 2.469,5.205 8.274,7.607 6.873,2.802 10.343,6.272 10.343,12.211 0,5.271 -3.67,10.209 -10.543,11.343 v 6.939 h -4.205 z"
   id="path5" />
		</g>
		<g
   id="g18">
			<path
   style="fill:#bacecd"
   d="m 570.502,85.426 h -26.549 c -0.691,0 -1.252,-0.561 -1.252,-1.252 V 57.625 c 0,-0.692 0.561,-1.252 1.252,-1.252 h 26.549 c 0.692,0 1.252,0.561 1.252,1.252 v 26.549 c 0,0.691 -0.561,1.252 -1.252,1.252 z"
   id="path6" />
			<path
   style="fill:#bacecd"
   d="m 607.68,85.426 h -26.549 c -0.692,0 -1.252,-0.561 -1.252,-1.252 V 57.625 c 0,-0.692 0.561,-1.252 1.252,-1.252 h 26.549 c 0.691,0 1.252,0.561 1.252,1.252 v 26.549 c 0,0.691 -0.56,1.252 -1.252,1.252 z"
   id="path7" />
			<path
   style="fill:#bacecd"
   d="M 644.859,85.426 H 618.31 c -0.692,0 -1.252,-0.561 -1.252,-1.252 V 57.625 c 0,-0.692 0.561,-1.252 1.252,-1.252 h 26.549 c 0.692,0 1.252,0.561 1.252,1.252 v 26.549 c 0,0.691 -0.561,1.252 -1.252,1.252 z"
   id="path8" />
			<path
   style="fill:#bacecd"
   d="m 570.502,123.241 h -26.549 c -0.691,0 -1.252,-0.561 -1.252,-1.252 V 95.44 c 0,-0.692 0.561,-1.252 1.252,-1.252 h 26.549 c 0.692,0 1.252,0.561 1.252,1.252 v 26.549 c 0,0.691 -0.561,1.252 -1.252,1.252 z"
   id="path9" />
			<path
   style="fill:#bacecd"
   d="m 607.68,123.241 h -26.549 c -0.692,0 -1.252,-0.561 -1.252,-1.252 V 95.44 c 0,-0.692 0.561,-1.252 1.252,-1.252 h 26.549 c 0.691,0 1.252,0.561 1.252,1.252 v 26.549 c 0,0.691 -0.56,1.252 -1.252,1.252 z"
   id="path10" />
			<path
   style="fill:#bacecd"
   d="M 644.859,123.241 H 618.31 c -0.692,0 -1.252,-0.561 -1.252,-1.252 V 95.44 c 0,-0.692 0.561,-1.252 1.252,-1.252 h 26.549 c 0.692,0 1.252,0.561 1.252,1.252 v 26.549 c 0,0.691 -0.561,1.252 -1.252,1.252 z"
   id="path11" />
			<g
   id="g12">
				<path
   style="fill:#dfe3e8"
   d="m 553.714,80.279 c -0.386,0 -0.758,-0.149 -1.037,-0.416 l -6.643,-6.357 c -0.599,-0.573 -0.619,-1.522 -0.047,-2.121 0.572,-0.599 1.521,-0.62 2.121,-0.046 l 5.533,5.295 13.18,-14.437 c 0.559,-0.612 1.507,-0.655 2.119,-0.097 0.611,0.559 0.654,1.507 0.096,2.119 L 554.821,79.79 c -0.271,0.298 -0.653,0.474 -1.057,0.488 -0.016,10e-4 -0.034,10e-4 -0.05,10e-4 z"
   id="path12" />
			</g>
			<g
   id="g13">
				<path
   style="fill:#dfe3e8"
   d="m 590.62,118.318 c -0.386,0 -0.758,-0.149 -1.037,-0.416 l -6.643,-6.357 c -0.599,-0.573 -0.619,-1.522 -0.047,-2.121 0.572,-0.599 1.521,-0.62 2.121,-0.046 l 5.533,5.295 13.18,-14.437 c 0.559,-0.612 1.507,-0.655 2.119,-0.097 0.611,0.559 0.654,1.507 0.096,2.119 l -14.215,15.571 c -0.271,0.298 -0.653,0.474 -1.057,0.488 -0.016,0.001 -0.034,0.001 -0.05,0.001 z"
   id="path13" />
			</g>
			<g
   id="g14">
				<path
   style="fill:#dfe3e8"
   d="m 627.526,80.279 c -0.386,0 -0.758,-0.149 -1.037,-0.416 l -6.643,-6.357 c -0.599,-0.573 -0.619,-1.522 -0.047,-2.121 0.572,-0.599 1.521,-0.62 2.121,-0.046 l 5.533,5.295 13.18,-14.437 c 0.559,-0.612 1.507,-0.655 2.119,-0.097 0.611,0.559 0.654,1.507 0.096,2.119 L 628.633,79.79 c -0.271,0.298 -0.653,0.474 -1.057,0.488 -0.016,10e-4 -0.034,10e-4 -0.05,10e-4 z"
   id="path14" />
			</g>
			<g
   id="g15">
				<path
   style="fill:#dfe3e8"
   d="m 557.228,120.997 c -6.598,0 -11.965,-5.367 -11.965,-11.964 0,-6.597 5.367,-11.964 11.965,-11.964 6.597,0 11.964,5.367 11.964,11.964 0,6.597 -5.368,11.964 -11.964,11.964 z m 0,-20.929 c -4.943,0 -8.965,4.021 -8.965,8.964 0,4.943 4.021,8.964 8.965,8.964 4.942,0 8.964,-4.021 8.964,-8.964 0,-4.943 -4.022,-8.964 -8.964,-8.964 z"
   id="path15" />
			</g>
			<g
   id="g16">
				<path
   style="fill:#dfe3e8"
   d="m 594.406,82.864 c -6.598,0 -11.965,-5.367 -11.965,-11.964 0,-6.597 5.367,-11.964 11.965,-11.964 6.597,0 11.964,5.367 11.964,11.964 0,6.597 -5.367,11.964 -11.964,11.964 z m 0,-20.929 c -4.943,0 -8.965,4.021 -8.965,8.964 0,4.943 4.022,8.964 8.965,8.964 4.942,0 8.964,-4.021 8.964,-8.964 0,-4.942 -4.021,-8.964 -8.964,-8.964 z"
   id="path16" />
			</g>
			<g
   id="g17">
				<path
   style="fill:#dfe3e8"
   d="m 631.585,120.679 c -6.598,0 -11.965,-5.367 -11.965,-11.964 0,-6.597 5.367,-11.964 11.965,-11.964 6.597,0 11.964,5.367 11.964,11.964 0,6.597 -5.367,11.964 -11.964,11.964 z m 0,-20.929 c -4.943,0 -8.965,4.021 -8.965,8.964 0,4.943 4.021,8.964 8.965,8.964 4.942,0 8.964,-4.021 8.964,-8.964 0,-4.943 -4.022,-8.964 -8.964,-8.964 z"
   id="path17" />
			</g>
		</g>
		<g
   id="g20">
			<rect
   x="573.625"
   y="137.24899"
   style="fill:#dfe3e8"
   width="72.486"
   height="3.9809999"
   id="rect18" />
			<rect
   x="573.625"
   y="144.16499"
   style="fill:#dfe3e8"
   width="72.486"
   height="3.9809999"
   id="rect19" />
			<rect
   x="573.625"
   y="151.08099"
   style="fill:#dfe3e8"
   width="72.486"
   height="3.9809999"
   id="rect20" />
		</g>
		<g
   id="g24">
			<rect
   x="90.864998"
   y="171.93201"
   style="fill:#bacecd"
   width="17.885"
   height="123.872"
   id="rect21" />
			<rect
   x="116.732"
   y="195.20799"
   style="fill:#bacecd"
   width="17.885"
   height="100.596"
   id="rect22" />
			<rect
   x="140.22501"
   y="227.233"
   style="fill:#bacecd"
   width="17.885"
   height="68.571999"
   id="rect23" />
			<rect
   x="90.864998"
   y="299.51199"
   style="fill:#bacecd"
   width="67.246002"
   height="3.007"
   id="rect24" />
		</g>
		<path
   style="fill:none;stroke:#a8aeba;stroke-miterlimit:10"
   d="m 158.111,178.341 c 0,1.845 -1.496,3.341 -3.341,3.341 -1.845,0 -3.341,-1.496 -3.341,-3.341 0,-1.845 1.496,-3.341 3.341,-3.341 1.845,0 3.341,1.496 3.341,3.341 z"
   id="path24" />
		<circle
   style="fill:none;stroke:#a8aeba;stroke-miterlimit:10"
   cx="308.57101"
   cy="383"
   r="4"
   id="circle24" />
		<path
   style="fill:none;stroke:#a8aeba;stroke-miterlimit:10"
   d="m 582.441,314.183 c 0,2.435 -1.974,4.408 -4.408,4.408 -2.434,0 -4.409,-1.974 -4.409,-4.408 0,-2.435 1.974,-4.408 4.409,-4.408 2.435,0 4.408,1.973 4.408,4.408 z"
   id="path25" />
		<path
   style="fill:none;stroke:#a8aeba;stroke-miterlimit:10"
   d="m 465.823,378.865 c 0,2.45 -1.986,4.436 -4.436,4.436 -2.45,0 -4.436,-1.986 -4.436,-4.436 0,-2.45 1.986,-4.436 4.436,-4.436 2.45,0 4.436,1.986 4.436,4.436 z"
   id="path26" />
		<polygon
   style="fill:#dfe3e8"
   points="282.714,407.429 292.857,407.429 287.429,399.9 "
   id="polygon26" />
		<polygon
   style="fill:#dfe3e8"
   points="641.04,308.544 651.182,308.544 645.754,301.015 "
   id="polygon27" />
		<polygon
   style="fill:#dfe3e8"
   points="547.29,149.285 557.433,149.285 552.005,141.756 "
   id="polygon28" />
		<polygon
   style="fill:#dfe3e8"
   points="439.597,413.643 449.739,413.643 444.311,406.114 "
   id="polygon29" />
		<polygon
   style="fill:#dfe3e8"
   points="154.597,213.284 164.74,213.284 159.311,205.755 "
   id="polygon30" />
		<polygon
   style="fill:#dfe3e8"
   points="85.793,322.553 95.936,322.553 90.507,315.024 "
   id="polygon31" />
		<path
   style="fill:#dfe3e8"
   d="m 101.923,400.617 h -9.354 v -9.358 c 0,-1.005 -0.814,-1.819 -1.819,-1.819 -1.005,0 -1.819,0.814 -1.819,1.819 v 9.358 h -9.354 c -1.006,0 -1.819,0.814 -1.819,1.819 0,1.006 0.813,1.819 1.819,1.819 h 9.354 v 9.354 c 0,1.005 0.814,1.819 1.819,1.819 1.005,0 1.819,-0.814 1.819,-1.819 v -9.354 h 9.354 c 1.005,0 1.819,-0.813 1.819,-1.819 0,-1.005 -0.814,-1.819 -1.819,-1.819 z"
   id="path31" />
		<path
   style="fill:#dfe3e8"
   d="m 673.492,165.769 h -7.801 v -7.804 c 0,-0.839 -0.679,-1.517 -1.517,-1.517 -0.838,0 -1.517,0.678 -1.517,1.517 v 7.804 h -7.801 c -0.839,0 -1.517,0.678 -1.517,1.517 0,0.838 0.678,1.517 1.517,1.517 h 7.801 v 7.801 c 0,0.838 0.678,1.517 1.517,1.517 0.838,0 1.517,-0.679 1.517,-1.517 v -7.801 h 7.801 c 0.839,0 1.517,-0.678 1.517,-1.517 0,-0.838 -0.678,-1.517 -1.517,-1.517 z"
   id="path32" />
		<path
   style="fill:#dfe3e8"
   d="m 196.228,66.894 h -5.052 V 61.84 c 0,-0.543 -0.439,-0.982 -0.982,-0.982 -0.543,0 -0.982,0.439 -0.982,0.982 v 5.054 h -5.052 c -0.543,0 -0.982,0.439 -0.982,0.982 0,0.543 0.439,0.982 0.982,0.982 h 5.052 v 5.052 c 0,0.543 0.439,0.982 0.982,0.982 0.543,0 0.982,-0.439 0.982,-0.982 v -5.052 h 5.052 c 0.543,0 0.982,-0.439 0.982,-0.982 0,-0.543 -0.439,-0.982 -0.982,-0.982 z"
   id="path33" />
	</g>
	<g
   id="g127">
		<g
   id="g51">
			<g
   id="g42">
				<g
   id="g41">
					<path
   style="fill:#548282"
   d="m 135.283,392.577 c 1.506,-19.913 -0.172,-39.444 7.414,-58.314 2.153,-5.356 7.059,-13.804 13.844,-14.093 10.479,-0.446 4.063,20.608 2.164,28.486 -1.221,5.065 -3.041,10.105 -4.933,14.95 -3.353,8.59 -8.396,20.6 -12.206,28.97"
   id="path34" />
					<path
   style="fill:#4a7373"
   d="m 129.842,392.577 c -3.299,-8.442 -6.527,-16.911 -9.791,-25.367 -2.895,-7.499 -6.263,-14.833 -8.601,-22.537 -1.78,-5.864 -6.381,-19.303 0.354,-23.434 11.994,-7.356 21.579,21.108 22.844,31.217 1.668,13.324 1.308,26.727 1.507,40.12"
   id="path35" />
					<path
   style="fill:#548282"
   d="m 120.312,392.577 c 0,0 -7.009,-8.953 -10.17,-13.152 -7.062,-9.379 -15.768,-19.566 -14.468,-30.109 0.299,-2.427 1.188,-5.128 3.626,-6.563 1.491,-0.877 3.342,-1.121 5.035,-0.96 5.738,0.547 10.879,8.879 13.46,13.151 5.055,8.366 12.884,37.632 12.884,37.632"
   id="path36" />
					<path
   style="fill:none;stroke:#dee0e0;stroke-miterlimit:10"
   d="m 114.95,327.141 c 8.555,17.302 16.905,49.341 17.11,65.436"
   id="path37" />
					<path
   style="fill:none;stroke:#ffffff;stroke-miterlimit:10"
   d="m 101.651,347.011 c 7.527,14.461 22.837,45.565 22.837,45.565"
   id="path38" />
					<path
   style="fill:none;stroke:#ffffff;stroke-miterlimit:10"
   d="m 156.105,324.75 c -6.143,13.698 -14.561,43.391 -17.951,67.867"
   id="path39" />
					<path
   style="fill:#4a7373"
   d="m 141.862,392.577 c 0,0 3.503,-15.606 5.927,-24.464 2.637,-9.633 11.262,-24.377 20.328,-28.566 2.087,-0.964 4.602,-1.627 6.621,-0.526 1.234,0.673 2.075,1.922 2.53,3.251 1.543,4.507 -6.006,18.737 -8.602,22.731 -5.084,7.821 -12.365,20.247 -18.138,27.575"
   id="path40" />
					<path
   style="fill:none;stroke:#dfe3e8;stroke-miterlimit:10"
   d="m 173.056,342.683 c -10.719,9.307 -25.058,38.981 -29.067,49.894"
   id="path41" />
				</g>
				<polygon
   style="fill:#bacecd"
   points="122.206,444.866 113.111,390.257 156.105,390.257 147.129,444.866 "
   id="polygon41" />
			</g>
			<g
   id="g50">
				<g
   id="g49">
					<path
   style="fill:#548282"
   d="m 614.823,392.577 c 1.506,-19.913 -0.172,-39.444 7.414,-58.314 2.153,-5.356 7.059,-13.804 13.844,-14.093 10.479,-0.446 4.063,20.608 2.164,28.486 -1.221,5.065 -3.041,10.105 -4.933,14.95 -3.353,8.59 -8.396,20.6 -12.206,28.97"
   id="path42" />
					<path
   style="fill:#4a7373"
   d="m 609.382,392.577 c -3.299,-8.442 -6.527,-16.911 -9.791,-25.367 -2.895,-7.499 -6.263,-14.833 -8.601,-22.537 -1.78,-5.864 -6.381,-19.303 0.354,-23.434 11.994,-7.356 21.579,21.108 22.844,31.217 1.668,13.324 1.308,26.727 1.507,40.12"
   id="path43" />
					<path
   style="fill:#548282"
   d="m 599.852,392.577 c 0,0 -7.009,-8.953 -10.17,-13.152 -7.062,-9.379 -15.768,-19.566 -14.468,-30.109 0.299,-2.427 1.188,-5.128 3.626,-6.563 1.491,-0.877 3.342,-1.121 5.035,-0.96 5.738,0.547 10.878,8.879 13.46,13.151 5.055,8.366 12.883,37.632 12.883,37.632"
   id="path44" />
					<path
   style="fill:none;stroke:#dee0e0;stroke-miterlimit:10"
   d="m 594.49,327.141 c 8.555,17.302 16.905,49.341 17.11,65.436"
   id="path45" />
					<path
   style="fill:none;stroke:#ffffff;stroke-miterlimit:10"
   d="m 581.19,347.011 c 7.528,14.461 22.837,45.565 22.837,45.565"
   id="path46" />
					<path
   style="fill:none;stroke:#ffffff;stroke-miterlimit:10"
   d="m 635.644,324.75 c -6.143,13.698 -14.561,43.391 -17.951,67.867"
   id="path47" />
					<path
   style="fill:#4a7373"
   d="m 621.402,392.577 c 0,0 3.502,-15.606 5.927,-24.464 2.637,-9.633 11.262,-24.377 20.328,-28.566 2.087,-0.964 4.602,-1.627 6.621,-0.526 1.234,0.673 2.075,1.922 2.53,3.251 1.543,4.507 -6.006,18.737 -8.602,22.731 -5.084,7.821 -12.365,20.247 -18.138,27.575"
   id="path48" />
					<path
   style="fill:none;stroke:#dfe3e8;stroke-miterlimit:10"
   d="m 652.596,342.683 c -10.719,9.307 -25.058,38.981 -29.067,49.894"
   id="path49" />
				</g>
				<polygon
   style="fill:#bacecd"
   points="601.746,444.866 592.651,390.257 635.644,390.257 626.669,444.866 "
   id="polygon49" />
			</g>
		</g>
		<g
   id="g126">
			<g
   id="g125">
				<g
   id="g52">
					<path
   style="fill:#dfe3e8"
   d="M 667.061,454.513 H 82.082 c -4.306,0 -7.797,-2.239 -7.797,-5 v 0 c 0,-2.762 3.491,-5 7.797,-5 H 667.06 c 4.306,0 7.796,2.238 7.796,5 v 0 c 10e-4,2.762 -3.489,5 -7.795,5 z"
   id="path51" />
				</g>
				<g
   id="g67">
					<rect
   x="211.16701"
   y="56.373001"
   style="fill:#dfe3e8"
   width="321.75601"
   height="304.37299"
   id="rect52" />
					<g
   id="g63">
						<g
   id="g53">
							<path
   style="fill:#ffffff"
   d="m 296.463,343.828 h -68.105 v -68.107 h 68.105 z m -64.847,-3.258 h 61.589 v -61.591 h -61.589 z"
   id="path52" />
						</g>
						<g
   id="g54">
							<path
   style="fill:#ffffff"
   d="m 361.31,278.979 h -68.105 v -68.104 h 68.105 z m -64.847,-3.258 h 61.589 v -61.587 h -61.589 z"
   id="path53" />
						</g>
						<g
   id="g55">
							<path
   style="fill:#ffffff"
   d="m 426.156,278.979 h -68.104 v -68.104 h 68.104 z m -64.846,-3.258 h 61.587 V 214.134 H 361.31 Z"
   id="path54" />
						</g>
						<g
   id="g56">
							<path
   style="fill:#ffffff"
   d="M 361.31,214.133 H 293.205 V 146.03 h 68.105 z m -64.847,-3.258 h 61.589 v -61.587 h -61.589 z"
   id="path55" />
						</g>
						<g
   id="g57">
							<path
   style="fill:#ffffff"
   d="m 361.31,343.828 h -68.105 v -68.107 h 68.105 z m -64.847,-3.258 h 61.589 v -61.591 h -61.589 z"
   id="path56" />
						</g>
						<g
   id="g58">
							<path
   style="fill:#ffffff"
   d="m 426.156,343.828 h -68.104 v -68.107 h 68.104 z M 361.31,340.57 h 61.587 V 278.979 H 361.31 Z"
   id="path57" />
						</g>
						<g
   id="g59">
							<path
   style="fill:#ffffff"
   d="m 491.005,343.828 h -68.108 v -68.107 h 68.108 z m -64.849,-3.258 h 61.591 v -61.591 h -61.591 z"
   id="path58" />
						</g>
						<g
   id="g60">
							<path
   style="fill:#ffffff"
   d="m 296.463,278.979 h -68.105 v -68.104 h 68.105 z m -64.847,-3.258 h 61.589 v -61.587 h -61.589 z"
   id="path59" />
						</g>
						<g
   id="g61">
							<path
   style="fill:#ffffff"
   d="M 296.463,214.133 H 228.358 V 146.03 h 68.105 z m -64.847,-3.258 h 61.589 v -61.587 h -61.589 z"
   id="path60" />
						</g>
						<g
   id="g62">
							<path
   style="fill:#ffffff"
   d="M 296.463,149.288 H 228.358 V 81.181 h 68.105 z m -64.847,-3.258 h 61.589 V 84.439 h -61.589 z"
   id="path61" />
						</g>
					</g>
					<g
   id="g66">
						<g
   id="g65">
							<polyline
   style="fill:none;stroke:#548282;stroke-width:4;stroke-miterlimit:10"
   points="420.247,182.803 369.45,130.74          310.985,70.821 283.82,42.98        "
   id="polyline63" />
							<g
   id="g64">
								<polygon
   style="fill:#548282"
   points="284.646,43.826 284.531,53.418 280.51,49.297 280.628,39.707 290.217,39.825 294.238,43.946 "
   id="polygon63" />
							</g>
						</g>
					</g>
				</g>
				<g
   id="g68">
					<path
   style="fill:#ffffff"
   d="m 499.756,130.574 c 1.481,-2.606 2.693,-5.419 3.566,-8.424 0.873,-3.005 1.358,-6.029 1.504,-9.023 l -8.239,-1.141 c 0.068,-2.78 -0.249,-5.517 -0.906,-8.152 l 7.801,-2.914 c -1.629,-5.914 -4.632,-11.378 -8.753,-15.923 l -6.641,5.025 c -1.872,-1.967 -4.014,-3.702 -6.397,-5.134 l 3.453,-7.568 c -2.607,-1.481 -5.419,-2.693 -8.424,-3.566 -3.005,-0.873 -6.029,-1.358 -9.023,-1.504 l -1.141,8.239 c -2.779,-0.068 -5.517,0.249 -8.152,0.906 l -2.913,-7.801 c -5.914,1.629 -11.378,4.632 -15.923,8.752 l 5.025,6.641 c -1.967,1.872 -3.702,4.014 -5.134,6.397 l -7.568,-3.452 c -1.481,2.606 -2.693,5.419 -3.566,8.424 -0.873,3.005 -1.358,6.029 -1.504,9.023 l 8.239,1.141 c -0.068,2.779 0.249,5.517 0.906,8.152 l -7.802,2.913 c 1.629,5.914 4.632,11.378 8.753,15.923 l 6.641,-5.025 c 1.872,1.967 4.014,3.702 6.397,5.134 l -3.452,7.568 c 2.606,1.481 5.419,2.693 8.424,3.566 3.005,0.873 6.029,1.357 9.023,1.504 l 1.141,-8.239 c 2.78,0.068 5.517,-0.249 8.152,-0.906 l 2.914,7.802 c 5.914,-1.629 11.378,-4.633 15.923,-8.753 l -5.025,-6.641 c 1.967,-1.872 3.702,-4.014 5.134,-6.397 z m -39.432,-0.398 c -10.451,-3.037 -16.461,-13.971 -13.424,-24.422 3.037,-10.451 13.971,-16.461 24.422,-13.424 10.451,3.037 16.461,13.971 13.424,24.422 -3.036,10.451 -13.971,16.461 -24.422,13.424 z m 1.444,-4.968 c -7.707,-2.24 -12.139,-10.303 -9.899,-18.009 2.24,-7.707 10.303,-12.139 18.009,-9.899 7.707,2.24 12.139,10.303 9.899,18.009 -2.24,7.706 -10.302,12.138 -18.009,9.899 z"
   id="path67" />
				</g>
				<g
   id="g99">
					<g
   id="g74">
						<g
   id="g69">
							<path
   style="fill:#fc7f4f"
   d="m 251.687,298.88 -10.044,132.266 11.884,7.566 c 0,0 -32.66,1.699 -33.721,0.63 -1.062,-1.07 1.34,-8.396 1.34,-8.396 l -5.453,-132.381 z"
   id="path68" />
							<path
   style="fill:#30394d"
   d="m 225.007,439.249 -4.863,-4.782 0.688,-2.512 7.474,7.306 3.598,0.013 12.677,-6.258 13.762,8.615 c 1.59,0.995 0.88,3.452 -0.996,3.445 l -18.498,-0.067 -5.903,-4.107 -1.676,-0.006 -0.014,4.085 -12.046,-0.044 0.021,-5.708 z"
   id="path69" />
						</g>
						<g
   id="g71">
							<path
   style="fill:#fc7f4f"
   d="m 225.308,298.174 -29.624,132.971 11.884,7.566 c 0,0 -32.66,1.699 -33.721,0.63 -1.062,-1.07 1.34,-8.396 1.34,-8.396 l 8.658,-132.771 z"
   id="path70" />
							<path
   style="fill:#30394d"
   d="m 179.048,439.249 -4.863,-4.782 0.688,-2.512 7.474,7.306 3.598,0.013 12.677,-6.258 13.762,8.615 c 1.59,0.995 0.88,3.452 -0.996,3.445 l -18.497,-0.067 -5.903,-4.107 -1.676,-0.006 -0.014,4.085 -12.046,-0.044 0.021,-5.708 z"
   id="path71" />
						</g>
						<g
   id="g73">
							<g
   id="g72">
								<path
   style="fill:#1a405c"
   d="m 183.329,253.89 c -23.349,20.402 -16.73,95.94 -16.73,95.94 0,0 27.678,5.492 49.918,4.136 22.241,-1.356 39.785,-5.222 39.785,-5.222 -5.319,-64.982 -12.515,-95.833 -19.694,-106.569"
   id="path72" />
							</g>
						</g>
					</g>
					<g
   id="g89">
						<g
   id="g88">
							<path
   style="fill:#262739"
   d="m 213.584,139.68 c 0,0 -2.797,16.823 -1.297,20.383 1.5,3.56 13.382,0.514 16.428,-0.159 -1.095,-8.141 -5.701,-19.05 -5.701,-19.05"
   id="path74" />
							<path
   style="fill:#fc7f4f"
   d="m 214.873,158.706 0.195,9.075 c 0,0 -5.748,5.232 -11.528,3.948 -6.089,-1.353 -6.306,-4.519 -6.306,-4.519 l 4.122,-17.387"
   id="path75" />
							<path
   style="fill:#fc7f4f"
   d="m 221.309,141.631 c 2.011,11.402 1.469,20.688 -6.162,21.369 -8.042,0.718 -15.036,-4.823 -13.681,-14.204 1.422,-9.858 18.078,-13.646 19.843,-7.165 z"
   id="path76" />
							<path
   style="fill:none;stroke:#af3586;stroke-width:0.75;stroke-linejoin:round;stroke-miterlimit:10"
   d="m 214.98,163.699 c -3.976,0.013 -9.013,-1.246 -11.943,-6.172"
   id="path77" />
							<g
   id="g78">
								<g
   id="g77">
									<polygon
   style="fill:#e3835d"
   points="202.601,148.106 202.601,148.112 "
   id="polygon77" />
								</g>
							</g>
							<g
   id="g80">
								<g
   id="g79">
									<path
   style="fill:#e3835d"
   d="m 202.565,148.119 c 0.009,0.034 0.017,0.067 0.025,0.101 0.005,0.019 0.027,0.032 0.046,0.026 0.02,-0.006 0.031,-0.026 0.026,-0.046 -0.009,-0.034 -0.017,-0.067 -0.025,-0.101 -0.005,-0.019 -0.027,-0.032 -0.046,-0.026 -0.019,0.006 -0.031,0.025 -0.026,0.046 z"
   id="path78" />
								</g>
							</g>
							<g
   id="g81">
								<path
   style="fill:#262739"
   d="m 209.324,142.767 c 6.745,0.628 11.274,-0.374 15.265,-2.662 -1.331,-3.746 -4.615,-8.865 -11.838,-7.817 -5.741,-3.736 -11.325,-1.154 -12.85,-0.359 -3.984,2.076 -6.318,5.106 -7.93,9.265 -2.618,6.752 -1.823,16.196 -0.891,21.345 5.874,0.596 10.715,0.612 14.372,0.213 -0.159,0.032 -0.372,-15.816 3.872,-19.985 z"
   id="path80" />
							</g>
							<g
   id="g82">
								<path
   style="fill:#fc7f4f"
   d="m 206.825,151.028 c 0.02,-0.313 -0.33,-1.24 -1.325,-1.633 -1.753,-0.692 -2.949,1.447 -2.822,3.195 0.081,1.098 0.425,1.968 1.142,2.849 0.944,1.161 2.237,1.47 3.013,0.129"
   id="path81" />
							</g>
							<path
   style="fill:none;stroke:#af3586;stroke-width:0.5;stroke-linejoin:round;stroke-miterlimit:10"
   d="m 216.398,148.706 c 0,0 2.054,4.138 1.694,5.182 -0.36,1.043 -2.922,0.874 -2.922,0.874"
   id="path82" />
							<path
   style="fill:#ffffff"
   d="m 217.807,156.402 -7.063,0.164 c 0,0 0.909,3.741 4.781,3.385 2.762,-0.254 2.282,-3.549 2.282,-3.549 z"
   id="path83" />
							<g
   id="g85">
								<g
   id="g84">
									<path
   style="fill:#182b6d"
   d="m 218.613,147.899 c 0.008,0.159 0.021,0.316 0.038,0.475 0.02,0.188 0.036,0.376 0.072,0.561 0.017,0.089 0.102,0.194 0.181,0.236 0.08,0.042 0.162,0.059 0.252,0.047 0.083,-0.011 0.168,-0.045 0.227,-0.108 0.066,-0.072 0.128,-0.178 0.116,-0.279 -0.042,-0.344 -0.119,-0.688 -0.209,-1.023 -0.045,-0.166 -0.21,-0.269 -0.377,-0.246 -0.163,0.021 -0.308,0.165 -0.3,0.337 z"
   id="path84" />
								</g>
							</g>
							
								<path
   style="fill:none;stroke:#182b6d;stroke-width:0.5;stroke-linecap:round;stroke-linejoin:round;stroke-miterlimit:10"
   d="m 217.327,145.928 c 0,0 1.234,-1.311 2.645,-0.005"
   id="path85" />
							<g
   id="g87">
								<g
   id="g86">
									<path
   style="fill:#182b6d"
   d="m 210.485,148.829 c -0.001,0.157 0.003,0.312 0.01,0.469 0.007,0.157 0.011,0.314 0.032,0.469 -0.002,0.054 0.009,0.105 0.034,0.152 0.016,0.049 0.043,0.091 0.082,0.127 0.068,0.068 0.181,0.12 0.279,0.116 0.102,-0.005 0.208,-0.038 0.279,-0.116 0.068,-0.074 0.122,-0.175 0.116,-0.279 -0.012,-0.188 -0.045,-0.375 -0.073,-0.561 -0.024,-0.157 -0.05,-0.313 -0.083,-0.469 -0.016,-0.078 -0.088,-0.169 -0.158,-0.206 -0.069,-0.037 -0.141,-0.051 -0.219,-0.041 -0.169,0.024 -0.297,0.167 -0.299,0.339 z"
   id="path86" />
								</g>
							</g>
							
								<path
   style="fill:none;stroke:#182b6d;stroke-width:0.5;stroke-linecap:round;stroke-linejoin:round;stroke-miterlimit:10"
   d="m 211.892,146.106 c 0,0 -1.632,-0.779 -3.631,1.025"
   id="path87" />
						</g>
					</g>
					<g
   id="g98">
						<g
   id="g91">
							<path
   style="fill:#fc7f4f"
   d="m 240.164,195.204 c 38.004,1.075 87.576,-18.141 87.576,-18.141 l -3.738,-14.63 c 0,0 -43.269,9.721 -81.657,6.101"
   id="path89" />
							<g
   id="g90">
								<path
   style="fill:#fc7f4f"
   d="m 319.077,163.694 c 5.408,-1.106 20.698,-6.983 21.375,-6.083 0.676,0.9 -4.68,3.04 -3.987,3.663 0.692,0.623 9.118,-2.095 9.557,-0.996 0.593,1.49 -8.157,3.797 -8.157,3.797 0,0 9.682,-2.031 9.832,-0.565 0.107,1.039 -7.23,2.942 -9.964,4.034 3.088,-0.795 8.21,-1.468 8.299,-0.386 0.088,1.073 -4.886,2.479 -8.652,3.767 2.411,-0.577 6.842,-1.381 6.969,-0.387 0.126,0.99 -11.781,5.283 -23.122,8.869"
   id="path90" />
							</g>
							<path
   style="fill:none;stroke:#af3586;stroke-width:0.75;stroke-linejoin:round;stroke-miterlimit:10"
   d="m 335.29,162.624 c 0,0 -3.176,4.375 -5.453,5.496"
   id="path91" />
						</g>
						<path
   style="fill:#548282"
   d="m 206.15,175.248 c 4.501,-8.768 15.267,-11.438 22.355,-10.787 14.258,1.309 24.407,3.812 24.407,3.812 l -3.264,29.537 -28.404,2.733"
   id="path92" />
						<path
   style="fill:#548282"
   d="m 217.62,167.449 c -4.325,1.566 -5.136,3.342 -8.465,2.87 -5.99,-0.849 -10.809,-3.018 -10.809,-3.018 3.764,-0.371 -11.649,5.181 -21.653,20.047 -1.734,14.74 2.352,30.842 7.389,68.161 31.905,4.719 54.634,-9.948 54.634,-9.948 0,0 0.725,-16.763 2.658,-29.415 3.626,-11.961 -0.823,-23.944 -8.636,-33.034 -1.226,-6.113 -15.118,-15.663 -15.118,-15.663 z"
   id="path93" />
						<polygon
   style="fill:#ffffff"
   points="195.913,169.316 198.135,163.407 209.926,170.426 204.501,178.563 "
   id="polygon93" />
						<polygon
   style="fill:#ffffff"
   points="216.235,176.382 209.926,170.426 215.005,164.86 217.62,167.449 "
   id="polygon94" />
						<path
   style="fill:none;stroke:#345b5a;stroke-miterlimit:10"
   d="m 242.34,203.081 c -0.835,-7.229 -6.935,-17.638 -6.935,-17.638"
   id="path94" />
						<polygon
   style="fill:#bacecd"
   points="307.661,240.918 274.956,241.365 266.463,288.664 309.26,288.227 323.448,274.425 331.542,228.022 "
   id="polygon95" />
						<g
   id="g97">
							<path
   style="fill:#fc7f4f"
   d="m 187.227,225.714 c 27.004,26.763 76.32,46.624 76.32,46.624 l 7.273,-13.233 c 0,0 -38.226,-22.483 -63.771,-51.366"
   id="path95" />
							<g
   id="g96">
								<path
   style="fill:#fc7f4f"
   d="m 266.363,256.659 c 4.703,2.89 19.88,9.052 19.76,10.171 -0.121,1.119 -5.493,-0.98 -5.414,-0.052 0.079,0.928 8.087,4.704 7.656,5.806 -0.586,1.493 -8.549,-2.805 -8.549,-2.805 0,0 8.455,5.136 7.562,6.309 -0.633,0.831 -7.289,-2.795 -10.03,-3.867 2.798,1.531 6.996,4.541 6.322,5.391 -0.669,0.843 -5.26,-1.53 -8.89,-3.165 2.154,1.227 5.937,3.669 5.352,4.481 -0.585,0.809 -12.211,-4.197 -22.94,-9.332"
   id="path96" />
							</g>
						</g>
						<path
   style="fill:#548282"
   d="m 177.014,186.879 c 9.279,-3.323 17.99,3.108 22.718,8.428 9.512,10.702 15.209,19.466 15.209,19.466 l -21.373,18.301 -10.749,-6.122"
   id="path97" />
					</g>
					<path
   style="fill:none;stroke:#345b5a;stroke-miterlimit:10"
   d="m 214.941,214.772 c 0,0 -11.816,-21.235 -21.439,-24.066"
   id="path98" />
				</g>
				<g
   id="g124">
					<g
   id="g101">
						<g
   id="g100">
							<path
   style="fill:#fc7f4f"
   d="m 554.679,259.258 c -0.574,5.075 -4.651,19.505 -3.797,20.109 0.854,0.604 2.355,-4.454 2.964,-3.827 0.608,0.627 -1.174,8.564 -0.16,8.939 1.374,0.509 2.765,-7.718 2.765,-7.718 0,0 -1.074,9.086 0.246,9.182 0.935,0.068 2.073,-6.829 2.839,-9.41 -0.474,2.902 -0.683,7.697 0.288,7.748 0.964,0.05 1.839,-4.629 2.7,-8.178 -0.33,2.265 -0.71,6.419 0.186,6.508 0.893,0.089 3.815,-11.141 6.148,-21.821"
   id="path99" />
						</g>
						<path
   style="fill:#fc7f4f"
   d="m 571.2,189.636 c 0,0 8.212,14.588 9.399,23.543 2.922,22.057 -15.38,59.422 -15.38,59.422 0,0 -13.3,-3.628 -13.3,-5.297 0,-1.669 9.269,-40.929 9.269,-40.929 l -13.293,-30.687"
   id="path100" />
					</g>
					<polygon
   style="fill:#bacecd"
   points="587.292,254.942 587.292,293.77 538.636,293.77 538.636,253.743 "
   id="polygon101" />
					<g
   id="g107">
						<path
   style="fill:#fc7f4f"
   d="m 531.265,141.732 1.784,16.448 c 0,0 -9.862,8.362 -18.589,-1.006 l 1.067,-10.827 z"
   id="path101" />
						<path
   style="fill:#fc7f4f"
   d="m 517.506,125.253 c 0,0 -10.676,14.703 -6.315,20.213 3.217,4.066 11.66,4.528 14.268,2.93 0.561,-3.011 7.481,-12.963 6.371,-15.177 -4.24,-8.462 -14.324,-7.966 -14.324,-7.966 z"
   id="path102" />
						<g
   id="g103">
							<path
   style="fill:#262739"
   d="m 534.124,127.796 c -0.345,-5.559 -5.826,-7.186 -16.346,-6.558 -1.408,0.084 -3.914,-0.872 -4.565,0.379 -0.856,1.645 -1.007,4.974 0.645,6.472 1.103,1 1.841,1.216 3.291,1.555 1.906,0.445 3.849,2.261 2.835,4.257 -0.266,0.523 -0.895,1.41 -0.497,1.841 0.202,0.218 0.88,0.459 1.142,0.599 0.757,0.405 0.709,1.556 0.238,2.274 -0.472,0.717 -0.26,1.513 -0.735,2.229 -1.125,1.694 0.209,4.818 1.959,5.854 1.548,0.917 6.625,2.448 10.341,0.521 3.223,-1.671 5.159,-6.219 5.185,-14.396 0.009,-3.136 -2.322,-5.24 -3.493,-5.027 z"
   id="path103" />
						</g>
						<path
   style="fill:#fc7f4f"
   d="m 518.668,136.193 c 1.734,-2.198 3.138,-1.848 3.904,-0.642 1.022,1.609 -1.027,4.955 -1.981,5.526 -1.933,1.157 -3.499,1.036 -3.648,-0.535"
   id="path104" />
						<g
   id="g106">
							<g
   id="g105">
								<path
   style="fill:#30394d"
   d="m 514.391,132.827 c -0.496,0.413 -0.961,1.162 -0.687,1.713 0.078,0.156 0.228,0.23 0.398,0.214 1.113,-0.109 1.325,-2.789 0.289,-1.927 z"
   id="path105" />
							</g>
						</g>
						<path
   style="fill:none;stroke:#30394d;stroke-width:0.75;stroke-miterlimit:10"
   d="m 514.53,130.789 c 0.694,0.246 1.82,0.877 2.231,1.753"
   id="path106" />
						<path
   style="fill:#ffffff"
   d="m 514.511,140.668 -2.438,-1.304 c 0,0 -1.601,2.995 -0.466,3.627 1.254,0.699 2.904,-2.323 2.904,-2.323 z"
   id="path107" />
					</g>
					<g
   id="g117">
						<g
   id="g109">
							
								<rect
   x="477.733"
   y="442.89001"
   transform="rotate(179.95597,496.99154,443.75237)"
   style="fill:#273dac"
   width="38.515999"
   height="1.725"
   id="rect107" />
							<path
   style="fill:#282a30"
   d="m 510.768,428.656 3.333,0.786 c 0,0 1.275,4.353 1.764,7.384 0.49,3.031 0.383,6.05 0.383,6.05 l -38.516,0.029 c 0,0 1.007,-3.339 10.197,-8.721 3.622,-2.122 5.465,-4.548 5.465,-4.548 z"
   id="path108" />
							<path
   style="fill:#fc7f4f"
   d="m 514.734,414.798 -0.633,14.644 c 0,0 -1.617,1.955 -8.158,1.96 -6.541,0.005 -12.549,-1.767 -12.549,-1.767 l -1.292,-19.757"
   id="path109" />
						</g>
						<g
   id="g111">
							
								<rect
   x="532.59302"
   y="442.89001"
   transform="rotate(179.95597,551.85079,443.75235)"
   style="fill:#273dac"
   width="38.515999"
   height="1.725"
   id="rect109" />
							<path
   style="fill:#282a30"
   d="m 565.627,428.656 3.333,0.786 c 0,0 1.275,4.353 1.765,7.384 0.49,3.031 0.383,6.05 0.383,6.05 l -38.516,0.029 c 0,0 1.007,-3.339 10.197,-8.721 3.622,-2.122 5.465,-4.548 5.465,-4.548 z"
   id="path110" />
							<path
   style="fill:#fc7f4f"
   d="m 567.661,414.2 1.299,15.242 c 0,0 -1.617,1.955 -8.157,1.96 -6.541,0.005 -12.549,-1.767 -12.549,-1.767 l -2.968,-19.757"
   id="path111" />
						</g>
						<path
   style="fill:#1a405c"
   d="m 561.45,262.662 c 0,0 6.008,12.51 1.18,36.446 2.457,53.443 8.848,125.29 8.848,125.29 l -36.696,-0.13 c 0,0 -7.482,-77.23 -11.931,-115.717 -4.955,-42.871 -8.054,-95.373 -8.054,-95.373"
   id="path112" />
						<path
   style="fill:none;stroke:#203269;stroke-width:0.75;stroke-miterlimit:10"
   d="m 540.705,424.269 c 0,0 -7.482,-77.23 -11.931,-115.717"
   id="path113" />
						<path
   style="fill:#1a405c"
   d="m 491.376,265.056 c 0,0 -3.899,56.342 -3.899,83.38 0,27.039 -1.736,75.962 -1.736,75.962 h 37.092 l 13.801,-127.886 c 11.303,-13.538 10.478,-42.915 7.754,-54.354 l -36.779,-10.043 z"
   id="path114" />
						<path
   style="fill:#1a405c"
   d="m 529.056,366.736 7.578,-70.224 c 9.48,-10.569 9.48,-23.911 9.48,-23.911"
   id="path115" />
						
							<line
   style="fill:none;stroke:#203269;stroke-width:0.75;stroke-miterlimit:10"
   x1="499.11801"
   y1="259.397"
   x2="490.34"
   y2="424.39801"
   id="line115" />
						
							<line
   style="fill:none;stroke:#203269;stroke-width:0.75;stroke-miterlimit:10"
   x1="523.47998"
   y1="274.26599"
   x2="541.49701"
   y2="274.62601"
   id="line116" />
						
							<line
   style="fill:none;stroke:#203269;stroke-width:0.75;stroke-miterlimit:10"
   x1="554.33801"
   y1="273.698"
   x2="561.18799"
   y2="273.55499"
   id="line117" />
					</g>
					<g
   id="g122">
						<g
   id="g118">
							<path
   style="fill:#fc7f4f"
   d="m 460.106,179.234 c -5.029,-5.69 -18.524,-27.324 -20.042,-26.983 -1.517,0.342 2.569,7.037 1.271,7.084 -1.297,0.047 -8.282,-9.828 -9.707,-9.083 -1.93,1.011 5.764,10.742 5.764,10.742 0,0 -3.013,-4.134 -4.434,-2.773 -1.007,0.964 -0.475,2.988 1.611,6.405 -1.399,-1.749 -2.72,-2.058 -3.745,-1.036 -1.015,1.015 -0.01,2.879 1.242,4.763 -0.988,-1.235 -2.429,-1.855 -2.799,-0.569 -0.484,1.683 3.599,10.416 13.257,24.657"
   id="path117" />
						</g>
						<path
   style="fill:#548282"
   d="m 532.868,156.506 c 0,0 21.253,0.891 27.627,25.08 2.874,10.905 4.724,85.691 4.724,85.691 l -77.66,-0.52 c 0,0 1.035,-67.609 2.771,-82.248 3.174,-26.752 24.238,-28.42 24.238,-28.42 0,0 0.96,2.366 9.192,2.366 8.232,0 9.108,-1.949 9.108,-1.949 z"
   id="path118" />
						<path
   style="fill:#548282"
   d="m 532.868,156.506 c 25.225,0 40.757,34.65 40.757,34.65 l -15.862,7.966"
   id="path119" />
						<path
   style="fill:#fc7f4f"
   d="m 499.545,205.669 c 0,0 -13.461,19.37 -24.329,20.422 -14.608,1.414 -40.596,-47.221 -40.596,-47.221 l 16.393,-11.073 22.453,28.241 7.658,-11.446"
   id="path120" />
						<path
   style="fill:#548282"
   d="m 514.568,156.088 c -21.718,1.194 -37.615,33.548 -37.615,33.548 l 25.431,18.254 14.434,-18.828"
   id="path121" />
						<line
   style="fill:none;stroke:#345b5a;stroke-miterlimit:10"
   x1="501.48801"
   y1="207.24699"
   x2="513.78998"
   y2="191.24699"
   id="line121" />
						<path
   style="fill:none;stroke:#345b5a;stroke-miterlimit:10"
   d="m 562.629,196.677 c -1.409,-10.178 -4.866,-18.864 -4.866,-18.864"
   id="path122" />
					</g>
					<path
   style="fill:#fc7f4f"
   d="m 513.473,134.064 c 0,0 -3.498,1.68 -3.323,2.321 0.175,0.641 1.224,2.193 1.224,2.193"
   id="path123" />
					
						<line
   style="fill:none;stroke:#203269;stroke-width:0.75;stroke-miterlimit:10"
   x1="485.741"
   y1="416.35699"
   x2="523.47998"
   y2="416.35699"
   id="line123" />
					
						<line
   style="fill:none;stroke:#203269;stroke-width:0.75;stroke-miterlimit:10"
   x1="534.00897"
   y1="416.677"
   x2="570.71503"
   y2="416.677"
   id="line124" />
				</g>
				<path
   style="fill:#a8aeba"
   d="m 400.821,78.164 h -16.104 l -8.052,13.946 8.052,13.946 h 16.104 l 8.052,-13.946 z m -4.57,19.978 h -6.964 l -3.482,-6.031 3.482,-6.031 h 6.964 l 3.482,6.031 z"
   id="path124" />
				<polygon
   style="fill:#bacecd"
   points="340.477,444.513 348.727,444.513 374,375.242 399.273,444.513 407.523,444.513 391.792,372.643 405.071,372.643 405.071,355.286 343.571,355.286 343.571,372.643 356.208,372.643 "
   id="polygon124" />
			</g>
			<path
   style="fill:#ffffff"
   d="m 278.333,112.645 h -13.33 V 99.31 c 0,-1.433 -1.159,-2.592 -2.592,-2.592 -1.433,0 -2.592,1.159 -2.592,2.592 v 13.335 h -13.33 c -1.433,0 -2.592,1.159 -2.592,2.592 0,1.433 1.159,2.592 2.592,2.592 h 13.33 v 13.33 c 0,1.433 1.159,2.592 2.592,2.592 1.433,0 2.592,-1.159 2.592,-2.592 v -13.33 h 13.33 c 1.433,0 2.592,-1.159 2.592,-2.592 0,-1.433 -1.16,-2.592 -2.592,-2.592 z"
   id="path125" />
		</g>
	</g>
</g>
</svg>
