<?xml version="1.0" encoding="UTF-8" standalone="no"?>
<svg
   width="180"
   height="35"
   viewBox="0 0 180 35"
   version="1.1"
   id="svg7"
   xmlns="http://www.w3.org/2000/svg"
   xmlns:svg="http://www.w3.org/2000/svg">
  <defs
     id="defs1" />
  <g
     id="g7"
     transform="matrix(0.25714286,0,0,0.23287657,-38.571429,-98.938288)">
    <path
       fill="#fe1620"
       transform="matrix(0.31743334,0,0,0.31743334,23.634418,-10.531358)"
       d="m 590.87961,1380.361 c -11.959,0.812 -23.89,2.674 -35.606,5.576 -23.427,5.835 -45.915,15.979 -66.039,29.773 -20.138,13.778 -37.903,31.2 -52.195,51.235 -7.12,10.034 -13.392,20.699 -18.69,31.854 -5.292,11.158 -9.564,22.817 -12.822,34.762 -1.631,5.973 -2.995,12.022 -4.093,18.122 -1.088,6.126 -1.894,12.198 -2.467,18.483 -1.092,12.237 -1.203,24.785 -0.149,37.155 2.118,24.779 8.534,49.273 19.14,71.859 20.962,45.306 58.416,82.787 103.807,103.763 5.303,2.466 10.708,4.713 16.192,6.743 1.699,-2.781 3.219,-5.678 4.773,-8.544 1.835,-3.386 3.817,-6.684 5.847,-9.955 -6.077,-2.149 -12.048,-4.595 -17.884,-7.331 -20.397,-9.582 -39.083,-22.75 -55.1,-38.613 -8.009,-7.936 -15.307,-16.585 -21.854,-25.766 -6.56,-9.174 -12.337,-18.913 -17.226,-29.085 -9.75,-20.35 -16.128,-42.358 -18.45,-64.889 -1.196,-11.28 -1.454,-22.576 -0.726,-34.024 0.359,-5.557 0.959,-11.291 1.804,-16.885 0.843,-5.618 1.885,-11.213 3.203,-16.747 2.606,-11.076 6.211,-21.926 10.693,-32.421 4.466,-10.503 9.868,-20.63 16.107,-30.241 12.438,-19.251 28.259,-36.423 46.559,-50.576 18.293,-14.166 39.101,-25.266 61.318,-32.64 11.1,-3.715 22.567,-6.467 34.227,-8.204 5.827,-0.898 11.703,-1.56 17.61,-1.964 5.906,-0.4 11.841,-0.55 17.789,-0.506 -11.815,-1.408 -23.803,-1.671 -35.768,-0.934 z"
       id="path1" />
    <path
       fill="#fe1620"
       transform="matrix(0.31743334,0,0,0.31743334,23.634418,-10.531358)"
       d="m 823.81461,1572.438 c -1.151,-12.111 -3.358,-24.094 -6.572,-35.768 -1.613,-5.835 -3.472,-11.595 -5.578,-17.255 -2.143,-5.647 -4.517,-11.198 -7.138,-16.62 -5.233,-10.847 -11.371,-21.224 -18.388,-30.926 -7.045,-9.68 -14.859,-18.76 -23.454,-26.981 7.763,9.007 14.841,18.546 20.969,28.639 6.157,10.065 11.503,20.589 15.838,31.487 2.183,5.442 4.103,10.979 5.801,16.571 1.722,5.585 3.193,11.238 4.423,16.936 2.446,11.398 3.896,22.98 4.332,34.573 0.409,11.592 -0.095,23.195 -1.575,34.653 -1.492,11.454 -3.949,22.751 -7.317,33.742 -6.782,21.969 -17.314,42.683 -31.021,60.954 -13.674,18.295 -30.456,34.179 -49.366,46.777 -18.88,12.655 -39.93,21.903 -61.856,27.437 -21.942,5.521 -44.793,7.111 -67.285,4.973 -1.65,-0.158 -3.296,-0.345 -4.941,-0.545 -7.529,5.836 -15.778,10.788 -22.839,17.202 8.558,1.793 17.217,3.076 25.916,3.828 12.412,1.051 24.92,1.121 37.334,0 12.412,-1.096 24.726,-3.276 36.746,-6.508 24.064,-6.417 46.864,-17.241 67.153,-31.481 20.271,-14.282 37.985,-32.084 52.101,-52.332 7.048,-10.13 13.202,-20.861 18.381,-32.026 5.174,-11.168 9.306,-22.793 12.426,-34.653 1.556,-5.933 2.853,-11.927 3.883,-17.96 1.009,-6.037 1.768,-12.109 2.259,-18.196 0.985,-12.172 0.937,-24.407 -0.232,-36.519 z"
       id="path2" />
    <path
       fill="#fe1620"
       transform="matrix(0.31743334,0,0,0.31743334,23.634418,-10.531358)"
       d="m 644.97761,1506.142 c 0,21.3756 -17.32837,38.704 -38.704,38.704 -21.37563,0 -38.704,-17.3284 -38.704,-38.704 0,-21.3757 17.32837,-38.704 38.704,-38.704 21.37563,0 38.704,17.3283 38.704,38.704 z"
       id="path3" />
    <path
       fill="#fe1620"
       transform="matrix(0.31743334,0,0,0.31743334,23.634418,-10.531358)"
       d="m 468.95261,1571.251 c 78.605,22.862 138.39,95.677 30.233,273.793 0,0 153.34,-120.946 114.414,-225.696 -22.873,-61.545 -97.545,-70.449 -144.647,-48.097"
       id="path4" />
    <path
       fill="#fe1620"
       transform="matrix(0.31743334,0,0,0.31743334,23.634418,-10.531358)"
       d="m 633.67361,1620.733 c 0,0 73.503,-44.731 63.673,-147.426 0,0 122.079,205.916 -157.402,341.529 41.724,-35.555 104.193,-104.758 93.729,-194.103 z"
       id="path5" />
    <path
       fill="#fe1620"
       transform="matrix(0.31743334,0,0,0.31743334,23.634418,-10.531358)"
       d="m 698.18161,1371.577 5.927,28 28.462,-3.015 -24.798,14.29 11.663,26.136 -21.254,-19.168 -21.254,19.168 11.663,-26.136 -24.798,-14.29 28.461,3.015 z"
       id="path6" />
    <path
       id="text"
       fill="#ffffff"
       transform="matrix(0.60185091,0,0,0.60185091,184.98666,24.104527)"
       d="m 243.15497,737.81586 c -1.6,3.008 -4.16,5.456 -7.68,7.344 -3.52,1.888 -8.032,2.832 -13.536,2.832 h -12.096 v 27.072 h -10.944 v -66.72 h 23.04 c 5.12,0 9.456,0.88 13.008,2.64 3.552,1.76 6.208,4.144 7.968,7.152 1.76,3.008 2.64,6.368 2.64,10.08 0,3.392 -0.8,6.592 -2.4,9.6 z m -11.904,-1.584 c 2.048,-1.888 3.072,-4.56 3.072,-8.016 0,-7.296 -4.128,-10.944 -12.384,-10.944 h -12.096 v 21.792 h 12.096 c 4.16,0 7.264,-0.944 9.312,-2.832 z m 59.424,38.832 -15.36,-26.688 h -8.352 v 26.688 h -10.944 v -66.72 h 23.04 c 5.12,0 9.456,0.896 13.008,2.688 3.552,1.792 6.208,4.192 7.968,7.2 1.76,3.008 2.64,6.368 2.64,10.08 0,4.352 -1.264,8.304 -3.792,11.856 -2.528,3.552 -6.416,5.968 -11.664,7.248 l 16.512,27.648 z m -23.712,-35.424 h 12.096 c 4.096,0 7.184,-1.024 9.264,-3.072 2.08,-2.048 3.12,-4.8 3.12,-8.256 0,-3.456 -1.024,-6.16 -3.072,-8.112 -2.048,-1.952 -5.152,-2.928 -9.312,-2.928 h -12.096 z m 60.672,-31.296 v 66.72 h -10.944 v -66.72 z m 84.672,0 v 66.72 h -10.944 v -45.696 l -20.352,45.696 h -7.584 l -20.448,-45.696 v 45.696 h -10.944 v -66.72 h 11.808 l 23.424,52.32 23.328,-52.32 z m 25.344,8.832 v 19.584 h 23.04 v 8.928 h -23.04 v 20.448 h 25.92 v 8.928 h -36.864 v -66.816 h 36.864 v 8.928 z m 74.208,56.208 c -3.584,-1.568 -6.4,-3.792 -8.448,-6.672 -2.048,-2.88 -3.072,-6.24 -3.072,-10.08 h 11.712 c 0.256,2.88 1.392,5.248 3.408,7.104 2.016,1.856 4.848,2.784 8.496,2.784 3.776,0 6.72,-0.912 8.832,-2.736 2.112,-1.824 3.168,-4.176 3.168,-7.056 0,-2.24 -0.656,-4.064 -1.968,-5.472 -1.312,-1.408 -2.944,-2.496 -4.896,-3.264 -1.952,-0.768 -4.656,-1.6 -8.112,-2.496 -4.352,-1.152 -7.888,-2.32 -10.608,-3.504 -2.72,-1.184 -5.04,-3.024 -6.96,-5.52 -1.92,-2.496 -2.88,-5.824 -2.88,-9.984 0,-3.84 0.96,-7.2 2.88,-10.08 1.92,-2.88 4.608,-5.088 8.064,-6.624 3.456,-1.536 7.456,-2.304 12,-2.304 6.464,0 11.76,1.616 15.888,4.848 4.128,3.232 6.416,7.664 6.864,13.296 h -12.096 c -0.192,-2.432 -1.344,-4.512 -3.456,-6.24 -2.112,-1.728 -4.896,-2.592 -8.352,-2.592 -3.136,0 -5.696,0.8 -7.68,2.4 -1.984,1.6 -2.976,3.904 -2.976,6.912 0,2.048 0.624,3.728 1.872,5.04 1.248,1.312 2.832,2.352 4.752,3.12 1.92,0.768 4.544,1.6 7.872,2.496 4.416,1.216 8.016,2.432 10.8,3.648 2.784,1.216 5.152,3.088 7.104,5.616 1.952,2.528 2.928,5.904 2.928,10.128 0,3.392 -0.912,6.592 -2.736,9.6 -1.824,3.008 -4.48,5.424 -7.968,7.248 -3.488,1.824 -7.6,2.736 -12.336,2.736 -4.48,0 -8.512,-0.784 -12.096,-2.352 z m 59.04,-56.208 v 19.584 h 23.04 v 8.928 h -23.04 v 20.448 h 25.92 v 8.928 h -36.864 v -66.816 h 36.864 v 8.928 z m 74.016,57.888 -15.36,-26.688 h -8.352 v 26.688 h -10.944 v -66.72 h 23.04 c 5.12,0 9.456,0.896 13.008,2.688 3.552,1.792 6.208,4.192 7.968,7.2 1.76,3.008 2.64,6.368 2.64,10.08 0,4.352 -1.264,8.304 -3.792,11.856 -2.528,3.552 -6.416,5.968 -11.664,7.248 l 16.512,27.648 z m -23.712,-35.424 h 12.096 c 4.096,0 7.184,-1.024 9.264,-3.072 2.08,-2.048 3.12,-4.8 3.12,-8.256 0,-3.456 -1.024,-6.16 -3.072,-8.112 -2.048,-1.952 -5.152,-2.928 -9.312,-2.928 h -12.096 z m 107.232,-31.296 -25.056,66.72 h -12.672 l -25.152,-66.72 h 11.712 l 19.776,55.488 19.872,-55.488 z m 20.064,0 v 66.72 h -10.944 v -66.72 z m 15.312,15.648 c 3.04,-5.184 7.168,-9.232 12.384,-12.144 5.216,-2.912 10.928,-4.368 17.136,-4.368 7.104,0 13.424,1.744 18.96,5.232 5.536,3.488 9.552,8.432 12.048,14.832 h -13.152 c -1.728,-3.52 -4.128,-6.144 -7.2,-7.872 -3.072,-1.728 -6.624,-2.592 -10.656,-2.592 -4.416,0 -8.352,0.992 -11.808,2.976 -3.456,1.984 -6.16,4.832 -8.112,8.544 -1.952,3.712 -2.928,8.032 -2.928,12.96 0,4.928 0.976,9.248 2.928,12.96 1.952,3.712 4.656,6.576 8.112,8.592 3.456,2.016 7.392,3.024 11.808,3.024 4.032,0 7.584,-0.864 10.656,-2.592 3.072,-1.728 5.472,-4.352 7.2,-7.872 h 13.152 c -2.496,6.4 -6.512,11.328 -12.048,14.784 -5.536,3.456 -11.856,5.184 -18.96,5.184 -6.272,0 -12,-1.456 -17.184,-4.368 -5.184,-2.912 -9.296,-6.96 -12.336,-12.144 -3.04,-5.184 -4.56,-11.04 -4.56,-17.568 0,-6.528 1.52,-12.384 4.56,-17.568 z m 84.24,-6.816 v 19.584 h 23.04 v 8.928 h -23.04 v 20.448 h 25.92 v 8.928 h -36.864 v -66.816 h 36.864 v 8.928 z m 49.248,56.208 c -3.584,-1.568 -6.4,-3.792 -8.448,-6.672 -2.048,-2.88 -3.072,-6.24 -3.072,-10.08 h 11.712 c 0.256,2.88 1.392,5.248 3.408,7.104 2.016,1.856 4.848,2.784 8.496,2.784 3.776,0 6.72,-0.912 8.832,-2.736 2.112,-1.824 3.168,-4.176 3.168,-7.056 0,-2.24 -0.656,-4.064 -1.968,-5.472 -1.312,-1.408 -2.944,-2.496 -4.896,-3.264 -1.952,-0.768 -4.656,-1.6 -8.112,-2.496 -4.352,-1.152 -7.888,-2.32 -10.608,-3.504 -2.72,-1.184 -5.04,-3.024 -6.96,-5.52 -1.92,-2.496 -2.88,-5.824 -2.88,-9.984 0,-3.84 0.96,-7.2 2.88,-10.08 1.92,-2.88 4.608,-5.088 8.064,-6.624 3.456,-1.536 7.456,-2.304 12,-2.304 6.464,0 11.76,1.616 15.888,4.848 4.128,3.232 6.416,7.664 6.864,13.296 h -12.096 c -0.192,-2.432 -1.344,-4.512 -3.456,-6.24 -2.112,-1.728 -4.896,-2.592 -8.352,-2.592 -3.136,0 -5.696,0.8 -7.68,2.4 -1.984,1.6 -2.976,3.904 -2.976,6.912 0,2.048 0.624,3.728 1.872,5.04 1.248,1.312 2.832,2.352 4.752,3.12 1.92,0.768 4.544,1.6 7.872,2.496 4.416,1.216 8.016,2.432 10.8,3.648 2.784,1.216 5.152,3.088 7.104,5.616 1.952,2.528 2.928,5.904 2.928,10.128 0,3.392 -0.912,6.592 -2.736,9.6 -1.824,3.008 -4.48,5.424 -7.968,7.248 -3.488,1.824 -7.6,2.736 -12.336,2.736 -4.48,0 -8.512,-0.784 -12.096,-2.352 z" />
    <path
       id="path7"
       fill="#fe1620"
       transform="matrix(0.30092546,0,0,0.30092546,187.09554,83.422953)"
       d="m 430.58193,1487.2957 c 5.344,2.72 9.44,6.608 12.288,11.664 2.848,5.056 4.272,11.008 4.272,17.856 0,6.848 -1.424,12.784 -4.272,17.808 -2.848,5.024 -6.944,8.864 -12.288,11.52 -5.344,2.656 -11.664,3.984 -18.96,3.984 h -20.832 v -66.912 h 20.832 c 7.296,0 13.616,1.36 18.96,4.08 z m 0.816,48.768 c 4.544,-4.576 6.816,-10.992 6.816,-19.248 0,-8.32 -2.288,-14.816 -6.864,-19.488 -4.576,-4.672 -11.152,-7.008 -19.728,-7.008 h -12.096 v 52.608 h 12.096 c 8.64,0 15.232,-2.288 19.776,-6.864 z m 40.8,-45.744 v 22.368 h 24.384 v 7.2 h -24.384 v 23.04 h 27.264 v 7.2 h -36 v -67.008 h 36 v 7.2 z m 54.672,58.128 c -3.488,-1.568 -6.224,-3.744 -8.208,-6.528 -1.984,-2.784 -3.008,-6 -3.072,-9.648 h 9.312 c 0.32,3.136 1.616,5.776 3.888,7.92 2.272,2.144 5.584,3.216 9.936,3.216 4.16,0 7.44,-1.04 9.84,-3.12 2.4,-2.08 3.6,-4.752 3.6,-8.016 0,-2.56 -0.704,-4.64 -2.112,-6.24 -1.408,-1.6 -3.168,-2.816 -5.28,-3.648 -2.112,-0.832 -4.96,-1.728 -8.544,-2.688 -4.416,-1.152 -7.952,-2.304 -10.608,-3.456 -2.656,-1.152 -4.928,-2.96 -6.816,-5.424 -1.888,-2.464 -2.832,-5.776 -2.832,-9.936 0,-3.648 0.928,-6.88 2.784,-9.696 1.856,-2.816 4.464,-4.992 7.824,-6.528 3.36,-1.536 7.216,-2.304 11.568,-2.304 6.272,0 11.408,1.568 15.408,4.704 4,3.136 6.256,7.296 6.768,12.48 h -9.6 c -0.32,-2.56 -1.664,-4.816 -4.032,-6.768 -2.368,-1.952 -5.504,-2.928 -9.408,-2.928 -3.648,0 -6.624,0.944 -8.928,2.832 -2.304,1.888 -3.456,4.528 -3.456,7.92 0,2.432 0.688,4.416 2.064,5.952 1.376,1.536 3.072,2.704 5.088,3.504 2.016,0.8 4.848,1.712 8.496,2.736 4.416,1.216 7.968,2.416 10.656,3.6 2.688,1.184 4.992,3.008 6.912,5.472 1.92,2.464 2.88,5.808 2.88,10.032 0,3.264 -0.864,6.336 -2.592,9.216 -1.728,2.88 -4.288,5.216 -7.68,7.008 -3.392,1.792 -7.392,2.688 -12,2.688 -4.416,0 -8.368,-0.784 -11.856,-2.352 z m 60.528,-65.232 v 66.912 h -8.736 v -66.912 z m 70.368,19.392 c -1.856,-3.904 -4.544,-6.928 -8.064,-9.072 -3.52,-2.144 -7.616,-3.216 -12.288,-3.216 -4.672,0 -8.88,1.072 -12.624,3.216 -3.744,2.144 -6.688,5.216 -8.832,9.216 -2.144,4 -3.216,8.624 -3.216,13.872 0,5.248 1.072,9.856 3.216,13.824 2.144,3.968 5.088,7.024 8.832,9.168 3.744,2.144 7.952,3.216 12.624,3.216 6.528,0 11.904,-1.952 16.128,-5.856 4.224,-3.904 6.688,-9.184 7.392,-15.84 h -26.688 v -7.104 h 36 v 6.72 c -0.512,5.504 -2.24,10.544 -5.184,15.12 -2.944,4.576 -6.816,8.192 -11.616,10.848 -4.8,2.656 -10.144,3.984 -16.032,3.984 -6.208,0 -11.872,-1.456 -16.992,-4.368 -5.12,-2.912 -9.168,-6.96 -12.144,-12.144 -2.976,-5.184 -4.464,-11.04 -4.464,-17.568 0,-6.528 1.488,-12.4 4.464,-17.616 2.976,-5.216 7.024,-9.28 12.144,-12.192 5.12,-2.912 10.784,-4.368 16.992,-4.368 7.104,0 13.392,1.76 18.864,5.28 5.472,3.52 9.456,8.48 11.952,14.88 z m 81.408,47.52 h -8.736 l -35.136,-53.28 v 53.28 h -8.736 v -67.008 h 8.736 l 35.136,53.184 v -53.184 h 8.736 z m 28.416,-66.912 v 66.912 h -8.736 v -66.912 z m 72.288,66.912 h -8.736 l -35.136,-53.28 v 53.28 h -8.736 v -67.008 h 8.736 l 35.136,53.184 v -53.184 h 8.736 z m 70.368,-47.52 c -1.856,-3.904 -4.544,-6.928 -8.064,-9.072 -3.52,-2.144 -7.616,-3.216 -12.288,-3.216 -4.672,0 -8.88,1.072 -12.624,3.216 -3.744,2.144 -6.688,5.216 -8.832,9.216 -2.144,4 -3.216,8.624 -3.216,13.872 0,5.248 1.072,9.856 3.216,13.824 2.144,3.968 5.088,7.024 8.832,9.168 3.744,2.144 7.952,3.216 12.624,3.216 6.528,0 11.904,-1.952 16.128,-5.856 4.224,-3.904 6.688,-9.184 7.392,-15.84 h -26.688 v -7.104 h 36 v 6.72 c -0.512,5.504 -2.24,10.544 -5.184,15.12 -2.944,4.576 -6.816,8.192 -11.616,10.848 -4.8,2.656 -10.144,3.984 -16.032,3.984 -6.208,0 -11.872,-1.456 -16.992,-4.368 -5.12,-2.912 -9.168,-6.96 -12.144,-12.144 -2.976,-5.184 -4.464,-11.04 -4.464,-17.568 0,-6.528 1.488,-12.4 4.464,-17.616 2.976,-5.216 7.024,-9.28 12.144,-12.192 5.12,-2.912 10.784,-4.368 16.992,-4.368 7.104,0 13.392,1.76 18.864,5.28 5.472,3.52 9.456,8.48 11.952,14.88 z m 68.592,45.84 c -3.488,-1.568 -6.224,-3.744 -8.208,-6.528 -1.984,-2.784 -3.008,-6 -3.072,-9.648 h 9.312 c 0.32,3.136 1.616,5.776 3.888,7.92 2.272,2.144 5.584,3.216 9.936,3.216 4.16,0 7.44,-1.04 9.83997,-3.12 2.4,-2.08 3.6,-4.752 3.6,-8.016 0,-2.56 -0.704,-4.64 -2.112,-6.24 -1.408,-1.6 -3.16797,-2.816 -5.27997,-3.648 -2.112,-0.832 -4.96,-1.728 -8.544,-2.688 -4.416,-1.152 -7.952,-2.304 -10.608,-3.456 -2.656,-1.152 -4.928,-2.96 -6.816,-5.424 -1.888,-2.464 -2.832,-5.776 -2.832,-9.936 0,-3.648 0.928,-6.88 2.784,-9.696 1.856,-2.816 4.464,-4.992 7.824,-6.528 3.36,-1.536 7.216,-2.304 11.568,-2.304 6.272,0 11.40797,1.568 15.40797,4.704 4,3.136 6.256,7.296 6.768,12.48 h -9.6 c -0.32,-2.56 -1.664,-4.816 -4.03197,-6.768 -2.368,-1.952 -5.504,-2.928 -9.408,-2.928 -3.648,0 -6.624,0.944 -8.928,2.832 -2.304,1.888 -3.456,4.528 -3.456,7.92 0,2.432 0.688,4.416 2.064,5.952 1.376,1.536 3.072,2.704 5.088,3.504 2.016,0.8 4.848,1.712 8.496,2.736 4.416,1.216 7.96797,2.416 10.65597,3.6 2.688,1.184 4.992,3.008 6.912,5.472 1.92,2.464 2.88,5.808 2.88,10.032 0,3.264 -0.864,6.336 -2.592,9.216 -1.728,2.88 -4.288,5.216 -7.68,7.008 -3.39197,1.792 -7.39197,2.688 -11.99997,2.688 -4.416,0 -8.368,-0.784 -11.856,-2.352 z m 60.33597,-65.232 v 42.336 c 0,5.952 1.456,10.368 4.368,13.248 2.912,2.88 6.96,4.32 12.144,4.32 5.12,0 9.136,-1.44 12.048,-4.32 2.912,-2.88 4.368,-7.296 4.368,-13.248 v -42.336 h 8.736 v 42.24 c 0,5.568 -1.12,10.256 -3.36,14.064 -2.24,3.808 -5.264,6.64 -9.072,8.496 -3.808,1.856 -8.08,2.784 -12.816,2.784 -4.736,0 -9.008,-0.928 -12.816,-2.784 -3.808,-1.856 -6.816,-4.688 -9.024,-8.496 -2.208,-3.808 -3.312,-8.496 -3.312,-14.064 v -42.24 z m 62.208,15.792 c 2.944,-5.216 6.96,-9.296 12.048,-12.24 5.088,-2.944 10.736,-4.416 16.944,-4.416 7.296,0 13.664,1.76 19.104,5.28 5.44,3.52 9.408,8.512 11.904,14.976 h -10.464 c -1.856,-4.032 -4.528,-7.136 -8.016,-9.312 -3.488,-2.176 -7.664,-3.264 -12.528,-3.264 -4.672,0 -8.864,1.088 -12.576,3.264 -3.712,2.176 -6.624,5.264 -8.736,9.264 -2.112,4 -3.168,8.688 -3.168,14.064 0,5.312 1.056,9.968 3.168,13.968 2.112,4 5.024,7.088 8.736,9.264 3.712,2.176 7.904,3.264 12.576,3.264 4.864,0 9.04,-1.072 12.528,-3.216 3.488,-2.144 6.16,-5.232 8.016,-9.264 h 10.464 c -2.496,6.4 -6.464,11.344 -11.904,14.832 -5.44,3.488 -11.808,5.232 -19.104,5.232 -6.208,0 -11.856,-1.456 -16.944,-4.368 -5.088,-2.912 -9.104,-6.96 -12.048,-12.144 -2.944,-5.184 -4.416,-11.04 -4.416,-17.568 0,-6.528 1.472,-12.4 4.416,-17.616 z m 78.912,0 c 2.944,-5.216 6.96,-9.296 12.048,-12.24 5.088,-2.944 10.736,-4.416 16.944,-4.416 7.296,0 13.664,1.76 19.104,5.28 5.44,3.52 9.408,8.512 11.904,14.976 h -10.464 c -1.856,-4.032 -4.528,-7.136 -8.016,-9.312 -3.488,-2.176 -7.664,-3.264 -12.528,-3.264 -4.672,0 -8.864,1.088 -12.576,3.264 -3.712,2.176 -6.624,5.264 -8.736,9.264 -2.112,4 -3.168,8.688 -3.168,14.064 0,5.312 1.056,9.968 3.168,13.968 2.112,4 5.024,7.088 8.736,9.264 3.712,2.176 7.904,3.264 12.576,3.264 4.864,0 9.04,-1.072 12.528,-3.216 3.488,-2.144 6.16,-5.232 8.016,-9.264 h 10.464 c -2.496,6.4 -6.464,11.344 -11.904,14.832 -5.44,3.488 -11.808,5.232 -19.104,5.232 -6.208,0 -11.856,-1.456 -16.944,-4.368 -5.088,-2.912 -9.104,-6.96 -12.048,-12.144 -2.944,-5.184 -4.416,-11.04 -4.416,-17.568 0,-6.528 1.472,-12.4 4.416,-17.616 z m 86.496,-8.688 v 22.368 h 24.384 v 7.2 h -24.384 v 23.04 h 27.264 v 7.2 h -36 v -67.008 h 36 v 7.2 z m 54.672,58.128 c -3.488,-1.568 -6.224,-3.744 -8.208,-6.528 -1.984,-2.784 -3.008,-6 -3.072,-9.648 h 9.312 c 0.32,3.136 1.616,5.776 3.888,7.92 2.272,2.144 5.584,3.216 9.936,3.216 4.16,0 7.44,-1.04 9.84,-3.12 2.4,-2.08 3.6,-4.752 3.6,-8.016 0,-2.56 -0.704,-4.64 -2.112,-6.24 -1.408,-1.6 -3.168,-2.816 -5.28,-3.648 -2.112,-0.832 -4.96,-1.728 -8.544,-2.688 -4.416,-1.152 -7.952,-2.304 -10.608,-3.456 -2.656,-1.152 -4.928,-2.96 -6.816,-5.424 -1.888,-2.464 -2.832,-5.776 -2.832,-9.936 0,-3.648 0.928,-6.88 2.784,-9.696 1.856,-2.816 4.464,-4.992 7.824,-6.528 3.36,-1.536 7.216,-2.304 11.568,-2.304 6.272,0 11.408,1.568 15.408,4.704 4,3.136 6.256,7.296 6.768,12.48 h -9.6 c -0.32,-2.56 -1.664,-4.816 -4.032,-6.768 -2.368,-1.952 -5.504,-2.928 -9.408,-2.928 -3.648,0 -6.624,0.944 -8.928,2.832 -2.304,1.888 -3.456,4.528 -3.456,7.92 0,2.432 0.688,4.416 2.064,5.952 1.376,1.536 3.072,2.704 5.088,3.504 2.016,0.8 4.848,1.712 8.496,2.736 4.416,1.216 7.968,2.416 10.656,3.6 2.688,1.184 4.992,3.008 6.912,5.472 1.92,2.464 2.88,5.808 2.88,10.032 0,3.264 -0.864,6.336 -2.592,9.216 -1.728,2.88 -4.288,5.216 -7.68,7.008 -3.392,1.792 -7.392,2.688 -12,2.688 -4.416,0 -8.368,-0.784 -11.856,-2.352 z m 61.152,0 c -3.488,-1.568 -6.224,-3.744 -8.208,-6.528 -1.984,-2.784 -3.008,-6 -3.072,-9.648 h 9.312 c 0.32,3.136 1.616,5.776 3.888,7.92 2.272,2.144 5.584,3.216 9.936,3.216 4.16,0 7.44,-1.04 9.84,-3.12 2.4,-2.08 3.6,-4.752 3.6,-8.016 0,-2.56 -0.704,-4.64 -2.112,-6.24 -1.408,-1.6 -3.168,-2.816 -5.28,-3.648 -2.112,-0.832 -4.96,-1.728 -8.544,-2.688 -4.416,-1.152 -7.952,-2.304 -10.608,-3.456 -2.656,-1.152 -4.928,-2.96 -6.816,-5.424 -1.888,-2.464 -2.832,-5.776 -2.832,-9.936 0,-3.648 0.928,-6.88 2.784,-9.696 1.856,-2.816 4.464,-4.992 7.824,-6.528 3.36,-1.536 7.216,-2.304 11.568,-2.304 6.272,0 11.408,1.568 15.408,4.704 4,3.136 6.256,7.296 6.768,12.48 h -9.6 c -0.32,-2.56 -1.664,-4.816 -4.032,-6.768 -2.368,-1.952 -5.504,-2.928 -9.408,-2.928 -3.648,0 -6.624,0.944 -8.928,2.832 -2.304,1.888 -3.456,4.528 -3.456,7.92 0,2.432 0.688,4.416 2.064,5.952 1.376,1.536 3.072,2.704 5.088,3.504 2.016,0.8 4.848,1.712 8.496,2.736 4.416,1.216 7.968,2.416 10.656,3.6 2.688,1.184 4.992,3.008 6.912,5.472 1.92,2.464 2.88,5.808 2.88,10.032 0,3.264 -0.864,6.336 -2.592,9.216 -1.728,2.88 -4.288,5.216 -7.68,7.008 -3.392,1.792 -7.392,2.688 -12,2.688 -4.416,0 -8.368,-0.784 -11.856,-2.352 z m 89.616,-65.232 v 7.104 h -29.088 v 22.56 h 23.616 v 7.104 h -23.616 v 30.144 h -8.736 v -66.912 z m 23.904,0 v 42.336 c 0,5.952 1.456,10.368 4.368,13.248 2.912,2.88 6.96,4.32 12.144,4.32 5.12,0 9.136,-1.44 12.048,-4.32 2.912,-2.88 4.368,-7.296 4.368,-13.248 v -42.336 h 8.736 v 42.24 c 0,5.568 -1.12,10.256 -3.36,14.064 -2.24,3.808 -5.264,6.64 -9.072,8.496 -3.808,1.856 -8.08,2.784 -12.816,2.784 -4.736,0 -9.008,-0.928 -12.816,-2.784 -3.808,-1.856 -6.816,-4.688 -9.024,-8.496 -2.208,-3.808 -3.312,-8.496 -3.312,-14.064 v -42.24 z m 69.792,59.808 h 23.424 v 7.104 h -32.16 v -66.912 h 8.736 z m 108.144,-24.384 c 2.016,1.6 3.616,3.584 4.8,5.952 1.184,2.368 1.776,4.896 1.776,7.584 0,3.392 -0.864,6.448 -2.592,9.168 -1.728,2.72 -4.24,4.864 -7.536,6.432 -3.296,1.568 -7.184,2.352 -11.664,2.352 h -24.96 v -66.912 h 24 c 4.544,0 8.416,0.752 11.616,2.256 3.2,1.504 5.6,3.536 7.2,6.096 1.6,2.56 2.4,5.44 2.4,8.64 0,3.968 -1.072,7.248 -3.216,9.84 -2.144,2.592 -4.976,4.464 -8.496,5.616 2.432,0.384 4.656,1.376 6.672,2.976 z m -31.44,-6.528 h 14.688 c 4.096,0 7.264,-0.96 9.504,-2.88 2.24,-1.92 3.36,-4.576 3.36,-7.968 0,-3.392 -1.12,-6.048 -3.36,-7.968 -2.24,-1.92 -5.472,-2.88 -9.696,-2.88 h -14.496 z m 25.632,27.744 c 2.432,-2.048 3.648,-4.896 3.648,-8.544 0,-3.712 -1.28,-6.64 -3.84,-8.784 -2.56,-2.144 -5.984,-3.216 -10.272,-3.216 h -15.168 v 23.616 h 15.456 c 4.352,0 7.744,-1.024 10.176,-3.072 z m 37.824,-56.64 v 42.336 c 0,5.952 1.456,10.368 4.368,13.248 2.912,2.88 6.96,4.32 12.144,4.32 5.12,0 9.136,-1.44 12.048,-4.32 2.912,-2.88 4.368,-7.296 4.368,-13.248 v -42.336 h 8.736 v 42.24 c 0,5.568 -1.12,10.256 -3.36,14.064 -2.24,3.808 -5.264,6.64 -9.072,8.496 -3.808,1.856 -8.08,2.784 -12.816,2.784 -4.736,0 -9.008,-0.928 -12.816,-2.784 -3.808,-1.856 -6.816,-4.688 -9.024,-8.496 -2.208,-3.808 -3.312,-8.496 -3.312,-14.064 v -42.24 z m 70.416,65.232 c -3.488,-1.568 -6.224,-3.744 -8.208,-6.528 -1.984,-2.784 -3.008,-6 -3.072,-9.648 h 9.312 c 0.32,3.136 1.616,5.776 3.888,7.92 2.272,2.144 5.584,3.216 9.936,3.216 4.16,0 7.44,-1.04 9.84,-3.12 2.4,-2.08 3.6,-4.752 3.6,-8.016 0,-2.56 -0.704,-4.64 -2.112,-6.24 -1.408,-1.6 -3.168,-2.816 -5.28,-3.648 -2.112,-0.832 -4.96,-1.728 -8.544,-2.688 -4.416,-1.152 -7.952,-2.304 -10.608,-3.456 -2.656,-1.152 -4.928,-2.96 -6.816,-5.424 -1.888,-2.464 -2.832,-5.776 -2.832,-9.936 0,-3.648 0.928,-6.88 2.784,-9.696 1.856,-2.816 4.464,-4.992 7.824,-6.528 3.36,-1.536 7.216,-2.304 11.568,-2.304 6.272,0 11.408,1.568 15.408,4.704 4,3.136 6.256,7.296 6.768,12.48 h -9.6 c -0.32,-2.56 -1.664,-4.816 -4.032,-6.768 -2.368,-1.952 -5.504,-2.928 -9.408,-2.928 -3.648,0 -6.624,0.944 -8.928,2.832 -2.304,1.888 -3.456,4.528 -3.456,7.92 0,2.432 0.688,4.416 2.064,5.952 1.376,1.536 3.072,2.704 5.088,3.504 2.016,0.8 4.848,1.712 8.496,2.736 4.416,1.216 7.968,2.416 10.656,3.6 2.688,1.184 4.992,3.008 6.912,5.472 1.92,2.464 2.88,5.808 2.88,10.032 0,3.264 -0.864,6.336 -2.592,9.216 -1.728,2.88 -4.288,5.216 -7.68,7.008 -3.392,1.792 -7.392,2.688 -12,2.688 -4.416,0 -8.368,-0.784 -11.856,-2.352 z m 60.528,-65.232 v 66.912 h -8.736 v -66.912 z m 72.288,66.912 h -8.736 l -35.136,-53.28 v 53.28 h -8.736 v -67.008 h 8.736 l 35.136,53.184 v -53.184 h 8.736 z m 28.416,-59.808 v 22.368 h 24.384 v 7.2 h -24.384 v 23.04 h 27.264 v 7.2 h -36 v -67.008 h 36 v 7.2 z m 54.672,58.128 c -3.488,-1.568 -6.224,-3.744 -8.208,-6.528 -1.984,-2.784 -3.008,-6 -3.072,-9.648 h 9.312 c 0.32,3.136 1.616,5.776 3.888,7.92 2.272,2.144 5.584,3.216 9.936,3.216 4.16,0 7.44,-1.04 9.84,-3.12 2.4,-2.08 3.6,-4.752 3.6,-8.016 0,-2.56 -0.704,-4.64 -2.112,-6.24 -1.408,-1.6 -3.168,-2.816 -5.28,-3.648 -2.112,-0.832 -4.96,-1.728 -8.544,-2.688 -4.416,-1.152 -7.952,-2.304 -10.608,-3.456 -2.656,-1.152 -4.928,-2.96 -6.816,-5.424 -1.888,-2.464 -2.832,-5.776 -2.832,-9.936 0,-3.648 0.928,-6.88 2.784,-9.696 1.856,-2.816 4.464,-4.992 7.824,-6.528 3.36,-1.536 7.216,-2.304 11.568,-2.304 6.272,0 11.408,1.568 15.408,4.704 4,3.136 6.256,7.296 6.768,12.48 h -9.6 c -0.32,-2.56 -1.664,-4.816 -4.032,-6.768 -2.368,-1.952 -5.504,-2.928 -9.408,-2.928 -3.648,0 -6.624,0.944 -8.928,2.832 -2.304,1.888 -3.456,4.528 -3.456,7.92 0,2.432 0.688,4.416 2.064,5.952 1.376,1.536 3.072,2.704 5.088,3.504 2.016,0.8 4.848,1.712 8.496,2.736 4.416,1.216 7.968,2.416 10.656,3.6 2.688,1.184 4.992,3.008 6.912,5.472 1.92,2.464 2.88,5.808 2.88,10.032 0,3.264 -0.864,6.336 -2.592,9.216 -1.728,2.88 -4.288,5.216 -7.68,7.008 -3.392,1.792 -7.392,2.688 -12,2.688 -4.416,0 -8.368,-0.784 -11.856,-2.352 z m 61.152,0 c -3.488,-1.568 -6.224,-3.744 -8.208,-6.528 -1.984,-2.784 -3.008,-6 -3.072,-9.648 h 9.312 c 0.32,3.136 1.616,5.776 3.888,7.92 2.272,2.144 5.584,3.216 9.936,3.216 4.16,0 7.44,-1.04 9.84,-3.12 2.4,-2.08 3.6,-4.752 3.6,-8.016 0,-2.56 -0.704,-4.64 -2.112,-6.24 -1.408,-1.6 -3.168,-2.816 -5.28,-3.648 -2.112,-0.832 -4.96,-1.728 -8.544,-2.688 -4.416,-1.152 -7.952,-2.304 -10.608,-3.456 -2.656,-1.152 -4.928,-2.96 -6.816,-5.424 -1.888,-2.464 -2.832,-5.776 -2.832,-9.936 0,-3.648 0.928,-6.88 2.784,-9.696 1.856,-2.816 4.464,-4.992 7.824,-6.528 3.36,-1.536 7.216,-2.304 11.568,-2.304 6.272,0 11.408,1.568 15.408,4.704 4,3.136 6.256,7.296 6.768,12.48 h -9.6 c -0.32,-2.56 -1.664,-4.816 -4.032,-6.768 -2.368,-1.952 -5.504,-2.928 -9.408,-2.928 -3.648,0 -6.624,0.944 -8.928,2.832 -2.304,1.888 -3.456,4.528 -3.456,7.92 0,2.432 0.688,4.416 2.064,5.952 1.376,1.536 3.072,2.704 5.088,3.504 2.016,0.8 4.848,1.712 8.496,2.736 4.416,1.216 7.968,2.416 10.656,3.6 2.688,1.184 4.992,3.008 6.912,5.472 1.92,2.464 2.88,5.808 2.88,10.032 0,3.264 -0.864,6.336 -2.592,9.216 -1.728,2.88 -4.288,5.216 -7.68,7.008 -3.392,1.792 -7.392,2.688 -12,2.688 -4.416,0 -8.368,-0.784 -11.856,-2.352 z m 60.528,-58.128 v 22.368 h 24.384 v 7.2 h -24.384 v 23.04 h 27.264 v 7.2 h -36 v -67.008 h 36 v 7.2 z m 54.672,58.128 c -3.488,-1.568 -6.224,-3.744 -8.208,-6.528 -1.984,-2.784 -3.008,-6 -3.072,-9.648 h 9.312 c 0.32,3.136 1.616,5.776 3.888,7.92 2.272,2.144 5.584,3.216 9.936,3.216 4.16,0 7.44,-1.04 9.84,-3.12 2.4,-2.08 3.6,-4.752 3.6,-8.016 0,-2.56 -0.704,-4.64 -2.112,-6.24 -1.408,-1.6 -3.168,-2.816 -5.28,-3.648 -2.112,-0.832 -4.96,-1.728 -8.544,-2.688 -4.416,-1.152 -7.952,-2.304 -10.608,-3.456 -2.656,-1.152 -4.928,-2.96 -6.816,-5.424 -1.888,-2.464 -2.832,-5.776 -2.832,-9.936 0,-3.648 0.928,-6.88 2.784,-9.696 1.856,-2.816 4.464,-4.992 7.824,-6.528 3.36,-1.536 7.216,-2.304 11.568,-2.304 6.272,0 11.408,1.568 15.408,4.704 4,3.136 6.256,7.296 6.768,12.48 h -9.6 c -0.32,-2.56 -1.664,-4.816 -4.032,-6.768 -2.368,-1.952 -5.504,-2.928 -9.408,-2.928 -3.648,0 -6.624,0.944 -8.928,2.832 -2.304,1.888 -3.456,4.528 -3.456,7.92 0,2.432 0.688,4.416 2.064,5.952 1.376,1.536 3.072,2.704 5.088,3.504 2.016,0.8 4.848,1.712 8.496,2.736 4.416,1.216 7.968,2.416 10.656,3.6 2.688,1.184 4.992,3.008 6.912,5.472 1.92,2.464 2.88,5.808 2.88,10.032 0,3.264 -0.864,6.336 -2.592,9.216 -1.728,2.88 -4.288,5.216 -7.68,7.008 -3.392,1.792 -7.392,2.688 -12,2.688 -4.416,0 -8.368,-0.784 -11.856,-2.352 z" />
  </g>
</svg>
